<?xml version="1.0" standalone="no"?>
<!DOCTYPE svg PUBLIC "-//W3C//DTD SVG 1.1//EN" "http://www.w3.org/Graphics/SVG/1.1/DTD/svg11.dtd" >
<svg>
<metadata>
Created by FontForge 20090622 at Sat Nov  7 16:29:27 2015
 By deploy user
Copyright (c) 2012 Typotheque VOF. All rights reserved.
</metadata>
<defs>
<font id="GretaArabic-Regular" horiz-adv-x="0" >
  <font-face 
    font-family="Greta Arabic Regular"
    font-weight="400"
    font-stretch="normal"
    units-per-em="1000"
    panose-1="0 0 0 0 0 0 0 0 0 0"
    ascent="710"
    descent="-290"
    x-height="443"
    cap-height="573"
    bbox="-228 -522 1271 1358"
    underline-thickness="50"
    underline-position="-50"
    unicode-range="U+001D-U+FEFC"
  />
<missing-glyph horiz-adv-x="306" 
 />
    <glyph glyph-name="fi" unicode="FI" horiz-adv-x="592" 
d="M72 10v18l75 22v354h-81v23l81 19v53q0 79 57 137q60 63 151 63q69 0 106 -19l-13 -72h-12l-132 58q-83 -47 -83 -137v-86h196l68 9h29v-401l79 -23v-18h-219v18l66 22v354h-219v-352l72 -23v-19h-221z" />
    <glyph glyph-name="fl" unicode="FL" horiz-adv-x="588" 
d="M368 10v18l74 23v565l-136 46q-85 -46 -85 -137v-82h100v-39h-100v-352l72 -23v-19h-221v18l75 22v354h-81v23l81 19v62q0 77 58 131q61 57 157 57q43 0 82 -10l28 7h44v-640l78 -24v-19h-226z" />
    <glyph glyph-name="f_f_i" unicode="FFI" horiz-adv-x="897" 
d="M451 443v56q0 51 31 106q-85 54 -151 63q-49 -13 -79 -51q-31 -40 -31 -92v-82h230zM72 10v18l75 22v354h-81v23l81 19v58q0 75 62 132q67 63 171 63q75 0 145 -46q58 46 133 46q69 0 106 -19l-13 -72h-12l-132 58q-83 -47 -83 -137v-86h197l68 9h28v-401l79 -23v-18
h-218v18l66 22v354h-220v-352l73 -23v-19h-222v17l76 22v355h-230v-353l80 -23v-18h-229z" />
    <glyph glyph-name="f_f_l" unicode="FFL" horiz-adv-x="885" 
d="M221 525v-82h229v65q0 45 32 98q-92 54 -151 62q-49 -13 -79 -51q-31 -40 -31 -92zM375 10v18l75 22v354h-229v-353l80 -23v-18h-229v18l75 22v354h-81v23l81 19v58q0 75 62 132q67 63 171 63q73 0 146 -46q61 43 139 43q35 0 78 -9l24 6h45v-640l78 -24v-19h-226v18
l74 23v568l-129 43q-85 -46 -85 -137v-82h100v-39h-100v-352l72 -23v-19h-221z" />
    <glyph glyph-name="uniFCCC" unicode="&#xfedf;&#xfee4;" horiz-adv-x="303" arabic-form="initial" 
d="M228 -45l-65 39q-28 16 -139 16h-28l-6 1v79l24 1q73 0 154 -35q-64 104 -65 136l-10 363l-23 60l83 81l6 -4v-47l43 -78l-43 -46v-375q47 -53 120 -104z" />
    <glyph glyph-name="uniFEF5" unicode="&#xfedf;&#xfe82;" horiz-adv-x="561" arabic-form="isolated" 
d="M291 740l-28 -61q-53 -14 -128 -14q-48 0 -93 13l-29 -52l-3 1q6 26 20 60q2 3 23 23q23 20 24 20l87 -3q63 0 129 9zM129 17l17 92q87 49 189 147q-98 92 -201 173l-41 -12l-49 43l28 120l5 1q212 -191 292 -280q37 67 37 157v90l-27 69l81 79l9 -6v-47l43 -76l-44 -47
v-25q-2 -131 -72 -225q75 -96 75 -144q0 -17 -25 -57q-26 -41 -37 -48q-25 -11 -127 -11q-129 0 -153 7zM155 88h149q110 0 141 16q-25 61 -84 127q-74 -67 -206 -143z" />
    <glyph glyph-name="uniFEF6" unicode="&#xfee0;&#xfe82;" horiz-adv-x="570" arabic-form="final" 
d="M262 740l-27 -63q-54 -14 -129 -14q-42 0 -93 14l-29 -52l-2 1q6 26 20 59l22 23q23 20 24 20l87 -3q63 0 129 10zM567 11l-7 -1q-132 0 -151 183l-48 -110q-19 -19 -75 -43q-68 -30 -114 -30q-43 0 -150 56l3 14q147 0 259 36q-29 186 -157 313l-41 -10l-50 43l36 118h4
q205 -215 230 -351l-23 -114q76 29 113 63l-11 461l63 60h4v-485q0 -66 15 -89q23 -33 93 -34l7 -1v-79z" />
    <glyph glyph-name="uniFEF7" unicode="&#xfedf;&#xfe84;" horiz-adv-x="561" arabic-form="isolated" 
d="M259 715l-23 -50q-55 -26 -111 -26q-9 0 -59 41v2q45 0 60 4v15q-19 10 -19 38q0 35 22 63q23 30 56 30q25 0 39 -38q8 -21 9 -33l-2 -1q-12 23 -45 23q-35 0 -72 -31q18 -55 72 -55q37 0 76 14zM157 17l17 92q87 49 189 147q-98 92 -201 173l-41 -12l-49 43l28 120l5 1
q212 -191 292 -280q37 67 37 157v90l-27 69l81 79l9 -6v-47l43 -76l-44 -47v-25q-2 -131 -72 -225q75 -96 75 -144q0 -17 -25 -57q-26 -41 -37 -48q-25 -11 -127 -11q-129 0 -153 7zM183 88h149q110 0 141 16q-25 61 -84 127q-74 -67 -206 -143z" />
    <glyph glyph-name="uniFEF8" unicode="&#xfee0;&#xfe84;" horiz-adv-x="570" arabic-form="final" 
d="M200 723l-23 -51q-55 -26 -112 -26q-9 0 -59 41l1 2q45 0 60 4v15q-20 11 -20 39q0 34 22 62q24 30 57 30q25 0 39 -38q7 -18 8 -33l-2 -1q-15 23 -44 23q-36 0 -73 -31q19 -55 73 -55q36 0 75 15zM579 11l-7 -1q-132 0 -151 183l-48 -110q-19 -19 -75 -43
q-68 -30 -114 -30q-43 0 -150 56l3 14q147 0 259 36q-29 186 -157 313l-41 -10l-50 43l36 118h4q205 -215 230 -351l-23 -114q76 29 113 63l-11 461l63 60h4v-485q0 -66 15 -89q23 -33 93 -34l7 -1v-79z" />
    <glyph glyph-name="uniFEF9" unicode="&#xfedf;&#xfe88;" horiz-adv-x="561" arabic-form="isolated" 
d="M163 17l17 92q87 49 189 147q-98 92 -201 173l-41 -12l-49 43l28 120l5 1q212 -191 292 -280q37 67 37 157v90l-27 69l81 79l9 -6v-47l43 -76l-44 -47v-25q-2 -131 -72 -225q75 -96 75 -144q0 -17 -25 -57q-26 -41 -37 -48q-25 -11 -127 -11q-129 0 -153 7zM189 88h149
q110 0 141 16q-25 61 -84 127q-74 -67 -206 -143zM313 -195l-23 -50q-55 -26 -111 -26q-7 0 -60 41l1 2q45 0 60 4v15q-20 11 -20 38q0 34 22 62q24 30 57 30q26 0 39 -37q7 -18 8 -33l-2 -1q-15 23 -44 23q-36 0 -73 -31q19 -55 73 -55q36 0 75 14z" />
    <glyph glyph-name="uniFEFA" unicode="&#xfee0;&#xfe88;" horiz-adv-x="570" arabic-form="final" 
d="M607 11l-7 -1q-132 0 -151 183l-48 -110q-19 -19 -75 -43q-68 -30 -114 -30q-43 0 -150 56l3 14q147 0 259 36q-29 186 -157 313l-41 -10l-50 43l36 118h4q205 -215 230 -351l-23 -114q76 29 113 63l-11 461l63 60h4v-485q0 -66 15 -89q23 -33 93 -34l7 -1v-79zM367 -183
l-23 -50q-55 -26 -111 -26q-9 0 -59 41v2q45 0 60 4v15q-19 10 -19 39q0 34 22 62q23 30 56 30q25 0 39 -38q8 -21 9 -33l-2 -1q-12 23 -45 23q-35 0 -72 -31q18 -55 72 -55q37 0 76 14z" />
    <glyph glyph-name="uniFEFB" unicode="&#xfedf;&#xfe8e;" horiz-adv-x="561" arabic-form="isolated" 
d="M161 17l18 92q90 52 187 147q-90 85 -200 173l-40 -12l-50 43l29 120l4 1q210 -188 293 -281q36 72 36 158v90l-26 69l80 79l10 -6v-47l42 -76l-44 -47v-25q-2 -131 -72 -225q75 -94 75 -144q0 -15 -25 -58q-26 -41 -36 -47q-27 -11 -128 -11q-129 0 -153 7zM187 88h150
q110 0 141 16q-27 63 -85 127q-71 -64 -206 -143z" />
    <glyph glyph-name="uniFEFC" unicode="&#xfee0;&#xfe8e;" horiz-adv-x="570" arabic-form="final" 
d="M607 11l-7 -1q-132 0 -151 183l-48 -110q-19 -19 -75 -43q-68 -30 -114 -30q-43 0 -150 56l3 14q147 0 259 36q-29 186 -157 313l-41 -10l-50 43l36 118h4q205 -215 230 -351l-23 -114q76 29 113 63l-11 461l63 60h4v-485q0 -66 15 -89q23 -33 93 -34l7 -1v-79z" />
    <glyph glyph-name="_114" unicode="&#xfe92;&#xfee6;" horiz-adv-x="840" 
d="M344 327q-31 22 -50 50q28 33 50 51q34 -28 50 -50q-19 -29 -50 -51zM285 -183q-197 0 -197 164q0 96 71 203l10 -5q-34 -78 -34 -139q0 -140 171 -140q113 0 202 50q-22 132 -57 293l64 69h5q8 -48 10 -58q6 -22 17 -30q10 -7 38 -7q96 0 146 50l51 58v-157
q0 -53 10 -63q11 -14 56 -14h35l7 -1v-79l-7 -1h-35q-98 0 -116 115l-13 100q-73 -87 -139 -87h-37q4 -89 4 -147q-2 -21 -26 -62q-22 -43 -31 -50q-62 -62 -205 -62zM729 -180q-28 21 -49 50q24 31 49 51q37 -28 51 -50q-20 -29 -51 -51z" />
    <glyph glyph-name="_115" unicode="&#xfe92;&#xfeae;" horiz-adv-x="623" 
d="M429 -180q-31 22 -50 50q28 33 50 51q34 -28 50 -50q-19 -29 -50 -51zM69 -183q-16 0 -80 34q-58 31 -69 40l6 13q55 -11 80 -11q75 0 136 64q50 53 75 130l-82 162l52 84h4l20 -64q9 -23 24 -29q15 -5 48 -5q97 0 147 50l51 58v-175q0 -53 10 -63q11 -14 56 -14h35l7 -1
v-79l-7 -1h-35q-51 0 -82 34q-28 31 -34 81l-14 117q-73 -87 -139 -87l-37 1v-117q-3 -56 -56 -136q-59 -86 -116 -86z" />
    <glyph glyph-name="_131" unicode="&#xfebf;&#xfef0;" horiz-adv-x="1189" 
d="M1003 534q-31 22 -50 50q26 34 50 51q35 -30 50 -51q-19 -28 -50 -50zM839 91l42 1q181 3 275 55q-28 72 -72 115q-50 47 -100 47q-114 0 -253 -204q50 -14 108 -14zM302 -218q-116 0 -171 54q-43 42 -43 111q0 96 71 206l13 -7q-37 -73 -37 -130q0 -150 185 -150
q174 0 271 70q-12 54 -122 83q-122 32 -143 72q-25 52 -5 112q23 53 109 93q79 35 138 35q44 0 57 -16q9 -13 22 -62q27 -103 64 -137q150 278 301 278q67 0 123 -77q51 -69 51 -127q0 -63 -59 -122q-58 -58 -283 -58h-19q-117 0 -167 66q-35 45 -60 178q-169 -4 -265 -93
q25 -31 148 -64q66 -19 100 -43q39 -32 39 -84q0 -11 -14 -56q-14 -40 -19 -45q-26 -26 -93 -52q-94 -35 -192 -35z" />
    <glyph glyph-name="_132" unicode="&#xfebf;&#xfef2;" horiz-adv-x="1189" 
d="M1003 534q-31 22 -50 50q26 34 50 51q35 -30 50 -51q-19 -28 -50 -50zM839 91l42 1q181 3 275 55q-28 72 -72 115q-50 47 -100 47q-114 0 -253 -204q50 -14 108 -14zM302 -218q-116 0 -171 54q-43 42 -43 111q0 96 71 206l13 -7q-37 -73 -37 -130q0 -150 185 -150
q174 0 271 70q-12 54 -122 83q-122 32 -143 72q-25 52 -5 112q23 53 109 93q79 35 138 35q44 0 57 -16q9 -13 22 -62q27 -103 64 -137q150 278 301 278q67 0 123 -77q51 -69 51 -127q0 -63 -59 -122q-58 -58 -283 -58h-19q-117 0 -167 66q-35 45 -60 178q-169 -4 -265 -93
q25 -31 148 -64q66 -19 100 -43q39 -32 39 -84q0 -11 -14 -56q-14 -40 -19 -45q-26 -26 -93 -52q-94 -35 -192 -35zM446 -335q-20 -29 -52 -52q-27 21 -55 59q-32 -43 -57 -59q-31 22 -50 51q27 33 50 52q37 -31 56 -59q45 50 56 59q40 -34 52 -51z" />
    <glyph glyph-name="_133" unicode="&#xfebf;&#xfe8a;" horiz-adv-x="1201" 
d="M1010 534q-32 24 -50 49q24 30 50 52q35 -30 50 -51q-19 -28 -50 -50zM272 355l-23 -50q-54 -27 -112 -27q-9 0 -59 42l1 2q45 0 60 4v15q-20 11 -20 38q0 34 22 62q24 30 57 30q25 0 39 -38q7 -18 8 -33h-2q-16 22 -44 22q-39 0 -73 -31q19 -55 73 -55q36 0 75 15z
M846 91l42 1q181 3 275 55q-27 73 -71 115q-50 47 -101 47q-112 0 -252 -203q47 -15 107 -15zM310 -218q-115 0 -171 53q-43 43 -43 112q0 96 71 206l12 -7q-37 -73 -37 -130q0 -150 185 -150q174 0 271 70q-11 55 -122 83q-122 31 -142 72q-8 17 -9 59q-1 33 4 53
q23 53 108 93q79 35 139 35q43 0 56 -16q9 -11 22 -62q29 -104 65 -137q149 278 301 278q66 0 122 -77q51 -69 51 -127q0 -63 -59 -122q-58 -58 -283 -58h-19q-116 0 -166 66q-35 45 -60 178q-170 -5 -266 -93q27 -30 148 -64q66 -19 100 -43q39 -32 39 -84q0 -63 -32 -101
q-91 -87 -285 -87z" />
    <glyph glyph-name="_136" unicode="&#xfec0;&#xfef0;" horiz-adv-x="1214" 
d="M996 534q-28 21 -49 50q24 31 49 51q38 -31 51 -51q-19 -28 -51 -50zM839 91l42 1q181 3 275 55q-28 72 -72 115q-50 47 -100 47q-114 0 -253 -204q50 -14 108 -14zM302 -218q-116 0 -171 54q-43 42 -43 111q0 96 71 206l13 -7q-37 -73 -37 -130q0 -150 185 -150
q174 0 271 70q-12 54 -122 83q-122 32 -143 72q-25 52 -5 112q23 53 109 93q79 35 138 35q44 0 57 -16q9 -13 22 -62q27 -103 64 -137q150 278 301 278q67 0 123 -77q51 -69 51 -127q0 -32 -40 -99h111l7 -1v-79l-7 -1h-69q-34 0 -74 48q-98 -48 -270 -48h-19
q-117 0 -167 66q-35 45 -60 178q-169 -4 -265 -93q25 -31 148 -64q66 -19 100 -43q39 -32 39 -84q0 -11 -14 -56q-14 -40 -19 -45q-26 -26 -93 -52q-94 -35 -192 -35z" />
    <glyph glyph-name="_137" unicode="&#xfec0;&#xfef2;" horiz-adv-x="1214" 
d="M996 534q-28 21 -49 50q24 31 49 51q38 -31 51 -51q-19 -28 -51 -50zM839 91l42 1q181 3 275 55q-28 72 -72 115q-50 47 -100 47q-114 0 -253 -204q50 -14 108 -14zM302 -218q-116 0 -171 54q-43 42 -43 111q0 96 71 206l13 -7q-37 -73 -37 -130q0 -150 185 -150
q174 0 271 70q-12 54 -122 83q-122 32 -143 72q-25 52 -5 112q23 53 109 93q79 35 138 35q44 0 57 -16q9 -13 22 -62q27 -103 64 -137q150 278 301 278q67 0 123 -77q51 -69 51 -127q0 -32 -40 -99h111l7 -1v-79l-7 -1h-69q-34 0 -74 48q-98 -48 -270 -48h-19
q-117 0 -167 66q-35 45 -60 178q-169 -4 -265 -93q25 -31 148 -64q66 -19 100 -43q39 -32 39 -84q0 -11 -14 -56q-14 -40 -19 -45q-26 -26 -93 -52q-94 -35 -192 -35zM440 -335q-20 -29 -52 -52q-13 9 -56 59q-32 -43 -57 -59q-31 24 -49 51q25 31 49 52q37 -32 57 -60
q30 38 56 60q39 -33 52 -51z" />
    <glyph glyph-name="_138" unicode="&#xfec0;&#xfe8a;" horiz-adv-x="1226" 
d="M1010 534q-32 24 -50 49q24 30 50 52q35 -30 50 -51q-19 -28 -50 -50zM272 355l-23 -50q-54 -27 -112 -27q-9 0 -59 42l1 2q45 0 60 4v15q-20 11 -20 38q0 34 22 62q24 30 57 30q25 0 39 -38q7 -18 8 -33h-2q-16 22 -44 22q-39 0 -73 -31q19 -55 73 -55q36 0 75 15z
M846 91l42 1q181 3 275 55q-27 73 -71 115q-50 47 -101 47q-112 0 -252 -203q47 -15 107 -15zM310 -218q-115 0 -171 53q-43 43 -43 112q0 96 71 206l12 -7q-37 -73 -37 -130q0 -150 185 -150q174 0 271 70q-11 55 -122 83q-122 31 -142 72q-8 17 -9 59q-1 33 4 53
q23 53 108 93q79 35 139 35q43 0 56 -16q9 -11 22 -62q29 -104 65 -137q149 278 301 278q66 0 122 -77q51 -69 51 -127q0 -32 -40 -99h111l7 -1v-79l-7 -1h-69q-33 0 -74 48q-97 -48 -270 -48h-19q-116 0 -166 66q-35 45 -60 178q-170 -5 -266 -93q27 -30 148 -64
q66 -19 100 -43q39 -32 39 -84q0 -63 -32 -101q-91 -87 -285 -87z" />
    <glyph glyph-name="_182" unicode="&#xfed3;&#xfef2;" horiz-adv-x="710" 
d="M556 602q-28 21 -49 50q25 31 49 52q38 -32 51 -51q-19 -29 -51 -51zM532 232q55 0 117 17q-41 156 -115 156q-37 0 -69 -44q-28 -37 -41 -94q47 -35 108 -35zM288 -220q-105 0 -157 54q-43 43 -43 112q0 95 71 205l13 -7q-37 -73 -37 -129q0 -148 171 -148q159 0 280 64
q-33 79 -142 79h-32l2 -4l29 83h64q91 0 149 12q6 41 6 51q0 27 -12 98l-41 -70q-36 -15 -84 -15q-65 0 -90 33q-29 43 -28 86q2 64 44 127q47 72 106 72q60 0 102 -94q40 -86 40 -198q0 -25 -5 -58q-5 -22 -34 -63q-26 -36 -32 -38q-14 -6 -49 -12q31 -34 31 -53
q0 -23 -16 -64q-16 -42 -24 -49q-104 -74 -282 -74zM434 -365q-18 -28 -52 -52q-22 16 -55 59q-30 -39 -58 -59q-31 24 -49 51q25 31 49 52q38 -32 57 -59q41 45 56 59q40 -34 52 -51z" />
    <glyph glyph-name="_272" unicode="&#xfedb;&#xfef0;" horiz-adv-x="910" 
d="M288 -220q-104 0 -157 53q-43 43 -43 111q0 97 71 207l13 -7q-37 -74 -37 -130q0 -147 171 -147q158 0 280 65q-42 78 -150 78h-11l2 -4l27 85h181q153 0 208 15q-41 95 -227 210l-17 -17l-71 51q-1 1 16 57q16 58 23 61l341 196l-17 -88l-305 -157q150 -82 226 -166
q62 -68 62 -111q0 -7 -20 -56q-21 -47 -31 -54q-28 -22 -200 -22h-34q21 -30 21 -43q0 -23 -16 -64q-16 -42 -24 -49q-104 -74 -282 -74z" />
    <glyph glyph-name="_273" unicode="&#xfedb;&#xfef2;" horiz-adv-x="910" 
d="M288 -220q-104 0 -157 53q-43 43 -43 111q0 97 71 207l13 -7q-37 -74 -37 -130q0 -147 171 -147q158 0 280 65q-42 78 -150 78h-11l2 -4l27 85h181q153 0 208 15q-41 95 -227 210l-17 -17l-71 51q-1 1 16 57q16 58 23 61l341 196l-17 -88l-305 -157q150 -82 226 -166
q62 -68 62 -111q0 -7 -20 -56q-21 -47 -31 -54q-28 -22 -200 -22h-34q21 -30 21 -43q0 -23 -16 -64q-16 -42 -24 -49q-104 -74 -282 -74zM437 -365q-20 -28 -52 -51q-27 22 -56 58q-30 -38 -57 -58q-28 21 -49 50q25 31 49 52q38 -32 57 -59q35 41 56 59q39 -33 52 -51z" />
    <glyph glyph-name="_274" unicode="&#xfedb;&#xfe8a;" horiz-adv-x="910" 
d="M272 352l-23 -50q-55 -26 -112 -26q-9 0 -59 41l1 2q45 0 60 4v15q-20 11 -20 38q0 34 22 62q24 30 57 30q26 0 39 -37q7 -18 8 -33l-2 -1q-16 22 -44 22q-39 0 -73 -31q18 -54 73 -54q36 0 75 14zM283 -220q-104 0 -157 53q-43 43 -43 111q0 97 71 207l13 -7
q-37 -74 -37 -130q0 -147 171 -147q158 0 280 65q-42 78 -150 78h-11l2 -4l27 85h181q152 0 208 15q-41 95 -227 210l-17 -17l-71 51q-1 1 16 57q16 58 23 61l341 196l-17 -88l-305 -157q150 -82 226 -166q62 -68 62 -111q0 -7 -20 -56q-21 -47 -31 -54q-28 -22 -200 -22
h-34q21 -30 21 -43q0 -23 -16 -64q-16 -42 -24 -49q-104 -74 -282 -74z" />
    <glyph glyph-name="_277" unicode="&#xfedc;&#xfef0;" horiz-adv-x="932" 
d="M288 -220q-104 0 -157 53q-43 43 -43 111q0 97 71 207l13 -7q-37 -74 -37 -130q0 -147 171 -147q158 0 280 65q-42 78 -150 78h-11l2 -5l26 86h150q77 0 107 13q-2 58 -57 159l-64 114q-1 3 15 51q17 46 20 47l337 194l-1 1l-17 -87l-298 -156l104 -184q48 -83 90 -114
q53 -38 136 -38l7 -1v-79l-25 -1q-123 0 -202 129q-58 -109 -74 -114q-23 -11 -93 -15q22 -28 22 -43q0 -23 -16 -64q-16 -42 -24 -49q-104 -74 -282 -74z" />
    <glyph glyph-name="_278" unicode="&#xfedc;&#xfef2;" horiz-adv-x="932" 
d="M288 -220q-104 0 -157 53q-43 43 -43 111q0 97 71 207l13 -7q-37 -74 -37 -130q0 -147 171 -147q158 0 280 65q-42 78 -150 78h-11l2 -5l26 86h150q77 0 107 13q-2 58 -57 159l-64 114q-1 3 15 51q17 46 20 47l337 194l-1 1l-17 -87l-298 -156l104 -184q48 -83 90 -114
q53 -38 136 -38l7 -1v-79l-25 -1q-123 0 -202 129q-58 -109 -74 -114q-23 -11 -93 -15q22 -28 22 -43q0 -23 -16 -64q-16 -42 -24 -49q-104 -74 -282 -74zM437 -365q-20 -28 -52 -51q-27 22 -56 58q-30 -38 -57 -58q-28 21 -49 50q25 31 49 52q38 -32 57 -59q35 41 56 59
q39 -33 52 -51z" />
    <glyph glyph-name="_279" unicode="&#xfedc;&#xfe8a;" horiz-adv-x="932" 
d="M272 352l-23 -50q-55 -26 -112 -26q-9 0 -59 41l1 2q45 0 60 4v15q-20 11 -20 38q0 34 22 62q24 30 57 30q26 0 39 -37q7 -18 8 -33l-2 -1q-16 22 -44 22q-39 0 -73 -31q18 -54 73 -54q36 0 75 14zM283 -220q-104 0 -157 53q-43 43 -43 111q0 97 71 207l13 -7
q-37 -74 -37 -130q0 -147 171 -147q158 0 280 65q-42 78 -150 78h-11l2 -5l26 86h150q77 0 107 13q-1 58 -57 159l-64 114q-2 3 15 51q17 46 20 47l337 194l-1 1l-17 -87l-298 -156l104 -184q48 -83 90 -114q53 -38 136 -38l7 -1v-79l-25 -1q-122 0 -202 129
q-58 -109 -74 -114q-22 -11 -93 -15q22 -28 22 -43q0 -23 -16 -64q-16 -42 -24 -49q-104 -74 -282 -74z" />
    <glyph glyph-name="_310" unicode="&#xfedf;&#xfef0;" horiz-adv-x="741" 
d="M288 -220q-104 0 -157 53q-43 43 -43 111q0 97 71 207l13 -7q-37 -74 -37 -130q0 -147 171 -147q158 0 280 65q-42 78 -150 78h-38l3 -2l31 83h71q93 0 131 9l-10 451l-25 66l81 79l9 -5v-46l43 -78l-43 -46v-359q0 -22 -42 -78q-40 -52 -67 -68q30 -30 30 -49
q0 -23 -16 -64q-16 -42 -24 -49q-104 -74 -282 -74z" />
    <glyph glyph-name="_311" unicode="&#xfedf;&#xfb51;" horiz-adv-x="561" 
d="M179 708q66 0 107 16q-28 67 -75 67q-41 0 -111 -76q36 -7 79 -7zM257 680q-32 -20 -96 -20q-63 0 -115 20l-30 -44q9 36 17 56q21 32 35 32l28 -8q77 122 129 122q25 0 47 -30q23 -32 23 -59q0 -10 -16 -38t-22 -31zM132 17l17 92q87 49 189 147q-98 92 -201 173
l-41 -12l-49 43l28 120l5 1q212 -191 292 -280q37 67 37 157v90l-27 69l81 79l9 -6v-47l43 -76l-44 -47v-25q-1 -131 -72 -225q75 -96 75 -144q0 -17 -25 -57q-26 -41 -37 -48q-25 -11 -127 -11q-129 0 -153 7zM158 88h149q110 0 141 16q-25 61 -84 127q-74 -67 -206 -143z
" />
    <glyph glyph-name="_315" unicode="&#xfedf;&#xfef2;" horiz-adv-x="741" 
d="M288 -220q-104 0 -157 53q-43 43 -43 111q0 97 71 207l13 -7q-37 -74 -37 -130q0 -147 171 -147q158 0 280 65q-42 78 -150 78h-38l3 -2l31 83h71q93 0 131 9l-10 451l-25 66l81 79l9 -5v-46l43 -78l-43 -46v-359q0 -22 -42 -78q-40 -52 -67 -68q30 -30 30 -49
q0 -23 -16 -64q-16 -42 -24 -49q-104 -74 -282 -74zM437 -365q-20 -28 -52 -51q-27 22 -56 58q-30 -38 -57 -58q-28 21 -49 50q25 31 49 52q38 -32 57 -59q35 41 56 59q39 -33 52 -51z" />
    <glyph glyph-name="_316" unicode="&#xfedf;&#xfe8a;" horiz-adv-x="772" 
d="M272 352l-23 -50q-55 -26 -112 -26q-9 0 -59 41l1 2q45 0 60 4v15q-20 11 -20 38q0 34 22 62q24 30 57 30q26 0 39 -37q7 -18 8 -33l-2 -1q-16 22 -44 22q-39 0 -73 -31q18 -54 73 -54q36 0 75 14zM313 -220q-104 0 -157 53q-42 43 -42 111q0 97 71 207l12 -7
q-37 -74 -37 -130q0 -147 171 -147q160 0 279 65q-40 78 -149 78h-38l3 -2l31 83h71q94 0 131 9l-10 451l-25 66l81 79l9 -5v-46l43 -78l-43 -46v-359q0 -22 -42 -78q-38 -52 -66 -68q30 -31 30 -49q0 -23 -16 -64q-16 -42 -25 -49q-101 -74 -282 -74z" />
    <glyph glyph-name="_323" unicode="&#xfee0;&#xfef0;" horiz-adv-x="798" 
d="M288 -220q-104 0 -157 53q-43 43 -43 111q0 97 71 207l13 -7q-37 -74 -37 -130q0 -147 171 -147q158 0 280 65q-42 78 -150 78h-11l2 -4l27 85h89q86 0 131 9l-18 534l75 65v-485q0 -68 17 -91q23 -31 93 -32l7 -1v-79l-7 -1q-101 0 -143 112q-57 -94 -71 -102
q-9 -6 -53 -8q36 -36 36 -45q0 -23 -16 -64q-16 -42 -24 -49q-104 -74 -282 -74z" />
    <glyph glyph-name="_324" unicode="&#xfee0;&#xfb51;" horiz-adv-x="570" 
d="M139 707q65 0 107 18q-29 65 -75 65q-40 0 -112 -77q54 -6 80 -6zM217 679q-28 -19 -95 -19q-61 0 -116 20l-30 -45q9 36 17 56q21 32 35 32l29 -8q73 123 128 123q23 0 47 -30q23 -32 23 -60q0 -10 -16 -38t-22 -31zM564 11l-7 -1q-131 0 -151 183l-48 -110
q-19 -19 -75 -43q-67 -30 -114 -30q-43 0 -150 56l3 14q146 0 259 36q-29 186 -157 313l-41 -10l-50 43l36 118h4q205 -215 230 -351l-23 -114q76 29 113 63l-11 461l63 60h4v-485q0 -66 15 -89q23 -33 93 -34l7 -1v-79z" />
    <glyph glyph-name="_325" unicode="&#xfee0;&#xfef2;" horiz-adv-x="798" 
d="M288 -220q-104 0 -157 53q-43 43 -43 111q0 97 71 207l13 -7q-37 -74 -37 -130q0 -147 171 -147q158 0 280 65q-42 78 -150 78h-11l2 -4l27 85h89q86 0 131 9l-18 534l75 65v-485q0 -68 17 -91q23 -31 93 -32l7 -1v-79l-7 -1q-101 0 -143 112q-57 -94 -71 -102
q-9 -6 -53 -8q36 -36 36 -45q0 -23 -16 -64q-16 -42 -24 -49q-104 -74 -282 -74zM437 -365q-20 -28 -52 -51q-27 22 -56 58q-30 -38 -57 -58q-28 21 -49 50q25 31 49 52q38 -32 57 -59q35 41 56 59q39 -33 52 -51z" />
    <glyph glyph-name="_326" unicode="&#xfee0;&#xfe8a;" horiz-adv-x="820" 
d="M274 351l-23 -50q-55 -26 -112 -26q-9 0 -59 41v2q45 0 60 4v15q-19 10 -19 38q0 35 22 63q23 30 56 30q25 0 39 -38q8 -21 9 -33l-2 -1q-15 23 -45 23q-35 0 -72 -31q18 -55 72 -55q37 0 76 14zM306 -220q-104 0 -157 53q-43 43 -43 111q0 97 71 207l12 -7
q-36 -76 -36 -130q0 -147 170 -147q159 0 281 65q-44 78 -150 78h-11l2 -4l26 85h90q85 0 130 9l-17 534l74 65v-485q0 -68 17 -91q23 -31 94 -32l7 -1v-79l-7 -1q-102 0 -144 112q-55 -94 -70 -102q-11 -6 -53 -9q36 -34 36 -44q0 -23 -16 -64q-16 -42 -25 -49
q-101 -74 -281 -74z" />
    <glyph glyph-name="_383" unicode="&#xfee7;&#xfef0;" horiz-adv-x="760" 
d="M687 545q-27 18 -49 50q24 31 49 51q37 -32 51 -51q-20 -29 -51 -50zM288 -220q-104 0 -157 53q-43 43 -43 111q0 97 71 207l13 -7q-37 -74 -37 -130q0 -147 171 -147q158 0 280 65q-42 78 -150 78h-5l2 -4l26 85h83q112 0 151 9q-15 111 -47 232l61 60h6l37 -102l-1 -5
l-25 -25q13 -90 9 -124q-1 -16 -30 -61q-29 -43 -45 -54q-11 -5 -70 -9q22 -31 22 -45q0 -23 -16 -64q-16 -42 -24 -49q-104 -74 -282 -74z" />
    <glyph glyph-name="_384" unicode="&#xfee7;&#xfef2;" horiz-adv-x="760" 
d="M687 545q-27 18 -49 50q24 31 49 51q37 -32 51 -51q-20 -29 -51 -50zM288 -220q-104 0 -157 53q-43 43 -43 111q0 97 71 207l13 -7q-37 -74 -37 -130q0 -147 171 -147q158 0 280 65q-42 78 -150 78h-5l2 -4l26 85h83q112 0 151 9q-15 111 -47 232l61 60h6l37 -102l-1 -5
l-25 -25q13 -90 9 -124q-1 -16 -30 -61q-29 -43 -45 -54q-11 -5 -70 -9q22 -31 22 -45q0 -23 -16 -64q-16 -42 -24 -49q-104 -74 -282 -74zM437 -365q-20 -28 -52 -51q-27 22 -56 58q-30 -38 -57 -58q-28 21 -49 50q25 31 49 52q38 -32 57 -59q35 41 56 59q39 -33 52 -51z
" />
    <glyph glyph-name="_385" unicode="&#xfee7;&#xfe8a;" horiz-adv-x="760" 
d="M687 545q-27 18 -49 50q24 31 49 51q37 -32 51 -51q-20 -29 -51 -50zM287 352l-23 -50q-55 -26 -111 -26q-9 0 -59 41v2q45 0 60 4v15q-19 10 -19 38q0 34 22 62q23 30 56 30q26 0 39 -37q8 -21 9 -33l-2 -1q-13 22 -45 22q-38 0 -72 -31q18 -54 72 -54q37 0 76 14z
M288 -220q-104 0 -157 53q-43 43 -43 111q0 97 71 207l13 -7q-37 -74 -37 -130q0 -147 171 -147q158 0 280 65q-42 78 -150 78h-5l2 -4l26 85h83q112 0 151 9q-15 111 -47 232l61 60h6l37 -102l-1 -5l-25 -25q13 -90 9 -124q-1 -16 -30 -61q-29 -43 -45 -54q-11 -5 -70 -9
q22 -31 22 -45q0 -23 -16 -64q-16 -42 -24 -49q-104 -74 -282 -74z" />
    <glyph glyph-name="_388" unicode="&#xfee8;&#xfee6;" horiz-adv-x="840" 
d="M755 462q-28 21 -49 50q25 31 49 52q37 -32 51 -51q-20 -29 -51 -51zM344 327q-31 22 -50 50q28 33 50 51q34 -28 50 -50q-19 -29 -50 -51zM285 -183q-197 0 -197 164q0 96 71 203l10 -5q-34 -78 -34 -139q0 -140 171 -140q113 0 202 50q-22 132 -57 293l64 69h5
q8 -48 10 -58q6 -22 17 -30q10 -7 38 -7q96 0 146 50l51 58v-157q0 -53 10 -63q11 -14 56 -14h35l7 -1v-79l-7 -1h-35q-98 0 -116 115l-13 100q-73 -87 -139 -87h-37q4 -89 4 -147q-2 -21 -26 -62q-22 -43 -31 -50q-62 -62 -205 -62z" />
    <glyph glyph-name="_389" unicode="&#xfee8;&#xfeae;" horiz-adv-x="623" 
d="M455 482q-28 21 -49 50q25 31 49 52q37 -32 51 -51q-20 -29 -51 -51zM69 -183q-16 0 -80 34q-58 31 -69 40l6 13q55 -11 80 -11q75 0 136 64q50 53 75 130l-82 162l52 84h4l20 -64q9 -23 24 -29q15 -5 48 -5q97 0 147 50l51 58v-175q0 -53 10 -63q11 -14 56 -14h35l7 -1
v-79l-7 -1h-35q-51 0 -82 34q-28 31 -34 81l-14 117q-73 -87 -139 -87l-37 1v-117q-3 -56 -56 -136q-59 -86 -116 -86z" />
    <glyph glyph-name="_457" unicode="&#xfebb;&#xfef0;" horiz-adv-x="1189" 
d="M839 91l42 1q181 3 275 55q-28 72 -72 115q-50 47 -100 47q-114 0 -253 -204q50 -14 108 -14zM302 -218q-116 0 -171 54q-43 42 -43 111q0 96 71 206l13 -7q-37 -73 -37 -130q0 -150 185 -150q174 0 271 70q-12 54 -122 83q-122 32 -143 72q-25 52 -5 112q23 53 109 93
q79 35 138 35q44 0 57 -16q9 -13 22 -62q27 -103 64 -137q150 278 301 278q67 0 123 -77q51 -69 51 -127q0 -63 -59 -122q-58 -58 -283 -58h-19q-117 0 -167 66q-35 45 -60 178q-169 -4 -265 -93q25 -31 148 -64q66 -19 100 -43q39 -32 39 -84q0 -11 -14 -56
q-14 -40 -19 -45q-26 -26 -93 -52q-94 -35 -192 -35z" />
    <glyph glyph-name="_458" unicode="&#xfebb;&#xfef2;" horiz-adv-x="1189" 
d="M839 91l42 1q181 3 275 55q-28 72 -72 115q-50 47 -100 47q-114 0 -253 -204q50 -14 108 -14zM302 -218q-116 0 -171 54q-43 42 -43 111q0 96 71 206l13 -7q-37 -73 -37 -130q0 -150 185 -150q174 0 271 70q-12 54 -122 83q-122 32 -143 72q-25 52 -5 112q23 53 109 93
q79 35 138 35q44 0 57 -16q9 -13 22 -62q27 -103 64 -137q150 278 301 278q67 0 123 -77q51 -69 51 -127q0 -63 -59 -122q-58 -58 -283 -58h-19q-117 0 -167 66q-35 45 -60 178q-169 -4 -265 -93q25 -31 148 -64q66 -19 100 -43q39 -32 39 -84q0 -11 -14 -56
q-14 -40 -19 -45q-26 -26 -93 -52q-94 -35 -192 -35zM446 -335q-20 -29 -52 -52q-27 21 -55 59q-32 -43 -57 -59q-31 22 -50 51q27 33 50 52q37 -31 56 -59q45 50 56 59q40 -34 52 -51z" />
    <glyph glyph-name="_459" unicode="&#xfebb;&#xfe8a;" horiz-adv-x="1201" 
d="M272 355l-23 -50q-54 -27 -112 -27q-9 0 -59 42l1 2q45 0 60 4v15q-20 11 -20 38q0 34 22 62q24 30 57 30q25 0 39 -38q7 -18 8 -33h-2q-16 22 -44 22q-39 0 -73 -31q19 -55 73 -55q36 0 75 15zM845 91l42 1q181 3 275 55q-28 72 -72 115q-50 47 -100 47
q-114 0 -253 -204q50 -14 108 -14zM308 -218q-116 0 -171 54q-43 42 -43 111q0 96 71 206l12 -7q-36 -75 -36 -130q0 -150 185 -150q174 0 271 70q-12 54 -122 83q-122 32 -143 72q-25 52 -5 112q23 53 108 93q79 35 139 35q44 0 57 -16q7 -10 21 -62q29 -104 65 -137
q150 278 301 278q66 0 123 -77q51 -69 51 -127q0 -63 -59 -122q-58 -58 -283 -58h-19q-117 0 -167 66q-35 45 -60 178q-169 -4 -265 -93q25 -31 148 -64q66 -19 100 -43q39 -32 39 -84q0 -11 -14 -56q-14 -40 -19 -45q-26 -26 -93 -52q-94 -35 -192 -35z" />
    <glyph glyph-name="_462" unicode="&#xfebc;&#xfef0;" horiz-adv-x="1214" 
d="M839 91l42 1q181 3 275 55q-28 72 -72 115q-50 47 -100 47q-114 0 -253 -204q50 -14 108 -14zM302 -218q-116 0 -171 54q-43 42 -43 111q0 96 71 206l13 -7q-37 -73 -37 -130q0 -150 185 -150q174 0 271 70q-12 54 -122 83q-122 32 -143 72q-25 52 -5 112q23 53 109 93
q79 35 138 35q44 0 57 -16q9 -13 22 -62q27 -103 64 -137q150 278 301 278q67 0 123 -77q51 -69 51 -127q0 -32 -40 -99h111l7 -1v-79l-7 -1h-69q-34 0 -74 48q-98 -48 -270 -48h-19q-117 0 -167 66q-35 45 -60 178q-169 -4 -265 -93q25 -31 148 -64q66 -19 100 -43
q39 -32 39 -84q0 -11 -14 -56q-14 -40 -19 -45q-26 -26 -93 -52q-94 -35 -192 -35z" />
    <glyph glyph-name="_463" unicode="&#xfebc;&#xfef2;" horiz-adv-x="1214" 
d="M839 91l42 1q181 3 275 55q-28 72 -72 115q-50 47 -100 47q-114 0 -253 -204q50 -14 108 -14zM302 -218q-116 0 -171 54q-43 42 -43 111q0 96 71 206l13 -7q-37 -73 -37 -130q0 -150 185 -150q174 0 271 70q-12 54 -122 83q-122 32 -143 72q-25 52 -5 112q23 53 109 93
q79 35 138 35q44 0 57 -16q9 -13 22 -62q27 -103 64 -137q150 278 301 278q67 0 123 -77q51 -69 51 -127q0 -32 -40 -99h111l7 -1v-79l-7 -1h-69q-34 0 -74 48q-98 -48 -270 -48h-19q-117 0 -167 66q-35 45 -60 178q-169 -4 -265 -93q25 -31 148 -64q66 -19 100 -43
q39 -32 39 -84q0 -11 -14 -56q-14 -40 -19 -45q-26 -26 -93 -52q-94 -35 -192 -35zM440 -335q-20 -29 -52 -52q-13 9 -56 59q-32 -43 -57 -59q-31 24 -49 51q25 31 49 52q37 -32 57 -60q30 38 56 60q39 -33 52 -51z" />
    <glyph glyph-name="_464" unicode="&#xfebc;&#xfe8a;" horiz-adv-x="1233" 
d="M272 355l-23 -50q-54 -27 -112 -27q-9 0 -59 42l1 2q45 0 60 4v15q-20 11 -20 38q0 34 22 62q24 30 57 30q25 0 39 -38q7 -18 8 -33h-2q-16 22 -44 22q-39 0 -73 -31q19 -55 73 -55q36 0 75 15zM846 91l42 1q181 3 275 55q-27 73 -71 115q-50 47 -101 47
q-112 0 -252 -203q47 -15 107 -15zM310 -218q-115 0 -171 53q-43 43 -43 112q0 96 71 206l12 -7q-37 -73 -37 -130q0 -150 185 -150q174 0 271 70q-11 55 -122 83q-122 31 -142 72q-8 17 -9 59q-1 33 4 53q23 53 108 93q79 35 139 35q43 0 56 -16q9 -11 22 -62
q29 -104 65 -137q149 278 301 278q66 0 122 -77q51 -69 51 -127q0 -32 -40 -99h111l7 -1v-79l-7 -1h-69q-33 0 -74 48q-97 -48 -270 -48h-19q-116 0 -166 66q-35 45 -60 178q-170 -5 -266 -93q27 -30 148 -64q66 -19 100 -43q39 -32 39 -84q0 -63 -32 -101q-91 -87 -285 -87
z" />
    <glyph glyph-name="_483" unicode="&#xfeb7;&#xfef0;" horiz-adv-x="1171" 
d="M906 535q-23 19 -45 47q19 21 45 46q33 -27 46 -46q-16 -24 -46 -47zM1010 468q-19 -28 -50 -50q-24 18 -54 58q-30 -38 -57 -58q-28 22 -47 50q24 28 47 49q53 -52 58 -55l54 55q30 -23 49 -49zM302 -218q-116 0 -171 54q-43 42 -43 111q0 96 71 206l13 -7
q-37 -73 -37 -130q0 -150 185 -150q168 0 271 70q-14 56 -122 83q-122 32 -143 72q-25 52 -5 112q23 53 111 93q82 35 142 35q39 0 54 -17q12 -13 24 -61q29 -98 48 -125q27 -37 83 -37q38 0 70 7l42 154l48 31l2 -1q-6 -88 -19 -155q78 -48 188 -59l-35 235l70 56h4
q8 -198 8 -253q0 -16 -35 -63q-34 -45 -48 -45q-86 0 -195 84q-23 -44 -42 -56q-22 -16 -73 -16q-64 0 -102 60q-31 47 -62 185q-172 -4 -271 -94q25 -31 148 -64q66 -19 100 -43q39 -32 39 -84q0 -11 -14 -56q-14 -40 -19 -45q-26 -26 -93 -52q-94 -35 -192 -35z" />
    <glyph glyph-name="_484" unicode="&#xfeb7;&#xfef2;" horiz-adv-x="1171" 
d="M906 535q-23 19 -45 47q19 21 45 46q33 -27 46 -46q-16 -24 -46 -47zM1010 468q-19 -28 -50 -50q-24 18 -54 58q-30 -38 -57 -58q-28 22 -47 50q24 28 47 49q53 -52 58 -55l54 55q30 -23 49 -49zM302 -218q-116 0 -171 54q-43 42 -43 111q0 96 71 206l13 -7
q-37 -73 -37 -130q0 -150 185 -150q168 0 271 70q-14 56 -122 83q-122 32 -143 72q-25 52 -5 112q23 53 111 93q82 35 142 35q39 0 54 -17q12 -13 24 -61q29 -98 48 -125q27 -37 83 -37q38 0 70 7l42 154l48 31l2 -1q-6 -88 -19 -155q78 -48 188 -59l-35 235l70 56h4
q8 -198 8 -253q0 -16 -35 -63q-34 -45 -48 -45q-86 0 -195 84q-23 -44 -42 -56q-22 -16 -73 -16q-64 0 -102 60q-31 47 -62 185q-172 -4 -271 -94q25 -31 148 -64q66 -19 100 -43q39 -32 39 -84q0 -11 -14 -56q-14 -40 -19 -45q-26 -26 -93 -52q-94 -35 -192 -35zM448 -335
q-20 -29 -52 -52q-13 9 -56 59q-32 -43 -57 -59q-31 24 -49 51q25 31 49 52q37 -32 57 -60q30 38 56 60q39 -33 52 -51z" />
    <glyph glyph-name="_485" unicode="&#xfeb7;&#xfe8a;" horiz-adv-x="1182" 
d="M913 535q-23 19 -45 47q19 21 45 46q33 -25 47 -46q-18 -26 -47 -47zM1018 468q-19 -28 -51 -50q-24 18 -54 58q-33 -42 -56 -58q-27 21 -48 49q25 31 47 50q53 -52 58 -55l54 55q31 -23 50 -49zM272 355l-23 -50q-54 -27 -112 -27q-9 0 -59 42l1 2q45 0 60 4v15
q-20 11 -20 38q0 34 22 62q24 30 57 30q25 0 39 -38q7 -18 8 -33h-2q-16 22 -44 22q-39 0 -73 -31q19 -55 73 -55q36 0 75 15zM308 -218q-116 0 -171 54q-43 42 -43 111q0 96 71 206l12 -7q-36 -75 -36 -130q0 -150 185 -150q169 0 272 70q-17 56 -123 83q-122 32 -143 72
q-25 52 -5 112q23 53 111 93q82 35 142 35q39 0 54 -17q12 -13 24 -61q29 -98 48 -125q27 -37 83 -37q36 0 70 7l42 154l48 31l2 -1q-6 -88 -19 -155q78 -48 188 -59l-35 235l70 56h3q8 -198 8 -253q0 -16 -35 -63q-35 -45 -47 -45q-88 0 -195 84q-37 -72 -115 -72
q-64 0 -102 60q-31 47 -62 185q-172 -4 -271 -94q25 -31 148 -64q66 -19 100 -43q39 -32 39 -84q0 -11 -14 -56q-14 -40 -19 -45q-26 -26 -93 -52q-94 -35 -192 -35z" />
    <glyph glyph-name="_488" unicode="&#xfeb8;&#xfef0;" horiz-adv-x="1215" 
d="M903 542q-23 19 -45 47q11 13 45 47q34 -28 47 -47q-17 -26 -47 -47zM1008 475q-21 -30 -50 -50q-24 18 -54 58q-32 -41 -57 -57q-29 22 -47 49q24 28 47 49l57 -56l55 56q30 -23 49 -49zM302 -218q-116 0 -171 54q-43 42 -43 111q0 96 71 206l13 -7q-37 -73 -37 -130
q0 -150 185 -150q168 0 271 70q-14 56 -122 83q-122 32 -143 72q-25 52 -5 112q23 53 111 93q82 35 142 35q39 0 54 -17q12 -13 24 -61q29 -98 48 -125q27 -37 83 -37q38 0 70 7l42 154l48 31l3 -1q-8 -83 -23 -171q46 -20 100 -20q45 0 88 12q-6 39 -19 165l67 51h4v-169
q0 -35 10 -45q14 -14 55 -14h30l7 -1v-79l-7 -1h-29q-66 2 -105 78q-40 -78 -121 -78q-77 0 -124 66q-36 -66 -111 -66q-64 0 -102 60q-31 47 -62 185q-172 -4 -271 -94q25 -31 148 -64q66 -19 100 -43q39 -32 39 -84q0 -11 -14 -56q-14 -40 -19 -45q-26 -26 -93 -52
q-94 -35 -192 -35z" />
    <glyph glyph-name="_489" unicode="&#xfeb8;&#xfef2;" horiz-adv-x="1215" 
d="M903 542q-23 19 -45 47q11 13 45 47q34 -28 47 -47q-17 -26 -47 -47zM1008 475q-21 -30 -50 -50q-24 18 -54 58q-32 -41 -57 -57q-29 22 -47 49q24 28 47 49l57 -56l55 56q30 -23 49 -49zM302 -218q-116 0 -171 54q-43 42 -43 111q0 96 71 206l13 -7q-37 -73 -37 -130
q0 -150 185 -150q168 0 271 70q-14 56 -122 83q-122 32 -143 72q-25 52 -5 112q23 53 111 93q82 35 142 35q39 0 54 -17q12 -13 24 -61q29 -98 48 -125q27 -37 83 -37q38 0 70 7l42 154l48 31l3 -1q-8 -83 -23 -171q46 -20 100 -20q45 0 88 12q-6 39 -19 165l67 51h4v-169
q0 -35 10 -45q14 -14 55 -14h30l7 -1v-79l-7 -1h-29q-66 2 -105 78q-40 -78 -121 -78q-77 0 -124 66q-36 -66 -111 -66q-64 0 -102 60q-31 47 -62 185q-172 -4 -271 -94q25 -31 148 -64q66 -19 100 -43q39 -32 39 -84q0 -11 -14 -56q-14 -40 -19 -45q-26 -26 -93 -52
q-94 -35 -192 -35zM448 -335q-20 -29 -51 -52q-13 9 -56 59q-32 -43 -57 -59q-31 22 -50 51q27 33 50 52q37 -31 56 -59q42 47 57 59q37 -32 51 -51z" />
    <glyph glyph-name="_490" unicode="&#xfeb8;&#xfe8a;" horiz-adv-x="1225" 
d="M911 535q-23 19 -45 47q25 27 46 46q34 -27 46 -46q-17 -26 -47 -47zM1016 468q-19 -28 -50 -50q-20 16 -55 58q-33 -42 -56 -58q-28 22 -47 50q24 28 47 49q53 -52 58 -55l54 55q30 -23 49 -49zM272 355l-23 -50q-54 -27 -112 -27q-9 0 -59 42l1 2q45 0 60 4v15
q-20 11 -20 38q0 34 22 62q24 30 57 30q25 0 39 -38q7 -18 8 -33h-2q-16 22 -44 22q-39 0 -73 -31q19 -55 73 -55q36 0 75 15zM308 -218q-116 0 -171 54q-43 42 -43 111q0 96 71 206l12 -7q-36 -75 -36 -130q0 -150 185 -150q169 0 272 70q-17 56 -123 83q-122 32 -143 72
q-25 52 -5 112q23 53 111 93q82 35 142 35q39 0 54 -17q12 -13 24 -61q29 -98 48 -125q27 -37 83 -37q36 0 70 7l42 154l48 31l3 -1q-8 -83 -23 -171q46 -20 100 -20q36 0 88 11q-6 41 -19 166l66 51h5v-169q0 -34 9 -45q14 -14 56 -14h29l7 -1v-79l-35 -1q-66 2 -105 78
q-40 -78 -121 -78q-77 0 -124 66q-37 -66 -111 -66q-64 0 -102 60q-31 47 -62 185q-172 -4 -271 -94q25 -31 148 -64q66 -19 100 -43q39 -32 39 -84q0 -11 -14 -56q-14 -40 -19 -45q-26 -26 -93 -52q-94 -35 -192 -35z" />
    <glyph glyph-name="_494" unicode="&#xfeb3;&#xfef0;" horiz-adv-x="1171" 
d="M302 -218q-116 0 -171 54q-43 42 -43 111q0 96 71 206l13 -7q-37 -73 -37 -130q0 -150 185 -150q168 0 271 70q-14 56 -122 83q-122 32 -143 72q-25 52 -5 112q23 53 111 93q82 35 142 35q39 0 54 -17q12 -13 24 -61q29 -98 48 -125q27 -37 83 -37q38 0 70 7l42 154
l48 31l2 -1q-6 -88 -19 -155q78 -48 188 -59l-35 235l70 56h4q8 -198 8 -253q0 -16 -35 -63q-34 -45 -48 -45q-86 0 -195 84q-23 -44 -42 -56q-22 -16 -73 -16q-64 0 -102 60q-31 47 -62 185q-172 -4 -271 -94q25 -31 148 -64q66 -19 100 -43q39 -32 39 -84q0 -11 -14 -56
q-14 -40 -19 -45q-26 -26 -93 -52q-94 -35 -192 -35z" />
    <glyph glyph-name="_495" unicode="&#xfeb3;&#xfef2;" horiz-adv-x="1171" 
d="M302 -218q-116 0 -171 54q-43 42 -43 111q0 96 71 206l13 -7q-37 -73 -37 -130q0 -150 185 -150q168 0 271 70q-14 56 -122 83q-122 32 -143 72q-25 52 -5 112q23 53 111 93q82 35 142 35q39 0 54 -17q12 -13 24 -61q29 -98 48 -125q27 -37 83 -37q38 0 70 7l42 154
l48 31l2 -1q-6 -88 -19 -155q78 -48 188 -59l-35 235l70 56h4q8 -198 8 -253q0 -16 -35 -63q-34 -45 -48 -45q-86 0 -195 84q-23 -44 -42 -56q-22 -16 -73 -16q-64 0 -102 60q-31 47 -62 185q-172 -4 -271 -94q25 -31 148 -64q66 -19 100 -43q39 -32 39 -84q0 -11 -14 -56
q-14 -40 -19 -45q-26 -26 -93 -52q-94 -35 -192 -35zM448 -335q-20 -29 -52 -52q-13 9 -56 59q-32 -43 -57 -59q-31 24 -49 51q25 31 49 52q37 -32 57 -60q30 38 56 60q39 -33 52 -51z" />
    <glyph glyph-name="_496" unicode="&#xfeb3;&#xfe8a;" horiz-adv-x="1182" 
d="M272 355l-23 -50q-54 -27 -112 -27q-9 0 -59 42l1 2q45 0 60 4v15q-20 11 -20 38q0 34 22 62q24 30 57 30q25 0 39 -38q7 -18 8 -33h-2q-16 22 -44 22q-39 0 -73 -31q19 -55 73 -55q36 0 75 15zM308 -218q-116 0 -171 54q-43 42 -43 111q0 96 71 206l12 -7
q-36 -75 -36 -130q0 -150 185 -150q169 0 272 70q-17 56 -123 83q-122 32 -143 72q-25 52 -5 112q23 53 111 93q82 35 142 35q39 0 54 -17q12 -13 24 -61q29 -98 48 -125q27 -37 83 -37q36 0 70 7l42 154l48 31l2 -1q-6 -88 -19 -155q78 -48 188 -59l-35 235l70 56h3
q8 -198 8 -253q0 -16 -35 -63q-35 -45 -47 -45q-88 0 -195 84q-37 -72 -115 -72q-64 0 -102 60q-31 47 -62 185q-172 -4 -271 -94q25 -31 148 -64q66 -19 100 -43q39 -32 39 -84q0 -11 -14 -56q-14 -40 -19 -45q-26 -26 -93 -52q-94 -35 -192 -35z" />
    <glyph glyph-name="_499" unicode="&#xfeb4;&#xfef0;" horiz-adv-x="1215" 
d="M302 -218q-116 0 -171 54q-43 42 -43 111q0 96 71 206l13 -7q-37 -73 -37 -130q0 -150 185 -150q168 0 271 70q-14 56 -122 83q-122 32 -143 72q-25 52 -5 112q23 53 111 93q82 35 142 35q39 0 54 -17q12 -13 24 -61q29 -98 48 -125q27 -37 83 -37q38 0 70 7l42 154
l48 31l3 -1q-8 -83 -23 -171q46 -20 100 -20q45 0 88 12q-6 39 -19 165l67 51h4v-169q0 -35 10 -45q14 -14 55 -14h30l7 -1v-79l-7 -1h-29q-66 2 -105 78q-40 -78 -121 -78q-77 0 -124 66q-36 -66 -111 -66q-64 0 -102 60q-31 47 -62 185q-172 -4 -271 -94q25 -31 148 -64
q66 -19 100 -43q39 -32 39 -84q0 -11 -14 -56q-14 -40 -19 -45q-26 -26 -93 -52q-94 -35 -192 -35z" />
    <glyph glyph-name="_500" unicode="&#xfeb4;&#xfef2;" horiz-adv-x="1215" 
d="M302 -218q-116 0 -171 54q-43 42 -43 111q0 96 71 206l13 -7q-37 -73 -37 -130q0 -150 185 -150q168 0 271 70q-14 56 -122 83q-122 32 -143 72q-25 52 -5 112q23 53 111 93q82 35 142 35q39 0 54 -17q12 -13 24 -61q29 -98 48 -125q27 -37 83 -37q38 0 70 7l42 154
l48 31l3 -1q-8 -83 -23 -171q46 -20 100 -20q45 0 88 12q-6 39 -19 165l67 51h4v-169q0 -35 10 -45q14 -14 55 -14h30l7 -1v-79l-7 -1h-29q-66 2 -105 78q-40 -78 -121 -78q-77 0 -124 66q-36 -66 -111 -66q-64 0 -102 60q-31 47 -62 185q-172 -4 -271 -94q25 -31 148 -64
q66 -19 100 -43q39 -32 39 -84q0 -11 -14 -56q-14 -40 -19 -45q-26 -26 -93 -52q-94 -35 -192 -35zM448 -335q-20 -29 -51 -52q-13 9 -56 59q-32 -43 -57 -59q-31 22 -50 51q27 33 50 52q37 -31 56 -59q42 47 57 59q37 -32 51 -51z" />
    <glyph glyph-name="_501" unicode="&#xfeb4;&#xfe8a;" horiz-adv-x="1225" 
d="M272 355l-23 -50q-54 -27 -112 -27q-9 0 -59 42l1 2q45 0 60 4v15q-20 11 -20 38q0 34 22 62q24 30 57 30q25 0 39 -38q7 -18 8 -33h-2q-16 22 -44 22q-39 0 -73 -31q19 -55 73 -55q36 0 75 15zM308 -218q-116 0 -171 54q-43 42 -43 111q0 96 71 206l12 -7
q-36 -75 -36 -130q0 -150 185 -150q169 0 272 70q-17 56 -123 83q-122 32 -143 72q-25 52 -5 112q23 53 111 93q82 35 142 35q39 0 54 -17q12 -13 24 -61q29 -98 48 -125q27 -37 83 -37q36 0 70 7l42 154l48 31l3 -1q-8 -83 -23 -171q46 -20 100 -20q36 0 88 11
q-6 41 -19 166l66 51h5v-169q0 -34 9 -45q14 -14 56 -14h29l7 -1v-79l-35 -1q-66 2 -105 78q-40 -78 -121 -78q-77 0 -124 66q-37 -66 -111 -66q-64 0 -102 60q-31 47 -62 185q-172 -4 -271 -94q25 -31 148 -64q66 -19 100 -43q39 -32 39 -84q0 -11 -14 -56q-14 -40 -19 -45
q-26 -26 -93 -52q-94 -35 -192 -35z" />
    <glyph glyph-name="_531" unicode="&#xfe97;&#xfef0;" horiz-adv-x="760" 
d="M791 598q-21 -30 -51 -52q-13 9 -56 59q-32 -43 -57 -59q-31 22 -50 51q20 25 50 52q33 -27 56 -61q41 47 57 61q38 -31 51 -51zM288 -220q-104 0 -157 53q-43 43 -43 111q0 97 71 207l13 -7q-37 -74 -37 -130q0 -147 171 -147q158 0 280 65q-42 78 -150 78h-5l2 -4
l26 85h83q112 0 151 9q-15 111 -47 232l61 60h6l37 -102l-1 -5l-25 -25q13 -90 9 -124q-1 -16 -30 -61q-29 -43 -45 -54q-11 -5 -70 -9q22 -31 22 -45q0 -23 -16 -64q-16 -42 -24 -49q-104 -74 -282 -74z" />
    <glyph glyph-name="_532" unicode="&#xfe97;&#xfef2;" horiz-adv-x="760" 
d="M791 598q-21 -30 -51 -52q-13 9 -56 59q-32 -43 -57 -59q-31 22 -50 51q20 25 50 52q33 -27 56 -61q41 47 57 61q38 -31 51 -51zM288 -220q-104 0 -157 53q-43 43 -43 111q0 97 71 207l13 -7q-37 -74 -37 -130q0 -147 171 -147q158 0 280 65q-42 78 -150 78h-5l2 -4
l26 85h83q112 0 151 9q-15 111 -47 232l61 60h6l37 -102l-1 -5l-25 -25q13 -90 9 -124q-1 -16 -30 -61q-29 -43 -45 -54q-11 -5 -70 -9q22 -31 22 -45q0 -23 -16 -64q-16 -42 -24 -49q-104 -74 -282 -74zM437 -365q-20 -28 -52 -51q-27 22 -56 58q-30 -38 -57 -58
q-28 21 -49 50q25 31 49 52q38 -32 57 -59q35 41 56 59q39 -33 52 -51z" />
    <glyph glyph-name="_533" unicode="&#xfe97;&#xfe8a;" horiz-adv-x="760" 
d="M791 598q-21 -30 -51 -52q-13 9 -56 59q-32 -43 -57 -59q-31 22 -50 51q20 25 50 52q33 -27 56 -61q41 47 57 61q38 -31 51 -51zM287 352l-23 -50q-55 -26 -111 -26q-9 0 -59 41v2q45 0 60 4v15q-19 10 -19 38q0 34 22 62q23 30 56 30q26 0 39 -37q8 -21 9 -33l-2 -1
q-13 22 -45 22q-38 0 -72 -31q18 -54 72 -54q37 0 76 14zM288 -220q-104 0 -157 53q-43 43 -43 111q0 97 71 207l13 -7q-37 -74 -37 -130q0 -147 171 -147q158 0 280 65q-42 78 -150 78h-5l2 -4l26 85h83q112 0 151 9q-15 111 -47 232l61 60h6l37 -102l-1 -5l-25 -25
q13 -90 9 -124q-1 -16 -30 -61q-29 -43 -45 -54q-11 -5 -70 -9q22 -31 22 -45q0 -23 -16 -64q-16 -42 -24 -49q-104 -74 -282 -74z" />
    <glyph glyph-name="_536" unicode="&#xfe98;&#xfee6;" horiz-adv-x="840" 
d="M863 509q-20 -29 -52 -52q-21 17 -56 59q-30 -38 -57 -58q-28 21 -49 50q25 31 49 52q37 -31 56 -59q42 47 57 59q39 -33 52 -51zM344 327q-31 22 -50 50q28 33 50 51q34 -28 50 -50q-19 -29 -50 -51zM285 -183q-197 0 -197 164q0 96 71 203l10 -5q-34 -78 -34 -139
q0 -140 171 -140q113 0 202 50q-22 132 -57 293l64 69h5q8 -48 10 -58q6 -22 17 -30q10 -7 38 -7q96 0 146 50l51 58v-157q0 -53 10 -63q11 -14 56 -14h35l7 -1v-79l-7 -1h-35q-98 0 -116 115l-13 100q-73 -87 -139 -87h-37q4 -89 4 -147q-2 -21 -26 -62q-22 -43 -31 -50
q-62 -62 -205 -62z" />
    <glyph glyph-name="_537" unicode="&#xfe98;&#xfeae;" horiz-adv-x="623" 
d="M563 529q-20 -29 -52 -52q-21 17 -56 59q-31 -39 -57 -59q-31 22 -50 51q20 25 50 52q37 -31 56 -59q42 47 57 59q39 -33 52 -51zM69 -183q-16 0 -80 34q-58 31 -69 40l6 13q55 -11 80 -11q75 0 136 64q50 53 75 130l-82 162l52 84h4l20 -64q9 -23 24 -29q15 -5 48 -5
q97 0 147 50l51 58v-175q0 -53 10 -63q11 -14 56 -14h35l7 -1v-79l-7 -1h-35q-51 0 -82 34q-28 31 -34 81l-14 117q-73 -87 -139 -87l-37 1v-117q-3 -56 -56 -136q-59 -86 -116 -86z" />
    <glyph glyph-name="_557" unicode="&#xfe9b;&#xfef0;" horiz-adv-x="760" 
d="M683 663q-25 19 -45 46q21 26 45 47q33 -25 47 -46q-18 -27 -47 -47zM788 596q-19 -28 -51 -50q-21 16 -54 57q-32 -40 -56 -57q-32 25 -47 49q24 30 47 50l57 -58q51 82 42 74l-3 -3q52 -43 65 -62zM288 -220q-104 0 -157 53q-43 43 -43 111q0 97 71 207l13 -7
q-37 -74 -37 -130q0 -147 171 -147q158 0 280 65q-42 78 -150 78h-5l2 -4l26 85h83q112 0 151 9q-15 111 -47 232l61 60h6l37 -102l-1 -5l-25 -25q13 -90 9 -124q-1 -16 -30 -61q-29 -43 -45 -54q-11 -5 -70 -9q22 -31 22 -45q0 -23 -16 -64q-16 -42 -24 -49
q-104 -74 -282 -74z" />
    <glyph glyph-name="_558" unicode="&#xfe9b;&#xfef2;" horiz-adv-x="760" 
d="M683 663q-25 19 -45 46q21 26 45 47q33 -25 47 -46q-18 -27 -47 -47zM788 596q-19 -28 -51 -50q-21 16 -54 57q-32 -40 -56 -57q-32 25 -47 49q24 30 47 50l57 -58q51 82 42 74l-3 -3q52 -43 65 -62zM288 -220q-104 0 -157 53q-43 43 -43 111q0 97 71 207l13 -7
q-37 -74 -37 -130q0 -147 171 -147q158 0 280 65q-42 78 -150 78h-5l2 -4l26 85h83q112 0 151 9q-15 111 -47 232l61 60h6l37 -102l-1 -5l-25 -25q13 -90 9 -124q-1 -16 -30 -61q-29 -43 -45 -54q-11 -5 -70 -9q22 -31 22 -45q0 -23 -16 -64q-16 -42 -24 -49
q-104 -74 -282 -74zM437 -365q-20 -28 -52 -51q-27 22 -56 58q-30 -38 -57 -58q-28 21 -49 50q25 31 49 52q38 -32 57 -59q35 41 56 59q39 -33 52 -51z" />
    <glyph glyph-name="_559" unicode="&#xfe9b;&#xfe8a;" horiz-adv-x="760" 
d="M684 665q-25 19 -45 46q21 26 45 47q33 -25 47 -46q-18 -27 -47 -47zM788 598q-19 -28 -50 -50q-26 20 -54 57q-32 -41 -56 -57q-27 21 -48 49q29 33 48 50l49 -50l1 1l1 1l1 1l1 1l1 1l1 1l49 50q42 -34 56 -55zM289 352l-23 -50q-55 -26 -111 -26q-7 0 -60 41l1 2
q45 0 60 4v15q-20 11 -20 38q0 34 22 62q24 30 57 30q26 0 39 -37q7 -18 8 -33l-2 -1q-16 22 -44 22q-39 0 -73 -31q21 -54 73 -54q36 0 75 14zM290 -220q-104 0 -157 53q-43 43 -43 111q0 97 71 207l12 -7q-36 -76 -36 -130q0 -147 170 -147q159 0 281 65q-44 78 -150 78
h-5l2 -5l26 86h82q113 0 152 9q-14 109 -47 232l60 60h7l37 -102l-1 -5l-25 -26q14 -89 9 -123q-1 -16 -30 -61q-29 -43 -45 -54q-11 -5 -70 -9q22 -31 22 -45q0 -23 -16 -64q-16 -42 -25 -49q-101 -74 -281 -74z" />
    <glyph glyph-name="_562" unicode="&#xfe9c;&#xfee6;" horiz-adv-x="840" 
d="M755 580q-25 19 -45 46q21 26 45 47q33 -27 46 -46q-17 -28 -46 -47zM859 513q-19 -28 -50 -50q-25 19 -54 57q-31 -40 -57 -57q-28 22 -47 50q23 28 47 49l50 -50l1 1l1 1l1 1l1 1l1 1l1 1l49 50q42 -34 56 -55zM343 327q-28 21 -49 50q24 31 49 51q37 -28 51 -50
q-20 -28 -51 -51zM285 -183q-197 0 -197 164q0 96 71 203l10 -5q-34 -78 -34 -139q0 -140 171 -140q113 0 202 50q-22 132 -57 293l64 69h5q8 -48 10 -58q6 -22 17 -30q10 -7 38 -7q96 0 146 50l51 58v-157q0 -53 10 -63q11 -14 56 -14h35l7 -1v-79l-7 -1h-35
q-98 0 -116 115l-13 100q-73 -87 -139 -87h-37q4 -89 4 -147q-2 -21 -26 -62q-22 -43 -31 -50q-62 -62 -205 -62z" />
    <glyph glyph-name="_563" unicode="&#xfe9c;&#xfeae;" horiz-adv-x="623" 
d="M455 598q-25 19 -45 46q21 26 45 47q33 -25 47 -46q-18 -27 -47 -47zM559 531q-19 -28 -50 -50q-25 19 -54 57q-31 -40 -57 -57q-28 22 -47 50q23 28 47 49l50 -50l1 1l1 1l1 1l1 1l1 1l1 1l49 50q42 -34 56 -55zM69 -183q-16 0 -80 34q-58 31 -69 40l6 13q55 -11 80 -11
q75 0 136 64q50 53 75 130l-82 162l52 84h4l20 -64q9 -23 24 -29q15 -5 48 -5q97 0 147 50l51 58v-175q0 -53 10 -63q11 -14 56 -14h35l7 -1v-79l-7 -1h-35q-51 0 -82 34q-28 31 -34 81l-14 117q-73 -87 -139 -87l-37 1v-117q-3 -56 -56 -136q-59 -86 -116 -86z" />
    <glyph glyph-name="_605" unicode="&#xfef4;&#xfee6;" horiz-adv-x="840" 
d="M344 327q-31 22 -50 50q28 33 50 51q34 -28 50 -50q-19 -29 -50 -51zM285 -183q-197 0 -197 164q0 96 71 203l10 -5q-34 -78 -34 -139q0 -140 171 -140q113 0 202 50q-22 132 -57 293l64 69h5q8 -48 10 -58q6 -22 17 -30q10 -7 38 -7q96 0 146 50l51 58v-157
q0 -53 10 -63q11 -14 56 -14h35l7 -1v-79l-7 -1h-35q-98 0 -116 115l-13 100q-73 -87 -139 -87h-37q4 -89 4 -147q-2 -21 -26 -62q-22 -43 -31 -50q-62 -62 -205 -62zM836 -131q-16 -28 -48 -49q-13 9 -53 56q-34 -42 -55 -56q-28 19 -46 48q28 34 46 49q36 -32 54 -58
q30 35 54 58q36 -30 48 -48z" />
    <glyph glyph-name="_606" unicode="&#xfef4;&#xfeae;" horiz-adv-x="623" 
d="M536 -131q-18 -28 -49 -49q-15 12 -52 56q-34 -42 -55 -56q-28 19 -46 48q23 29 46 49q36 -32 54 -58q36 42 53 58q35 -28 49 -48zM69 -183q-16 0 -80 34q-58 31 -69 40l6 13q55 -11 80 -11q75 0 136 64q50 53 75 130l-82 162l52 84h4l20 -64q9 -23 24 -29q15 -5 48 -5
q97 0 147 50l51 58v-175q0 -53 10 -63q11 -14 56 -14h35l7 -1v-79l-7 -1h-35q-51 0 -82 34q-28 31 -34 81l-14 117q-73 -87 -139 -87l-37 1v-117q-3 -56 -56 -136q-59 -86 -116 -86z" />
    <glyph glyph-name="_621" unicode="&#xfe8b;&#xfef2;" horiz-adv-x="760" 
d="M771 597l-23 -50q-55 -26 -112 -26q-9 0 -59 41l1 2q44 0 59 4v15q-19 10 -19 38q0 34 22 62q24 30 57 30q26 0 39 -37q7 -18 8 -33l-2 -1q-15 23 -44 23q-36 0 -73 -31q18 -55 73 -55q36 0 75 14zM288 -220q-104 0 -157 53q-43 43 -43 111q0 97 71 207l13 -7
q-37 -74 -37 -130q0 -147 171 -147q158 0 280 65q-42 78 -150 78h-5l2 -4l26 85h83q112 0 151 9q-15 111 -47 232l61 60h6l37 -102l-1 -5l-25 -25q13 -90 9 -124q-1 -16 -30 -61q-29 -43 -45 -54q-11 -5 -70 -9q22 -31 22 -45q0 -23 -16 -64q-16 -42 -24 -49
q-104 -74 -282 -74zM437 -365q-20 -28 -52 -51q-27 22 -56 58q-30 -38 -57 -58q-28 21 -49 50q25 31 49 52q38 -32 57 -59q35 41 56 59q39 -33 52 -51z" />
    <glyph glyph-name="_622" unicode="&#xfe8b;&#xfe8a;" horiz-adv-x="760" 
d="M771 597l-23 -50q-55 -26 -112 -26q-9 0 -59 41l1 2q44 0 59 4v15q-19 10 -19 38q0 34 22 62q24 30 57 30q26 0 39 -37q7 -18 8 -33l-2 -1q-15 23 -44 23q-36 0 -73 -31q18 -55 73 -55q36 0 75 14zM287 352l-23 -50q-55 -26 -111 -26q-9 0 -59 41v2q45 0 60 4v15
q-19 10 -19 38q0 34 22 62q23 30 56 30q26 0 39 -37q8 -21 9 -33l-2 -1q-13 22 -45 22q-38 0 -72 -31q18 -54 72 -54q37 0 76 14zM288 -220q-104 0 -157 53q-43 43 -43 111q0 97 71 207l13 -7q-37 -74 -37 -130q0 -147 171 -147q158 0 280 65q-42 78 -150 78h-5l2 -4l26 85
h83q112 0 151 9q-15 111 -47 232l61 60h6l37 -102l-1 -5l-25 -25q13 -90 9 -124q-1 -16 -30 -61q-29 -43 -45 -54q-11 -5 -70 -9q22 -31 22 -45q0 -23 -16 -64q-16 -42 -24 -49q-104 -74 -282 -74z" />
    <glyph glyph-name="_625" unicode="&#xfe8c;&#xfee6;" horiz-adv-x="840" 
d="M847 520l-23 -50q-55 -26 -111 -26q-9 0 -59 41v2q45 0 60 4v15q-20 11 -20 38q0 34 22 62q24 30 57 30q26 0 39 -37q7 -18 8 -33l-1 -1q-13 22 -45 22q-39 0 -73 -31q21 -54 73 -54q36 0 75 14zM344 327q-31 22 -50 50q28 33 50 51q34 -28 50 -50q-19 -29 -50 -51z
M285 -183q-197 0 -197 164q0 96 71 203l10 -5q-34 -78 -34 -139q0 -140 171 -140q113 0 202 50q-22 132 -57 293l64 69h5q8 -48 10 -58q6 -22 17 -30q10 -7 38 -7q96 0 146 50l51 58v-157q0 -53 10 -63q11 -14 56 -14h35l7 -1v-79l-7 -1h-35q-98 0 -116 115l-13 100
q-73 -87 -139 -87h-37q4 -89 4 -147q-2 -21 -26 -62q-22 -43 -31 -50q-62 -62 -205 -62z" />
    <glyph glyph-name="_626" unicode="&#xfe8c;&#xfeae;" horiz-adv-x="623" 
d="M547 540l-23 -50q-55 -26 -111 -26q-7 0 -60 41l1 2q45 0 60 4v15q-20 11 -20 38q0 34 22 62q24 30 57 30q26 0 39 -37q7 -18 8 -33l-2 -1q-16 22 -44 22q-39 0 -73 -31q18 -54 73 -54q36 0 75 14zM69 -183q-16 0 -80 34q-58 31 -69 40l6 13q55 -11 80 -11q75 0 136 64
q50 53 75 130l-82 162l52 84h4l20 -64q9 -23 24 -29q15 -5 48 -5q97 0 147 50l51 58v-175q0 -53 10 -63q11 -14 56 -14h35l7 -1v-79l-7 -1h-35q-51 0 -82 34q-28 31 -34 81l-14 117q-73 -87 -139 -87l-37 1v-117q-3 -56 -56 -136q-59 -86 -116 -86z" />
    <glyph glyph-name="_709" unicode="FB" horiz-adv-x="837" 
d="M441 38v579l-135 45q-85 -46 -85 -137v-82h100v-39h-100v-352l72 -23v-19h-221v18l75 22v354h-81v23l81 19v62q0 77 58 131q61 57 157 57q43 0 82 -10l28 7h43v-293q82 52 144 52q167 0 167 -214q0 -104 -71 -172q-68 -65 -163 -65q-96 0 -151 37zM602 41q74 0 110 60
q30 48 30 125q0 81 -35 131q-36 51 -97 51q-46 0 -95 -23v-320q49 -24 87 -24z" />
    <glyph glyph-name="_713" unicode="FH" horiz-adv-x="902" 
d="M369 10v18l76 23v564l-139 47q-85 -46 -85 -137v-82h100v-39h-100v-352l72 -23v-19h-221v18l75 22v354h-81v23l81 19v62q0 77 58 131q61 57 157 57q35 0 84 -11l28 8h45v-318q98 77 182 77q119 0 119 -155v-245l75 -23v-19h-226v18l77 24v229q0 118 -108 118
q-58 0 -119 -34v-312l75 -24v-19h-225z" />
    <glyph glyph-name="_714" unicode="F&#xcf;" horiz-adv-x="603" 
d="M542 611q0 18 12 30q11 11 29 11t29 -11q12 -12 12 -30q0 -17 -12 -29t-29 -12t-29 12t-12 29zM374 611q0 41 41 41q18 0 29 -11q12 -12 12 -30q0 -17 -12 -29t-29 -12q-18 0 -30 12q-11 14 -11 29zM339 624h-6l-73 26q-39 -46 -39 -115v-92h205l68 9h29v-401l79 -23v-18
h-222v18l69 22v354h-228v-353l80 -23v-18h-229v18l75 22v354h-81v23l81 19v78q0 73 58 124q53 48 120 48q8 0 36 -5z" />
    <glyph glyph-name="_715" unicode="F&#xcc;" horiz-adv-x="603" 
d="M392 641l41 44l113 -131l-15 -17zM339 624h-6l-73 26q-39 -46 -39 -115v-92h205l68 9h29v-401l79 -23v-18h-222v18l69 22v354h-228v-353l80 -23v-18h-229v18l75 22v354h-81v23l81 19v78q0 73 58 124q53 48 120 48q8 0 36 -5z" />
    <glyph glyph-name="_716" unicode="FJ" horiz-adv-x="556" 
d="M71 10v17l76 22v355h-81v23l81 19v53q0 78 56 137q60 63 151 63q69 0 106 -19l-13 -72h-12l-132 58q-83 -47 -83 -137v-86h197l67 9h29v-446q0 -131 -108 -215l-24 18q59 65 59 195v400h-220v-352l73 -23v-19h-222z" />
    <glyph glyph-name="_717" unicode="FK" horiz-adv-x="837" 
d="M371 10v18l76 24v563l-141 47q-85 -46 -85 -137v-82h100v-39h-100v-352l72 -23v-19h-221v18l75 22v354h-81v23l81 19v62q0 77 58 131q61 57 157 57q36 0 85 -11l30 8h44v-641l75 -23v-19h-225zM843 10h-137l-141 226v11l139 147l-77 31v18h189v-20l-52 -26l-136 -128
l143 -210l72 -30v-19z" />
    <glyph glyph-name="_886" unicode="&#xfe8b;&#xfef0;" horiz-adv-x="760" 
d="M771 597l-23 -50q-55 -26 -112 -26q-9 0 -59 41l1 2q44 0 59 4v15q-19 10 -19 38q0 34 22 62q24 30 57 30q26 0 39 -37q7 -18 8 -33l-2 -1q-15 23 -44 23q-36 0 -73 -31q18 -55 73 -55q36 0 75 14zM288 -220q-104 0 -157 53q-43 43 -43 111q0 97 71 207l13 -7
q-37 -74 -37 -130q0 -147 171 -147q158 0 280 65q-42 78 -150 78h-5l2 -4l26 85h83q112 0 151 9q-15 111 -47 232l61 60h6l37 -102l-1 -5l-25 -25q13 -90 9 -124q-1 -16 -30 -61q-29 -43 -45 -54q-11 -5 -70 -9q22 -31 22 -45q0 -23 -16 -64q-16 -42 -24 -49
q-104 -74 -282 -74z" />
    <glyph glyph-name="_95" unicode="&#x672;" horiz-adv-x="265" 
d="M54 688q-21 0 -36 18q-4 6 -17 10l-10 17l-38 -60l-1 1q6 21 22 55q5 5 22 18l21 17l-3 2l13 -13q16 -16 36 -16q17 0 43 12q-29 23 -29 47q0 36 22 61q24 28 57 28q26 0 39 -37q7 -16 8 -32l-2 -1q-16 25 -47 25q-38 0 -68 -34q19 -54 71 -54q35 0 74 15l-2 4l-22 -48
q-113 -35 -153 -35zM247 90v-79l-7 -1q-96 0 -137 68q-42 72 -43 253q0 43 -3 230l64 61h4v-474q0 -38 36 -50q20 -7 79 -7z" />
    <glyph glyph-name="_97" unicode="&#x673;" horiz-adv-x="266" 
d="M263 11l-7 -1q-97 0 -136 66q-40 70 -42 252q0 43 -6 310l65 61h3v-551q0 -38 36 -50q20 -7 80 -7l7 -1v-79zM84 -239q-22 0 -36 18q-7 12 -8 14l-12 25l-46 -72q3 20 22 57l42 34l11 -11q16 -16 35 -16t44 13q-29 23 -29 46q0 36 22 61q24 29 57 29q26 0 39 -37
q7 -18 8 -33l-2 -1q-18 25 -48 25q-41 0 -69 -34q22 -54 73 -54q35 0 74 15l-3 4l-22 -47q-109 -36 -152 -36z" />
    <glyph glyph-name="_552" unicode="&#x67c;" horiz-adv-x="270" 
d="M243 564q-20 -29 -52 -52q-22 16 -55 59q-30 -39 -58 -59q-31 24 -49 51q25 31 49 52q38 -32 57 -59q41 45 56 59q40 -34 52 -51zM91 -101q-27 0 -46 19q-20 20 -20 46q0 20 21 49q-32 -3 -51 -3l-7 1v79l7 1q109 0 150 9q-14 105 -48 232l62 60h6l37 -102l-1 -6l-23 -24
q11 -102 7 -124q-2 -38 -68 -110q39 -25 39 -62q0 -27 -19 -46q-18 -19 -46 -19zM39 -36q0 -22 16 -35q17 -14 36 -14q52 0 52 49q0 52 -52 52t-52 -52z" />
    <glyph glyph-name="_553" unicode="&#x67c;" horiz-adv-x="298" 
d="M268 473q-21 -30 -51 -52q-13 9 -56 59q-32 -43 -57 -59q-31 22 -50 51q20 25 50 52q37 -31 56 -59q44 48 57 59q37 -32 51 -51zM152 -30q0 -27 -19 -46q-18 -19 -46 -19q-27 0 -46 19q-20 20 -20 46q0 12 14 43q-25 -3 -40 -3l-7 1v79l7 1q62 0 106 11l37 164l56 36
q-9 -140 -24 -183q40 -28 121 -28l7 -1v-79l-13 -1q-101 0 -155 72l-38 -46q60 -15 60 -66zM87 -79q52 0 52 49q0 52 -53 52l-16 -3q-35 -11 -35 -49q0 -22 16 -35q17 -14 36 -14z" />
    <glyph glyph-name="_551" unicode="&#x67c;" horiz-adv-x="777" 
d="M539 395q-20 -29 -52 -52q-13 9 -56 59q-32 -43 -57 -59q-31 24 -49 51q25 31 49 52q37 -31 56 -59q42 47 57 59q39 -33 52 -51zM470 -45q0 -27 -18 -46t-46 -19q-27 0 -46 19q-20 20 -20 46q0 23 26 55q-258 3 -258 168q0 96 71 203l12 -6q-37 -80 -37 -138
q0 -146 219 -146q145 0 278 19l35 156l55 38l2 -1q-12 -144 -24 -184q40 -28 121 -28l7 -1v-79l-7 -1q-116 0 -166 78q-39 -46 -53 -55q-50 -15 -178 -21q27 -32 27 -57zM353 -45q0 -49 53 -49q51 0 51 49q0 51 -51 51q-53 0 -53 -51z" />
    <glyph glyph-name="_540" unicode="&#x67d;" horiz-adv-x="270" 
d="M196 626q-43 44 -58 55l-54 -55q-31 23 -50 49q19 28 51 50q24 -18 54 -58q33 42 56 58q27 -21 48 -49q-25 -31 -47 -50zM139 608q23 -19 45 -47q-19 -21 -45 -46q-33 25 -47 46q18 26 47 47zM-7 10l-7 1v79l7 1q109 0 150 9q-14 105 -48 232l62 60h7l37 -102l-1 -5
l-25 -26q13 -84 9 -123q-2 -17 -31 -61q-28 -46 -44 -54q-28 -11 -116 -11z" />
    <glyph glyph-name="_541" unicode="&#x67d;" horiz-adv-x="298" 
d="M215 535l-56 57q-29 -31 -56 -57q-36 30 -49 49q18 26 50 50q17 -13 55 -56q34 40 56 56q32 -25 47 -49q-24 -30 -47 -50zM159 518q23 -19 45 -47q-21 -26 -45 -47q-33 25 -47 46q17 27 47 48zM298 11l-13 -1q-101 0 -156 72q-47 -57 -55 -62q-20 -10 -79 -10l-7 1v79
l7 1q62 0 106 11l37 164l56 36q-9 -140 -24 -183q40 -28 121 -28l7 -1v-79z" />
    <glyph glyph-name="_539" unicode="&#x67d;" horiz-adv-x="777" 
d="M433 521l-58 -58q-30 23 -49 49q18 25 50 49q24 -19 55 -57q32 41 56 57q29 -22 47 -49q-24 -28 -47 -49q-47 47 -54 58zM431 444q25 -19 45 -46q-21 -26 -45 -47q-34 28 -47 47q16 26 47 46zM847 11l-7 -1q-116 0 -166 78q-39 -46 -53 -55q-77 -23 -267 -23
q-246 0 -246 168q0 96 71 203l12 -6q-37 -80 -37 -138q0 -146 219 -146q145 0 278 19l35 156l55 38l2 -1q-12 -144 -24 -184q40 -28 121 -28l7 -1v-79z" />
    <glyph glyph-name="_226" unicode="&#x681;" horiz-adv-x="641" 
d="M393 526l-23 -50q-55 -26 -112 -26q-9 0 -59 41v2q45 0 60 4v15q-19 10 -19 38q0 34 22 62q22 30 56 30q26 0 39 -37q7 -21 9 -33l-2 -1q-15 23 -45 23q-35 0 -72 -31q18 -55 72 -55q37 0 76 14zM72 10h-77l-7 1v79l7 1h115q111 0 213 45q55 26 99 39q-84 28 -148 63
l-127 72l-89 -61l-10 11q81 115 124 115q8 0 142 -74q112 -64 193 -64h75l-28 -69h-73q-18 -3 -187 -99q-98 -59 -222 -59z" />
    <glyph glyph-name="_227" unicode="&#x681;" horiz-adv-x="648" 
d="M393 526l-23 -50q-55 -26 -112 -26q-9 0 -59 41v2q45 0 60 4v15q-19 10 -19 38q0 34 22 62q22 30 56 30q26 0 39 -37q7 -21 9 -33l-2 -1q-15 23 -45 23q-35 0 -72 -31q18 -55 72 -55q37 0 76 14zM72 10h-77l-7 1v79l7 1h115q116 0 214 46q63 27 98 38q-83 28 -148 63
l-127 72l-89 -61l-10 11q81 115 124 115q8 0 142 -74q112 -64 193 -64h73l-29 -69l-52 -4q1 -73 73 -73h69l7 -1v-79l-7 -1h-73q-108 0 -83 157q-33 -8 -191 -98q-98 -59 -222 -59z" />
    <glyph glyph-name="_225" unicode="&#x681;" horiz-adv-x="632" 
d="M461 545l-23 -50q-55 -26 -111 -26q-7 0 -60 41l1 2q45 0 60 4v15q-20 11 -20 38q0 34 22 62q24 30 57 30q26 0 39 -37q7 -18 8 -33l-2 -1q-16 22 -44 22q-39 0 -73 -31q18 -54 73 -54q36 0 75 14zM640 -196l1 -6q-145 -94 -208 -94q-124 0 -209 49q-72 40 -91 95
q-23 60 -20 115q22 145 199 245q25 12 95 19l5 23q-64 6 -138 21q-69 15 -99 17l-75 -66l-8 7q70 132 100 132q15 0 133 -23q121 -23 193 -23h97l-28 -71l-51 1q-6 -82 10 -113q21 -41 86 -41h45l7 -1v-79l-7 -1h-48q-85 0 -109 62q-22 55 8 169q-156 -49 -288 -157
q-86 -74 -104 -159q74 -131 338 -131q67 0 166 10z" />
    <glyph glyph-name="_222" unicode="&#x685;" horiz-adv-x="641" 
d="M331 570q-25 19 -45 46q21 26 45 47q33 -25 47 -46q-18 -27 -47 -47zM435 503q-19 -28 -50 -50q-21 17 -54 57q-31 -39 -57 -57q-28 22 -47 50q23 28 47 49l58 -58q51 82 42 74l-3 -3q49 -41 64 -62zM72 10h-77l-7 1v79l7 1h115q111 0 213 45q55 26 99 39q-84 28 -148 63
l-127 72l-89 -61l-10 11q81 115 124 115q8 0 142 -74q112 -64 193 -64h75l-28 -69h-73q-18 -3 -187 -99q-98 -59 -222 -59z" />
    <glyph glyph-name="_223" unicode="&#x685;" horiz-adv-x="648" 
d="M331 570q-25 19 -45 46q21 26 45 47q33 -25 47 -46q-18 -27 -47 -47zM435 503q-19 -28 -50 -50q-21 17 -54 57q-31 -39 -57 -57q-28 22 -47 50q23 28 47 49l58 -58q51 82 42 74l-3 -3q49 -41 64 -62zM72 10h-77l-7 1v79l7 1h115q116 0 214 46q63 27 98 38q-83 28 -148 63
l-127 72l-89 -61l-10 11q81 115 124 115q8 0 142 -74q112 -64 193 -64h73l-29 -69l-52 -4q1 -73 73 -73h69l7 -1v-79l-7 -1h-73q-108 0 -83 157q-33 -8 -191 -98q-98 -59 -222 -59z" />
    <glyph glyph-name="_221" unicode="&#x685;" horiz-adv-x="632" 
d="M365 592q-23 19 -45 47q19 21 45 46q37 -30 47 -46q-17 -26 -47 -47zM470 525q-18 -26 -50 -50q-13 11 -55 56q-34 -40 -56 -56q-28 22 -47 50q24 28 47 49l56 -56l56 56q36 -30 49 -49zM640 -196l1 -6q-145 -94 -208 -94q-124 0 -209 49q-72 40 -91 95q-23 60 -20 115
q22 145 199 245q25 12 95 19l5 23q-64 6 -138 21q-69 15 -99 17l-75 -66l-8 7q70 132 100 132q15 0 133 -23q121 -23 193 -23h97l-28 -71l-51 1q-6 -82 10 -113q21 -41 86 -41h45l7 -1v-79l-7 -1h-48q-85 0 -109 62q-22 55 8 169q-156 -49 -288 -157q-86 -74 -104 -159
q74 -131 338 -131q67 0 166 10z" />
    <glyph glyph-name="_150" unicode="&#x689;" horiz-adv-x="484" 
d="M329 -47q0 -27 -18 -45q-18 -19 -46 -19t-47 19q-20 20 -20 45q0 23 28 57q-138 0 -138 88q0 56 29 112l13 -4q-8 -29 -8 -50q0 -34 19 -47q24 -18 90 -18q52 0 147 5q10 -4 -4 42q-21 67 -99 257l53 67h6l74 -237q33 -96 45 -111q20 -23 74 -23l7 -1v-79l-19 -1
q-72 0 -118 85l-55 -72q-1 -1 -47 -7q34 -33 34 -63zM212 -47q0 -21 16 -34q17 -14 37 -14q51 0 51 48q0 52 -51 52q-53 0 -53 -52z" />
    <glyph glyph-name="_146" unicode="&#x68a;" horiz-adv-x="484" 
d="M534 11l-19 -1q-72 0 -118 85l-54 -72q-35 -13 -137 -13q-118 0 -118 88q0 56 29 112l13 -4q-8 -29 -8 -50q0 -34 19 -47q24 -18 90 -18q52 0 147 5q10 -4 -4 42q-21 67 -99 257l53 67h6l74 -237q33 -96 45 -111q20 -23 74 -23l7 -1v-79zM259 -178q-28 21 -49 50
q24 31 49 51q37 -28 51 -50q-20 -29 -51 -51z" />
    <glyph glyph-name="_148" unicode="&#x68f;" horiz-adv-x="484" 
d="M300 736l-55 -55q-36 30 -49 49q18 26 50 50q17 -13 55 -56q34 40 56 56q27 -21 48 -49q-25 -31 -47 -50q-43 44 -58 55zM301 663q23 -19 45 -47q-19 -21 -45 -46q-33 25 -47 46q17 26 47 47zM534 11l-19 -1q-72 0 -118 85l-54 -72q-35 -13 -137 -13q-118 0 -118 88
q0 56 29 112l13 -4q-8 -29 -8 -50q0 -34 19 -47q24 -18 90 -18q52 0 147 5q10 -4 -4 42q-21 67 -99 257l53 67h6l74 -237q33 -96 45 -111q20 -23 74 -23l7 -1v-79z" />
    <glyph glyph-name="_440" unicode="&#x692;" horiz-adv-x="372" 
d="M168 420h-41l1 -1q-21 61 -83 111l26 53l-3 -1q44 -41 85 -150q30 91 78 148l-4 1l19 -40q-59 -63 -78 -121zM51 -183q-15 0 -76 34q-48 26 -67 40l6 13q36 -10 72 -10q139 0 196 168q17 -2 -58 167l58 69l21 -87q19 -77 39 -96q22 -24 83 -24l7 -1v-79l-18 -1
q-42 0 -101 51q-8 -85 -51 -158q-53 -86 -111 -86z" />
    <glyph glyph-name="_444" unicode="&#x693;" horiz-adv-x="372" 
d="M260 -148q0 -26 -18 -46q-18 -19 -46 -19q-52 0 -69 69q-44 -39 -76 -39q-15 0 -76 34q-48 26 -67 40l6 13q36 -10 72 -10q139 0 196 168q17 -2 -58 167l58 69l21 -87q19 -77 39 -96q22 -24 83 -24l7 -1v-79l-18 -1q-42 0 -101 51q-7 -71 -45 -147l28 3q28 0 46 -18
t18 -47zM144 -148q0 -49 52 -49t52 49q0 52 -52 52t-52 -52z" />
    <glyph glyph-name="_436" unicode="&#x694;" horiz-adv-x="372" 
d="M51 -183q-15 0 -76 34q-48 26 -67 40l6 13q36 -10 72 -10q139 0 196 168q17 -2 -58 167l58 69l21 -87q19 -77 39 -96q22 -24 83 -24l7 -1v-79l-18 -1q-42 0 -101 51q-8 -85 -51 -158q-53 -86 -111 -86zM79 -372q-31 22 -50 50q20 25 50 52q35 -30 50 -51q-19 -29 -50 -51
z" />
    <glyph glyph-name="_442" unicode="&#x695;" horiz-adv-x="372" 
d="M51 -183q-15 0 -76 34q-48 26 -67 40l6 13q36 -10 72 -10q139 0 196 168q17 -2 -58 167l58 69l21 -87q19 -77 39 -96q22 -24 83 -24l7 -1v-79l-18 -1q-42 0 -101 51q-8 -85 -51 -158q-53 -86 -111 -86zM124 -428h-40l1 -1q-22 64 -84 112l26 53l-3 -1q44 -43 85 -150
q30 91 78 148l-4 1l18 -40q-58 -63 -77 -122z" />
    <glyph glyph-name="_434" unicode="&#x696;" horiz-adv-x="372" 
d="M2 62q-28 21 -49 50q24 31 49 51q37 -28 51 -50q-19 -29 -51 -51zM51 -183q-15 0 -76 34q-48 26 -67 40l6 13q36 -10 72 -10q139 0 196 168q17 -2 -58 167l58 69l21 -87q19 -77 39 -96q22 -24 83 -24l7 -1v-79l-18 -1q-42 0 -101 51q-8 -85 -51 -158q-53 -86 -111 -86z
M243 -288q-31 21 -50 50q26 34 50 51q35 -30 50 -51q-19 -29 -50 -50z" />
    <glyph glyph-name="_438" unicode="&#x699;" horiz-adv-x="366" 
d="M181 420q-27 20 -56 57q-24 -33 -55 -57q-30 24 -48 48q5 8 58 55q-51 45 -58 56q14 18 49 47q28 -19 53 -56q30 33 58 56q29 -21 47 -46q-14 -20 -58 -57q45 -40 58 -56q-12 -21 -48 -47zM177 523l-52 -51l-51 51l51 52zM25 -183q-15 0 -76 34q-48 26 -67 40l6 13
q37 -10 72 -10q139 0 196 168q17 -2 -58 167l58 69l21 -87q19 -77 39 -96q23 -24 83 -24l7 -1v-79l-18 -1q-42 0 -101 51q-8 -85 -51 -158q-53 -86 -111 -86z" />
    <glyph glyph-name="_504" unicode="&#x69a;" horiz-adv-x="697" 
d="M387 418q-31 22 -50 50q26 34 50 51q35 -30 50 -51q-19 -28 -50 -50zM629 106q0 -16 -35 -63q-34 -45 -48 -45q-88 0 -194 84q-40 -72 -124 -72q-78 0 -121 64q-48 -64 -112 -64l-7 1v79l7 1q44 0 92 8l33 102l48 31l1 -1q-8 -63 -18 -122q43 -18 97 -18q39 0 74 7
l42 154l48 31l2 -1q-3 -58 -19 -155q78 -47 184 -60l-28 240l64 52h5q9 -174 9 -253zM366 -196q-31 22 -50 50q27 33 50 52q35 -30 50 -51q-19 -29 -50 -51z" />
    <glyph glyph-name="_505" unicode="&#x69a;" horiz-adv-x="733" 
d="M387 418q-31 22 -50 50q26 34 50 51q35 -30 50 -51q-19 -28 -50 -50zM733 11l-35 -1q-68 0 -105 78q-41 -78 -121 -78q-79 0 -124 66q-39 -66 -120 -66q-78 0 -121 64q-48 -64 -112 -64l-7 1v79l7 1q44 0 92 8l33 102l48 31l1 -1q-8 -63 -18 -122q43 -18 97 -18
q39 0 74 7l42 154l48 31l2 -1q-7 -84 -22 -171q46 -20 100 -20q36 0 88 11q-10 75 -19 167l66 50h5v-169q0 -34 9 -45q14 -14 55 -14h30l7 -1v-79zM368 -196q-28 21 -49 50q25 31 49 52q38 -32 51 -51q-19 -29 -51 -51z" />
    <glyph glyph-name="_503" unicode="&#x69a;" horiz-adv-x="1059" 
d="M763 420q-31 22 -50 50q20 25 50 52q35 -30 50 -51q-19 -29 -50 -51zM282 -183q-107 0 -155 53q-39 40 -39 111q0 96 72 207l10 -5q-35 -88 -35 -143q0 -140 168 -140q122 0 202 53q-18 115 -39 270l70 56h4l6 -176q34 -12 78 -12q39 0 74 7l42 154l48 31l2 -1
q-7 -84 -22 -171q46 -20 100 -20q36 0 88 11q-9 65 -18 167l65 50h5v-169q0 -34 9 -45q14 -14 55 -14h30l7 -1v-79l-35 -1q-68 0 -105 78q-41 -78 -122 -78q-78 0 -123 66q-39 -66 -120 -66q-25 0 -57 17l-4 -33q-9 -50 -53 -110q-64 -67 -208 -67zM744 -196q-28 21 -49 50
q25 31 49 52q38 -32 51 -51q-19 -29 -51 -51z" />
    <glyph glyph-name="_286" unicode="&#x6aa;" horiz-adv-x="704" 
d="M401 10h-406l-7 1v79l7 1h432q124 0 204 5q-25 71 -64 101q-61 46 -195 46q-292 0 -303 17q-1 2 13 53q15 49 22 56q28 42 178 140q136 91 148 91l1 -1l-38 -100q-159 -59 -296 -184h291q143 0 209 -70q49 -49 49 -124q0 -11 -21 -53q-20 -41 -26 -45q-13 -13 -198 -13z
" />
    <glyph glyph-name="_287" unicode="&#x6aa;" horiz-adv-x="758" 
d="M401 10h-406l-7 1v79l7 1h432q124 0 204 5q-25 71 -64 101q-61 46 -195 46q-292 0 -303 17q-1 2 13 53q15 49 22 56q28 42 178 140q136 91 148 91l1 -1l-38 -100q-159 -59 -296 -184h291q130 0 198 -60q51 -46 59 -115q9 -31 28 -40t78 -9l7 -1v-79l-7 -1q-76 0 -115 80
q-33 -64 -37 -67q-13 -13 -198 -13z" />
    <glyph glyph-name="_285" unicode="&#x6aa;" horiz-adv-x="948" 
d="M626 10h-325q-113 0 -132 16l-111 86l-2 -3q124 -18 243 -18h353q127 0 202 5q-23 72 -62 101q-61 46 -195 46q-292 0 -303 17q-1 2 13 53q15 49 22 56q28 42 178 140q136 91 148 91l1 -1l-38 -100q-154 -55 -296 -184h291q131 0 199 -60q50 -44 58 -115q9 -33 28 -40
q18 -9 77 -9l7 -1v-79l-7 -1q-77 0 -114 79q-30 -62 -37 -66q-13 -13 -198 -13z" />
    <glyph glyph-name="_282" unicode="&#x6ab;" horiz-adv-x="469" 
d="M265 474q0 -49 53 -49q51 0 51 49q0 51 -51 51q-53 0 -53 -51zM133 10h-138l-7 1v79l7 1h150q155 0 207 16q-41 94 -226 209l-18 -17l-71 51l16 57q18 58 24 61l340 196l-17 -88l-69 -35q51 -25 51 -67q0 -26 -18 -46q-18 -19 -46 -19q-27 0 -46 19q-20 20 -20 46l3 27
l-159 -82q150 -82 226 -166q61 -67 61 -111q0 -7 -20 -56q-21 -47 -31 -54q-28 -22 -199 -22z" />
    <glyph glyph-name="_283" unicode="&#x6ab;" horiz-adv-x="452" 
d="M261 490q0 -21 16 -34q17 -14 36 -14q52 0 52 48q0 52 -52 52t-52 -52zM31 10h-36l-7 1v79l7 1h59q95 0 131 10q3 60 -47 137l-96 138q-2 7 14 49q16 46 23 48l294 196l-17 -89l-35 -22q56 -23 56 -68q0 -27 -18 -45q-18 -19 -46 -19q-27 0 -46 19q-20 20 -20 45v21
l-147 -92l122 -175q56 -82 103 -119q43 -34 106 -34l21 -1v-79l-21 -1q-66 0 -110 29q-28 19 -95 101q-58 -109 -74 -115q-30 -15 -121 -15z" />
    <glyph glyph-name="_281" unicode="&#x6ab;" horiz-adv-x="851" 
d="M709 490q0 -21 16 -34q17 -14 36 -14q52 0 52 48q0 52 -52 52t-52 -52zM901 11l-22 -1q-66 0 -110 29q-29 19 -93 99q-57 -106 -73 -112q-35 -16 -269 -16q-246 0 -246 170q0 90 69 197l11 -7q-36 -82 -36 -138q0 -141 221 -141q170 0 280 8q3 62 -47 139l-96 138
q-2 7 14 49q16 46 23 48l294 196l-17 -89l-33 -22q55 -22 55 -68q0 -27 -18 -45q-19 -19 -47 -19q-27 0 -46 19q-20 20 -20 45v21l-147 -92l122 -175q56 -82 103 -119q43 -34 106 -34l22 -1v-79z" />
    <glyph glyph-name="_353" unicode="&#x6b5;" horiz-adv-x="282" 
d="M160 776h-41l1 -1q-23 65 -83 112l26 52l-3 -1q44 -41 85 -150q30 91 78 148l-4 1l18 -40q-61 -67 -77 -121zM-5 10l-7 1v79l7 1q91 0 130 9l-11 455l-24 62l80 79l9 -5v-44l44 -79l-44 -47v-359q0 -22 -42 -78q-41 -52 -60 -66q-14 -8 -82 -8z" />
    <glyph glyph-name="_358" unicode="&#x6b5;" horiz-adv-x="299" 
d="M167 780h-41l1 -1q-23 65 -83 112l26 52l-3 -1q41 -37 85 -149q28 89 78 147l-4 1l18 -40q-61 -67 -77 -121zM299 11l-7 -1q-102 0 -142 109q-56 -91 -69 -99q-16 -10 -86 -10l-7 1v79l7 1q86 0 131 9l-14 539l64 60h4v-485q0 -67 18 -91q23 -31 94 -32l7 -1v-79z" />
    <glyph glyph-name="_352" unicode="&#x6b5;" horiz-adv-x="611" 
d="M536 781h-39l1 -1q-22 63 -85 112l26 53l-3 -1q44 -43 85 -150q30 91 78 148l-4 1l19 -40q-59 -62 -78 -122zM285 -183q-197 0 -197 164q0 96 71 203l13 -7q-37 -80 -37 -137q0 -140 171 -140q92 0 188 45l-17 694l65 60h3v-489q0 -64 17 -87q23 -31 92 -32l7 -1v-79
l-7 -1q-60 0 -109 52v-37q-1 -31 -39 -97q-32 -59 -46 -70q-53 -41 -175 -41z" />
    <glyph glyph-name="_329" unicode="&#x6b6;" horiz-adv-x="282" 
d="M141 779q-28 21 -49 50q24 31 49 51q37 -32 51 -51q-19 -28 -51 -50zM-5 10l-7 1v79l7 1q91 0 130 9l-11 455l-24 62l80 79l9 -5v-44l44 -79l-44 -47v-359q0 -22 -42 -78q-41 -52 -60 -66q-14 -8 -82 -8z" />
    <glyph glyph-name="_334" unicode="&#x6b6;" horiz-adv-x="299" 
d="M143 779q-27 18 -49 50q24 31 49 51q37 -32 51 -51q-20 -29 -51 -50zM299 11l-7 -1q-102 0 -142 109q-56 -91 -69 -99q-16 -10 -86 -10l-7 1v79l7 1q86 0 131 9l-14 539l64 60h4v-485q0 -67 18 -91q23 -31 94 -32l7 -1v-79z" />
    <glyph glyph-name="_328" unicode="&#x6b6;" horiz-adv-x="611" 
d="M510 779q-27 18 -49 50q24 31 49 51q38 -32 51 -51q-20 -29 -51 -50zM285 -183q-197 0 -197 164q0 96 71 203l13 -7q-37 -80 -37 -137q0 -140 171 -140q92 0 188 45l-17 694l65 60h3v-489q0 -64 17 -87q23 -31 92 -32l7 -1v-79l-7 -1q-60 0 -109 52v-37q-1 -31 -39 -97
q-32 -59 -46 -70q-53 -41 -175 -41z" />
    <glyph glyph-name="_347" unicode="&#x6b7;" horiz-adv-x="282" 
d="M140 893q-25 19 -45 46q21 26 45 47q33 -27 46 -46q-17 -28 -46 -47zM244 826q-19 -28 -50 -50q-26 20 -54 57q-32 -41 -57 -57q-28 22 -47 50q23 28 47 49l50 -50l1 1l1 1l1 1l1 1l1 1l1 1l49 50q42 -34 56 -55zM-5 10l-7 1v79l7 1q91 0 130 9l-11 455l-24 62l80 79
l9 -5v-44l44 -79l-44 -47v-359q0 -22 -42 -78q-41 -52 -60 -66q-14 -8 -82 -8z" />
    <glyph glyph-name="_349" unicode="&#x6b7;" horiz-adv-x="299" 
d="M146 899q-23 19 -45 47q19 21 45 46q33 -25 47 -46q-18 -26 -47 -47zM250 832q-19 -28 -50 -50q-21 16 -54 57q-32 -40 -56 -57q-29 23 -48 50q24 28 47 49q53 -52 58 -55l54 55q36 -30 49 -49zM299 11l-7 -1q-102 0 -142 109q-56 -91 -69 -99q-16 -10 -86 -10l-7 1v79
l7 1q86 0 131 9l-14 539l64 60h4v-485q0 -67 18 -91q23 -31 94 -32l7 -1v-79z" />
    <glyph glyph-name="_346" unicode="&#x6b7;" horiz-adv-x="611" 
d="M509 899q-25 19 -45 46q21 26 45 47q33 -25 47 -46q-18 -27 -47 -47zM614 832q-19 -28 -51 -50q-21 16 -54 57q-32 -40 -56 -57q-32 25 -47 49q24 30 47 50l57 -58q51 82 42 74l-3 -3q52 -43 65 -62zM285 -183q-197 0 -197 164q0 96 71 203l13 -7q-37 -80 -37 -137
q0 -140 171 -140q92 0 188 45l-17 694l65 60h3v-489q0 -64 17 -87q23 -31 92 -32l7 -1v-79l-7 -1q-60 0 -109 52v-37q-1 -31 -39 -97q-32 -59 -46 -70q-53 -41 -175 -41z" />
    <glyph glyph-name="_341" unicode="&#x6b8;" horiz-adv-x="282" 
d="M-5 10l-7 1v79l7 1q91 0 130 9l-11 455l-24 62l80 79l9 -5v-44l44 -79l-44 -47v-359q0 -22 -42 -78q-41 -52 -60 -66q-14 -8 -82 -8zM172 -172l-56 57l-55 -57q-36 28 -50 49q19 28 51 50q15 -12 54 -56q34 40 56 56q32 -25 47 -49q-24 -30 -47 -50zM116 -190
q25 -19 45 -46q-21 -26 -45 -47q-33 25 -47 46q18 27 47 47z" />
    <glyph glyph-name="_343" unicode="&#x6b8;" horiz-adv-x="299" 
d="M299 11l-7 -1q-102 0 -142 109q-56 -91 -69 -99q-16 -10 -86 -10l-7 1v79l7 1q86 0 131 9l-14 539l64 60h4v-485q0 -67 18 -91q23 -31 94 -32l7 -1v-79zM201 -185l-56 57l-55 -57q-36 28 -50 49q19 28 51 50q21 -16 54 -57q32 40 56 57q32 -25 47 -49q-24 -30 -47 -50z
M145 -203q25 -19 45 -46q-21 -26 -45 -47q-33 25 -47 46q18 27 47 47z" />
    <glyph glyph-name="_340" unicode="&#x6b8;" horiz-adv-x="611" 
d="M285 -183q-197 0 -197 164q0 96 71 203l13 -7q-37 -80 -37 -137q0 -140 171 -140q92 0 188 45l-17 694l65 60h3v-489q0 -64 17 -87q23 -31 92 -32l7 -1v-79l-7 -1q-60 0 -109 52v-37q-1 -31 -39 -97q-32 -59 -46 -70q-53 -41 -175 -41zM381 -381l-50 50l-1 -1l-1 -1
l-1 -1l-1 -1l-1 -1l-1 -1l-49 -50q-42 34 -56 55q19 28 50 50q26 -20 54 -57q32 41 56 57q29 -23 48 -50q-23 -28 -47 -49zM324 -399q25 -19 45 -46q-21 -26 -45 -47q-33 25 -47 46q18 27 47 47z" />
    <glyph glyph-name="_395" unicode="&#x6bc;" horiz-adv-x="270" 
d="M143 518q-31 22 -50 50q27 33 50 52q35 -30 50 -51q-19 -29 -50 -51zM91 -101q-27 0 -46 19q-20 20 -20 46q0 20 21 49q-32 -3 -51 -3l-7 1v79l7 1q109 0 150 9q-14 105 -48 232l62 60h6l37 -102l-1 -6l-23 -24q11 -102 7 -124q-2 -38 -68 -110q39 -25 39 -62
q0 -27 -19 -46q-18 -19 -46 -19zM91 -85q52 0 52 49q0 52 -52 52t-52 -52q0 -22 16 -35q17 -14 36 -14z" />
    <glyph glyph-name="_396" unicode="&#x6bc;" horiz-adv-x="298" 
d="M162 437q-28 21 -49 50q25 31 49 52q38 -31 51 -51q-19 -28 -51 -51zM152 -30q0 -27 -19 -46q-18 -19 -46 -19q-27 0 -46 19q-20 20 -20 46q0 12 14 43q-25 -3 -40 -3l-7 1v79l7 1q62 0 106 11l37 164l56 36q-9 -140 -24 -183q40 -28 121 -28l7 -1v-79l-13 -1
q-101 0 -155 72l-38 -46q60 -15 60 -66zM87 -79q52 0 52 49q0 52 -53 52l-16 -3q-35 -11 -35 -49q0 -22 16 -35q17 -14 36 -14z" />
    <glyph glyph-name="_394" unicode="&#x6bc;" horiz-adv-x="617" 
d="M327 326q-31 22 -50 50q27 33 50 52q35 -30 50 -51q-19 -29 -50 -51zM323 -299q-28 0 -47 19q-20 20 -20 46q0 22 22 50q-190 13 -190 165q0 96 71 203l10 -5q-34 -78 -34 -139q0 -140 171 -140q108 0 201 48l-36 280l64 50h6l3 -66q5 -69 19 -91q23 -30 97 -30l7 -1v-79
l-7 -1q-64 0 -112 68l2 -70q-26 -98 -60 -129q-36 -33 -131 -55q28 -28 28 -58q0 -26 -18 -46q-18 -19 -46 -19zM323 -283q51 0 51 49q0 51 -51 51q-53 0 -53 -51q0 -49 53 -49z" />
    <glyph glyph-name="_257" unicode="&#x6c2;" horiz-adv-x="470" 
d="M361 470l-23 -50q-55 -26 -112 -26q-9 0 -59 41v2q45 0 60 4v15q-19 10 -19 38q0 35 22 63q24 30 57 30q25 0 39 -38q7 -18 8 -33l-2 -1q-15 23 -45 23q-35 0 -72 -31q18 -55 73 -55q36 0 75 14zM515 11l-7 -1q-72 0 -105 52q-25 40 -40 145q-76 -2 -164 -42
q-82 -37 -121 -73l2 -2l47 103q113 83 195 83q59 0 70 -59q12 -63 24 -83q25 -43 92 -43l7 -1v-79z" />
    <glyph glyph-name="_595" unicode="&#x6ca;" horiz-adv-x="444" 
d="M379 539q-20 -29 -51 -52q-21 17 -56 59q-31 -39 -57 -59q-31 22 -50 51q27 33 50 52q36 -31 56 -60q35 42 57 60q38 -32 51 -51zM392 91v14q-13 64 -46 115q-39 61 -82 61t-79 -52q-32 -44 -42 -107q46 -31 141 -31h108zM250 -183q-14 0 -79 35q-59 31 -69 41l6 13
q51 -12 88 -12q141 0 212 116h-124q-101 0 -129 37q-29 47 -29 92q3 73 46 143q50 77 114 77q54 0 96 -80q40 -78 45 -188h67l7 -1v-79l-7 -1h-74q-15 -81 -59 -134q-50 -59 -111 -59z" />
    <glyph glyph-name="_632" unicode="&#x6cd;" horiz-adv-x="679" 
d="M347 -220q-104 0 -157 53q-42 43 -42 111q0 56 37 143l-135 -35l3 -3l24 70l148 39l7 -11q-38 -82 -38 -133q0 -147 171 -147q160 0 279 65q-40 78 -149 78h-10l2 -5l26 86h190l7 -1v-79l-7 -1h-55q22 -31 22 -43q0 -23 -16 -64q-16 -42 -25 -49q-101 -74 -282 -74z" />
    <glyph glyph-name="_629" unicode="&#x6ce;" horiz-adv-x="270" 
d="M155 502h-41l1 -1q-23 65 -83 112l26 52l-3 -1q41 -37 85 -149q28 89 78 147l-4 1l19 -40q-59 -63 -78 -121zM-5 10l-7 1v79l7 1q109 0 150 9q-14 105 -48 232l62 60h6l37 -102l-1 -6l-23 -24q11 -102 7 -124q-1 -17 -30 -61q-28 -46 -44 -54q-28 -11 -116 -11zM206 -131
q-19 -28 -49 -49l-54 56q-29 -39 -53 -56q-28 19 -46 48q23 29 46 49q36 -32 54 -58q36 42 53 58q37 -30 49 -48z" />
    <glyph glyph-name="_630" unicode="&#x6ce;" horiz-adv-x="298" 
d="M174 416h-40l1 -1q-21 63 -84 112l26 52l-3 -1q45 -42 86 -151q27 89 78 149l-5 1l19 -40q-59 -63 -78 -121zM298 11l-13 -1q-101 0 -156 72q-47 -57 -55 -62q-20 -10 -79 -10l-7 1v79l7 1q62 0 106 11l37 164l56 36q-9 -140 -24 -183q40 -28 121 -28l7 -1v-79zM243 -132
q-19 -28 -50 -50q-17 13 -54 58q-31 -40 -55 -58q-30 22 -48 49q23 28 48 50q34 -30 54 -57q43 46 55 57q36 -28 50 -49z" />
    <glyph glyph-name="_628" unicode="&#x6ce;" horiz-adv-x="601" 
d="M347 237h-40l1 -1q-22 64 -84 112l26 52l-3 -1q44 -41 85 -149q28 88 78 147l-4 1l19 -40q-59 -63 -78 -121zM288 -220q-104 0 -157 53q-43 43 -43 111q0 97 71 207l13 -7q-37 -74 -37 -130q0 -147 171 -147q158 0 280 65q-42 78 -150 78h-11l2 -4l27 85h190l7 -1v-79
l-7 -1h-55q21 -30 21 -43q0 -23 -16 -64q-16 -42 -24 -49q-104 -74 -282 -74z" />
    <glyph glyph-name="_72" unicode="&#x6d5;" horiz-adv-x="453" 
d="M500 11l-7 -1h-41q-94 0 -113 141l-54 -85q-32 -8 -63 -8q-104 0 -134 59q-4 10 0 46t12 45q49 74 218 166l-3 43l66 48h5v-297q0 -50 12 -64q12 -13 59 -13h36l7 -1v-79zM336 145l-14 173q-142 -64 -208 -134q50 -48 138 -48q34 0 84 9z" />
    <glyph glyph-name="uniFB50" unicode="&#x671;" horiz-adv-x="266" arabic-form="isolated" 
d="M136 725q59 0 108 17q-30 66 -76 66q-40 0 -112 -77q54 -6 80 -6zM214 698q-32 -20 -96 -20q-63 0 -115 20l-31 -45q9 36 17 56q21 32 36 32l28 -8q77 123 129 123q23 0 47 -30q23 -32 23 -60q0 -9 -16 -37t-22 -31zM152 598v-451q0 -14 -40 -137h-12l-15 528l63 60h4z
" />
    <glyph glyph-name="uniFB51" unicode="&#x671;" horiz-adv-x="284" arabic-form="final" 
d="M157 742q66 0 108 16q-28 67 -75 67q-41 0 -111 -76q35 -7 78 -7zM236 714q-32 -20 -96 -20q-61 0 -116 20l-30 -44q9 36 17 56q21 32 35 32l29 -8q74 122 128 122q25 0 47 -30q23 -32 23 -59q0 -10 -16 -38q-15 -28 -21 -31zM287 11l-7 -1q-96 0 -140 72q-46 76 -46 253
v236l66 51h4v-474q0 -38 37 -50q20 -7 79 -7l7 -1v-79z" />
    <glyph glyph-name="uniFB52" unicode="&#x67b;" horiz-adv-x="763" arabic-form="isolated" 
d="M662 22q-28 -12 -318 -12q-246 0 -246 168q0 96 71 203l12 -6q-36 -83 -36 -138q0 -146 218 -146t335 8q-14 106 -48 233l61 60h7l36 -101l-1 -6l-24 -26q13 -79 8 -123q-1 -16 -30 -60t-45 -54zM423 -308q-33 27 -52 50q27 33 61 56q-47 41 -61 57q31 37 52 51
q29 -20 51 -51q-9 -13 -59 -56q43 -32 59 -57q-22 -31 -51 -50z" />
    <glyph glyph-name="uniFB53" unicode="&#x67b;" horiz-adv-x="777" arabic-form="final" 
d="M847 11l-7 -1q-116 0 -166 78q-39 -46 -53 -55q-77 -23 -267 -23q-246 0 -246 168q0 96 71 203l12 -6q-37 -80 -37 -138q0 -146 219 -146q145 0 278 19l35 156l55 38l2 -1q-12 -144 -24 -184q40 -28 121 -28l7 -1v-79zM424 -308q-31 25 -53 50q27 33 61 56q-47 41 -61 57
q31 37 52 51q29 -20 51 -51q-9 -13 -59 -56q43 -32 59 -57q-22 -31 -50 -50z" />
    <glyph glyph-name="uniFB54" unicode="&#x67b;" horiz-adv-x="270" arabic-form="initial" 
d="M-7 10l-7 1v79l7 1q109 0 150 9q-14 105 -48 232l62 60h7l37 -102l-1 -5l-25 -26q13 -84 9 -123q-2 -17 -31 -61q-28 -46 -44 -54q-28 -11 -116 -11zM105 -304q-33 27 -52 50q31 37 59 56q-47 42 -59 57q31 37 51 51q29 -20 52 -51q-24 -32 -61 -56q43 -33 61 -57
q-22 -31 -51 -50z" />
    <glyph glyph-name="uniFB55" unicode="&#x67b;" horiz-adv-x="298" arabic-form="medial" 
d="M298 11l-13 -1q-101 0 -156 72q-47 -57 -55 -62q-20 -10 -79 -10l-7 1v79l7 1q62 0 106 11l37 164l56 36q-9 -140 -24 -183q40 -28 121 -28l7 -1v-79zM145 -305q-31 25 -52 49q32 38 59 57q-50 45 -59 56q34 40 51 52q29 -20 52 -52q-16 -22 -59 -55q39 -30 59 -58
q-24 -31 -51 -49z" />
    <glyph glyph-name="uniFB56" unicode="&#x67e;" horiz-adv-x="763" arabic-form="isolated" 
d="M662 22q-28 -12 -318 -12q-246 0 -246 168q0 96 71 203l12 -6q-36 -83 -36 -138q0 -146 218 -146t335 8q-14 106 -48 233l61 60h7l36 -101l-1 -6l-24 -26q13 -79 8 -123q-1 -16 -30 -60t-45 -54zM480 -194l-56 57q-29 -31 -56 -57q-36 30 -49 49q18 26 50 50
q17 -13 55 -56q34 40 56 56q32 -25 47 -49q-24 -30 -47 -50zM424 -211q23 -19 45 -47q-21 -26 -45 -47q-33 25 -47 46q17 27 47 48z" />
    <glyph glyph-name="uniFB57" unicode="&#x67e;" horiz-adv-x="777" arabic-form="final" 
d="M847 11l-7 -1q-116 0 -166 78q-39 -46 -53 -55q-77 -23 -267 -23q-246 0 -246 168q0 96 71 203l12 -6q-37 -80 -37 -138q0 -146 219 -146q145 0 278 19l35 156l55 38l2 -1q-12 -144 -24 -184q40 -28 121 -28l7 -1v-79zM425 -138l-55 -55q-30 23 -49 49q18 26 50 50
q14 -9 55 -58q33 42 56 58q27 -21 48 -49q-25 -31 -47 -50q-43 44 -58 55zM426 -211q23 -19 45 -47q-19 -21 -45 -46q-33 25 -47 46q17 26 47 47z" />
    <glyph glyph-name="uniFB58" unicode="&#x67e;" horiz-adv-x="270" arabic-form="initial" 
d="M-7 10l-7 1v79l7 1q109 0 150 9q-14 105 -48 232l62 60h7l37 -102l-1 -5l-25 -26q13 -84 9 -123q-2 -17 -31 -61q-28 -46 -44 -54q-28 -11 -116 -11zM159 -194l-56 57q-29 -31 -56 -57q-36 30 -49 49q18 26 50 50q17 -13 55 -56q34 40 56 56q32 -25 47 -49
q-24 -30 -47 -50zM103 -211q23 -19 45 -47q-21 -26 -45 -47q-33 25 -47 46q17 27 47 48z" />
    <glyph glyph-name="uniFB59" unicode="&#x67e;" horiz-adv-x="298" arabic-form="medial" 
d="M298 11l-13 -1q-101 0 -156 72q-47 -57 -55 -62q-20 -10 -79 -10l-7 1v79l7 1q62 0 106 11l37 164l56 36q-9 -140 -24 -183q40 -28 121 -28l7 -1v-79zM138 -135l-57 -59q-36 30 -49 49q18 26 50 50q13 -11 55 -56q34 40 56 56q28 -22 47 -50q-23 -28 -47 -49
q-48 48 -55 59zM137 -212q27 -21 45 -47q-19 -21 -45 -46q-37 30 -47 46q17 27 47 47z" />
    <glyph glyph-name="uniFB5A" unicode="&#x680;" horiz-adv-x="763" arabic-form="isolated" 
d="M662 22q-28 -12 -318 -12q-246 0 -246 168q0 96 71 203l12 -6q-36 -83 -36 -138q0 -146 218 -146t335 8q-14 106 -48 233l61 60h7l36 -101l-1 -6l-24 -26q13 -79 8 -123q-1 -16 -30 -60t-45 -54zM485 -306q-37 28 -55 58q-21 -29 -56 -58q-34 26 -48 47q6 10 58 56
q-50 41 -58 56q11 13 49 47q31 -19 52 -57q31 35 59 57q31 -21 46 -46q-10 -18 -57 -57q52 -46 57 -56q-12 -20 -47 -47zM481 -203l-52 -51l-51 51l51 52z" />
    <glyph glyph-name="uniFB5B" unicode="&#x680;" horiz-adv-x="777" arabic-form="final" 
d="M847 11l-7 -1q-116 0 -166 78q-39 -46 -53 -55q-77 -23 -267 -23q-246 0 -246 168q0 96 71 203l12 -6q-37 -80 -37 -138q0 -146 219 -146q145 0 278 19l35 156l55 38l2 -1q-12 -144 -24 -184q40 -28 121 -28l7 -1v-79zM486 -307q-37 28 -55 57q-30 -38 -57 -57
q-27 22 -48 47l2 2q2 2 7 6.5t11.5 11l16.5 16.5l21 21q-47 41 -57 55l48 48q31 -24 54 -57q33 35 57 57q34 -28 47 -47q-10 -19 -57 -55l57 -58q-10 -16 -47 -47zM481 -203l-52 -52l-50 52l50 51z" />
    <glyph glyph-name="uniFB5C" unicode="&#x680;" horiz-adv-x="270" arabic-form="initial" 
d="M-70 10l-7 1v79l7 1q110 0 150 9q-14 105 -48 232l62 60h7l37 -102l-1 -5l-25 -26q14 -84 9 -123q-2 -17 -31 -61q-28 -46 -44 -54q-28 -11 -116 -11zM92 -307q-36 26 -55 59q-30 -42 -57 -59q-20 16 -54 56q-21 -29 -3 -15q17 13 67 63q-47 41 -57 55l48 48
q34 -27 53 -58q18 21 58 58q34 -28 47 -47l-56 -56q43 -40 56 -57q-15 -23 -47 -47zM87 -203l-52 -52l-50 52l50 51z" />
    <glyph glyph-name="uniFB5D" unicode="&#x680;" horiz-adv-x="298" arabic-form="medial" 
d="M298 11l-13 -1q-101 0 -156 72q-47 -57 -55 -62q-20 -10 -79 -10l-7 1v79l7 1q62 0 106 11l37 164l56 36q-9 -140 -24 -183q40 -28 121 -28l7 -1v-79zM199 -307q-37 28 -55 58q-21 -29 -56 -58q-34 26 -48 47q4 6 58 56q-43 34 -58 56l49 47q34 -28 53 -56q27 31 57 56
q32 -26 48 -47q-10 -15 -58 -56q37 -32 58 -56q-12 -21 -48 -47zM195 -204l-52 -52l-51 52l51 52z" />
    <glyph glyph-name="uniFB5E" unicode="&#x67a;" horiz-adv-x="763" arabic-form="isolated" 
d="M427 411q-31 25 -52 49q32 38 61 58q-33 25 -61 55q32 38 52 52q28 -20 51 -52q-16 -22 -59 -55q39 -30 59 -58q-24 -31 -51 -49zM662 22q-28 -12 -318 -12q-246 0 -246 168q0 96 71 203l12 -6q-36 -83 -36 -138q0 -146 218 -146t335 8q-14 106 -48 233l61 60h7l36 -101
l-1 -6l-24 -26q13 -79 8 -123q-1 -16 -30 -60t-45 -54z" />
    <glyph glyph-name="uniFB5F" unicode="&#x67a;" horiz-adv-x="777" arabic-form="final" 
d="M433 380q-31 25 -52 49q31 37 60 57q-28 24 -60 56q33 39 51 52q29 -20 52 -52q-16 -22 -59 -55q39 -30 59 -58q-24 -31 -51 -49zM847 11l-7 -1q-116 0 -166 78q-39 -46 -53 -55q-77 -23 -267 -23q-246 0 -246 168q0 96 71 203l12 -6q-37 -80 -37 -138q0 -146 219 -146
q145 0 278 19l35 156l55 38l2 -1q-12 -144 -24 -184q40 -28 121 -28l7 -1v-79z" />
    <glyph glyph-name="uniFB60" unicode="&#x67a;" horiz-adv-x="270" arabic-form="initial" 
d="M134 512q-33 27 -52 50q31 37 59 56q-48 44 -59 57q32 37 51 51q29 -20 52 -51q-9 -13 -59 -56q43 -32 59 -57q-22 -31 -51 -50zM-7 10l-7 1v79l7 1q109 0 150 9q-14 105 -48 232l62 60h7l37 -102l-1 -5l-25 -26q13 -84 9 -123q-2 -17 -31 -61q-28 -46 -44 -54
q-28 -11 -116 -11z" />
    <glyph glyph-name="uniFB61" unicode="&#x67a;" horiz-adv-x="298" arabic-form="medial" 
d="M157 419q-31 25 -52 49q31 38 60 57q-39 35 -60 56q32 38 52 52q28 -20 51 -52q-16 -22 -59 -55q39 -30 59 -58q-24 -31 -51 -49zM298 11l-13 -1q-101 0 -156 72q-47 -57 -55 -62q-20 -10 -79 -10l-7 1v79l7 1q62 0 106 11l37 164l56 36q-9 -140 -24 -183q40 -28 121 -28
l7 -1v-79z" />
    <glyph glyph-name="uniFB62" unicode="&#x67f;" horiz-adv-x="763" arabic-form="isolated" 
d="M474 380q-37 28 -55 58q-27 -35 -57 -58q-30 24 -47 47l57 57q-48 40 -57 54l48 48q34 -28 53 -56q38 42 58 56q34 -28 47 -47l-56 -56q49 -46 56 -56q-9 -15 -47 -47zM469 483l-52 -52l-50 52l50 52zM662 22q-28 -12 -318 -12q-246 0 -246 168q0 96 71 203l12 -6
q-36 -83 -36 -138q0 -146 218 -146t335 8q-14 106 -48 233l61 60h7l36 -101l-1 -6l-24 -26q13 -79 8 -123q-1 -16 -30 -60t-45 -54z" />
    <glyph glyph-name="uniFB63" unicode="&#x67f;" horiz-adv-x="777" arabic-form="final" 
d="M483 374q-30 22 -57 57q-24 -33 -55 -57q-30 24 -48 48q5 8 58 55q-51 45 -58 56q14 18 49 47q31 -19 52 -57q40 43 59 57q25 -17 47 -46q-9 -17 -58 -57q45 -40 58 -56q-9 -15 -47 -47zM478 477l-52 -51l-51 51l51 52zM847 11l-7 -1q-116 0 -166 78q-39 -46 -53 -55
q-77 -23 -267 -23q-246 0 -246 168q0 96 71 203l12 -6q-37 -80 -37 -138q0 -146 219 -146q145 0 278 19l35 156l55 38l2 -1q-12 -144 -24 -184q40 -28 121 -28l7 -1v-79z" />
    <glyph glyph-name="uniFB64" unicode="&#x67f;" horiz-adv-x="270" arabic-form="initial" 
d="M186 534q-32 23 -56 59q-29 -43 -55 -59q-36 26 -48 47q6 10 58 56q-48 41 -58 57l49 47q34 -27 53 -58q16 19 58 58q31 -25 47 -47q-10 -15 -58 -56q55 -52 58 -57q-20 -27 -48 -47zM182 638l-52 -52l-51 52l51 51zM-7 10l-7 1v79l7 1q109 0 150 9q-14 105 -48 232
l62 60h7l37 -102l-1 -5l-25 -26q13 -84 9 -123q-2 -17 -31 -61q-28 -46 -44 -54q-28 -11 -116 -11z" />
    <glyph glyph-name="uniFB65" unicode="&#x67f;" horiz-adv-x="298" arabic-form="medial" 
d="M211 430q-27 20 -56 57q-24 -33 -55 -57q-30 24 -48 48q5 8 58 55q-51 45 -58 56q14 18 49 47q28 -19 53 -56q30 33 58 56q29 -21 47 -46q-14 -20 -58 -57q45 -40 58 -56q-12 -21 -48 -47zM207 533l-52 -51l-51 51l51 52zM298 11l-13 -1q-101 0 -156 72q-47 -57 -55 -62
q-20 -10 -79 -10l-7 1v79l7 1q62 0 106 11l37 164l56 36q-9 -140 -24 -183q40 -28 121 -28l7 -1v-79z" />
    <glyph glyph-name="uniFB66" unicode="&#x679;" horiz-adv-x="763" arabic-form="isolated" 
d="M436 467q64 0 113 17q-30 69 -78 69q-46 0 -124 -84q80 -2 89 -2zM338 427l-63 49l-1 -4q11 -2 70 -3q6 31 12 43l-12 144l-7 22l36 36v-17l24 -41l-17 -18l-2 -52q0 -20 -72 -164q132 182 178 182q26 0 50 -33q25 -31 25 -64q0 -7 -18 -36q-15 -25 -25 -31
q-31 -19 -105 -19q-39 0 -73 6zM662 22q-28 -12 -318 -12q-246 0 -246 168q0 96 71 203l12 -6q-36 -83 -36 -138q0 -146 218 -146t335 8q-14 106 -48 233l61 60h7l36 -101l-1 -6l-24 -26q13 -79 8 -123q-1 -16 -30 -60t-45 -54z" />
    <glyph glyph-name="uniFB67" unicode="&#x679;" horiz-adv-x="777" arabic-form="final" 
d="M443 447q69 0 112 18q-30 68 -78 68q-46 0 -124 -84q80 -2 90 -2zM345 407l-64 49l-1 -4q10 -2 69 -3l15 24q-10 91 -13 163l-8 22l37 35l-1 1v-17l25 -41l-17 -18l-2 -52q0 -21 -73 -166q133 184 179 184q25 0 49 -33q25 -31 25 -64q0 -7 -18 -36q-18 -27 -24 -31
q-31 -19 -106 -19q-37 0 -72 6zM847 11l-7 -1q-116 0 -166 78q-39 -46 -53 -55q-77 -23 -267 -23q-246 0 -246 168q0 96 71 203l12 -6q-37 -80 -37 -138q0 -146 219 -146q145 0 278 19l35 156l55 38l2 -1q-12 -144 -24 -184q40 -28 121 -28l7 -1v-79z" />
    <glyph glyph-name="uniFB68" unicode="&#x679;" horiz-adv-x="304" arabic-form="initial" 
d="M168 565q69 0 113 19q-32 68 -78 68q-45 0 -124 -85q80 -2 89 -2zM70 525l-62 50l-2 -4l69 -4l15 24q-7 79 -13 163l-8 22l36 36v-17l24 -41l-17 -17l-1 -89q-7 -19 -15 -46q75 100 121 100q25 0 49 -33q25 -31 25 -63q0 -8 -18 -37q-15 -25 -25 -31q-28 -19 -105 -19
q-39 0 -73 6zM-5 10l-7 1v79l7 1q133 0 172 10q-13 109 -47 231l61 60h6l37 -102l-1 -5l-25 -25q13 -90 9 -124q-1 -16 -30 -61q-29 -43 -45 -54q-28 -11 -137 -11z" />
    <glyph glyph-name="uniFB69" unicode="&#x679;" horiz-adv-x="298" arabic-form="medial" 
d="M163 476q68 0 112 19q-32 68 -78 68q-45 0 -124 -85q80 -2 90 -2zM64 436l-63 50l-1 -4q32 -3 70 -4l5.5 9.5t5 8t3.5 5.5q-7 78 -13 165l-8 21l37 36l-1 1v-18l25 -41l-17 -17l-2 -53v-36q-7 -19 -15 -46q75 100 121 100q25 0 49 -33q25 -31 25 -63q0 -8 -18 -37
q-15 -25 -25 -31q-28 -19 -105 -19q-38 0 -73 6zM298 11l-13 -1q-101 0 -156 72q-47 -57 -55 -62q-20 -10 -79 -10l-7 1v79l7 1q62 0 106 11l37 164l56 36q-9 -140 -24 -183q40 -28 121 -28l7 -1v-79z" />
    <glyph glyph-name="uniFB6A" unicode="&#x6a4;" horiz-adv-x="746" arabic-form="isolated" 
d="M584 699q-25 19 -45 46q21 26 45 47q33 -25 47 -46q-18 -27 -47 -47zM689 632q-19 -28 -51 -50q-26 20 -54 57q-32 -41 -56 -57q-32 25 -47 49q24 30 47 50l49 -50l1 1l1 1l1 1l1 1l1 1l1 1l49 50q45 -38 57 -55zM569 232q52 0 117 17q-40 156 -115 156q-38 0 -70 -44
q-28 -37 -40 -94q47 -35 108 -35zM335 10q-247 0 -247 168q0 96 71 203l13 -7q-37 -80 -37 -137q0 -146 219 -146q222 0 340 12q4 33 4 49q0 41 -13 97l-39 -69q-36 -15 -85 -15q-65 0 -90 33q-28 40 -28 86q2 64 44 127q47 72 107 72t102 -94q40 -86 40 -198q0 -25 -5 -58
q-4 -19 -35 -59q-30 -40 -38 -43q-64 -21 -323 -21z" />
    <glyph glyph-name="uniFB6B" unicode="&#x6a4;" horiz-adv-x="807" arabic-form="final" 
d="M648 649q-23 19 -45 47q19 21 45 46q37 -30 47 -46q-17 -26 -47 -47zM753 582q-18 -26 -50 -50q-17 13 -55 56q-34 -40 -56 -56q-27 21 -48 49q20 25 48 50l56 -56l56 56q36 -30 49 -49zM655 109l15 7q31 17 64 53q-5 68 -32 118q-31 61 -75 61q-33 0 -71 -38
q-36 -34 -55 -86q57 -76 154 -115zM857 11l-7 -1h-46q-77 0 -162 41q-124 -59 -310 -59q-244 0 -244 166q0 96 71 203l13 -7q-37 -80 -37 -138q0 -142 216 -142q125 0 228 13q-68 54 -84 88q-17 39 -9 78q8 52 57 110q55 66 110 66q49 0 87 -65q38 -68 38 -151
q0 -46 -80 -120l42 -2h110l7 -1v-79z" />
    <glyph glyph-name="uniFB6C" unicode="&#x6a4;" horiz-adv-x="404" arabic-form="initial" 
d="M184 699q-25 19 -45 46q7 8 46 47q34 -27 46 -46q-17 -27 -47 -47zM289 632q-19 -28 -50 -50q-24 19 -55 57q-32 -41 -56 -57q-28 22 -47 50q23 28 47 49l50 -50l1 1l1 1l1 1l1 1l1 1l1 1l49 50q42 -34 56 -55zM110 10h-115l-7 1v79l7 1h157q91 0 150 13q4 20 4 48
q0 27 -11 98l-41 -70q-36 -15 -85 -15q-69 0 -89 33q-29 38 -29 86q2 64 44 127q47 72 107 72t102 -94q40 -86 40 -198q0 -33 -6 -58q-4 -23 -33 -63q-25 -36 -33 -38q-44 -22 -162 -22zM177 232q52 0 117 17q-40 156 -115 156q-38 0 -70 -44q-28 -37 -40 -94
q47 -35 108 -35z" />
    <glyph glyph-name="uniFB6D" unicode="&#x6a4;" horiz-adv-x="438" arabic-form="medial" 
d="M217 649q-23 19 -45 47q19 21 45 46q33 -25 47 -46q-18 -26 -47 -47zM321 582q-19 -28 -50 -50q-21 16 -54 57q-32 -40 -56 -57q-29 23 -48 50q23 27 47 49q53 -52 58 -55l54 55q36 -30 49 -49zM238 109l13 7q35 22 64 54q-4 66 -32 117q-31 61 -75 61q-33 0 -71 -38
q-36 -34 -55 -86q58 -76 156 -115zM438 11l-7 -1h-46q-81 0 -169 45q-82 -45 -171 -45h-50l-7 1v79l7 1h158q-62 53 -77 84q-16 39 -9 78q8 52 57 110q56 66 110 66q49 0 87 -65q38 -68 38 -151q0 -47 -81 -120l44 -2h109l7 -1v-79z" />
    <glyph glyph-name="uniFB6E" unicode="&#x6a6;" horiz-adv-x="746" arabic-form="isolated" 
d="M637 583q-37 28 -55 58q-27 -35 -57 -58q-29 23 -54 55q-21 -28 -3 -15q17 13 68 64q-49 39 -58 54l48 48q32 -23 54 -58q23 28 57 58q32 -24 47 -47q-11 -19 -57 -56q49 -46 57 -57q-14 -21 -47 -46zM633 686l-52 -52l-51 52l51 51zM569 232q52 0 117 17
q-40 156 -115 156q-38 0 -70 -44q-28 -37 -40 -94q47 -35 108 -35zM335 10q-247 0 -247 168q0 96 71 203l13 -7q-37 -80 -37 -137q0 -146 219 -146q222 0 340 12q4 33 4 49q0 41 -13 97l-39 -69q-36 -15 -85 -15q-65 0 -90 33q-28 40 -28 86q2 64 44 127q47 72 107 72
t102 -94q40 -86 40 -198q0 -25 -5 -58q-4 -19 -35 -59q-30 -40 -38 -43q-64 -21 -323 -21z" />
    <glyph glyph-name="uniFB6F" unicode="&#x6a6;" horiz-adv-x="807" arabic-form="final" 
d="M704 533q-37 28 -55 58q-27 -35 -57 -58q-27 22 -48 47l2 2q2 2 7 6.5t11.5 11l16.5 16.5l21 21q-48 41 -58 56l49 46q30 -20 54 -56q39 42 57 56q25 -17 47 -46l-56 -57q51 -48 56 -56q-10 -16 -47 -47zM699 636l-52 -51l-50 51l50 52zM657 109l15 7q31 17 64 53
q-5 68 -32 118q-31 61 -76 61q-33 0 -71 -38q-36 -34 -55 -86q58 -75 155 -115zM859 11l-8 -1h-45q-77 0 -162 41q-124 -59 -311 -59q-243 0 -243 166q0 96 71 203l13 -7q-37 -80 -37 -138q0 -142 215 -142q125 0 230 13q-69 54 -85 88q-17 39 -9 78q8 52 57 110
q55 66 110 66q48 0 86 -65q38 -68 38 -151q0 -48 -81 -120l44 -2h109l8 -1v-79z" />
    <glyph glyph-name="uniFB70" unicode="&#x6a6;" horiz-adv-x="404" arabic-form="initial" 
d="M240 583q-37 28 -55 58q-21 -29 -56 -58q-33 23 -48 47l58 57q-49 39 -58 55l49 47q34 -27 53 -58q16 19 58 58q30 -23 46 -47q-11 -19 -57 -56q50 -46 57 -57q-14 -21 -47 -46zM236 686l-52 -52l-51 52l51 51zM110 10h-115l-7 1v79l7 1h157q91 0 150 13q4 20 4 48
q0 27 -11 98l-41 -70q-36 -15 -85 -15q-69 0 -89 33q-29 38 -29 86q2 64 44 127q47 72 107 72t102 -94q40 -86 40 -198q0 -33 -6 -58q-4 -23 -33 -63q-25 -36 -33 -38q-44 -22 -162 -22zM177 232q52 0 117 17q-40 156 -115 156q-38 0 -70 -44q-28 -37 -40 -94
q47 -35 108 -35z" />
    <glyph glyph-name="uniFB71" unicode="&#x6a6;" horiz-adv-x="438" arabic-form="medial" 
d="M272 533q-30 23 -57 57q-24 -33 -55 -57q-30 24 -48 48q5 8 58 55q-48 41 -58 57q10 12 49 46q31 -19 52 -57q40 43 59 57q25 -17 47 -46q-9 -17 -58 -57q45 -40 58 -56q-10 -16 -47 -47zM267 636l-52 -51l-51 51l51 52zM238 109l13 7q35 22 64 54q-4 66 -32 117
q-31 61 -75 61q-33 0 -71 -38q-36 -34 -55 -86q58 -76 156 -115zM438 11l-7 -1h-46q-81 0 -169 45q-82 -45 -171 -45h-50l-7 1v79l7 1h158q-62 53 -77 84q-16 39 -9 78q8 52 57 110q56 66 110 66q49 0 87 -65q38 -68 38 -151q0 -47 -81 -120l44 -2h109l7 -1v-79z" />
    <glyph glyph-name="uniFB72" unicode="&#x684;" horiz-adv-x="616" arabic-form="isolated" 
d="M640 -196l1 -6q-145 -94 -208 -94q-124 0 -209 49q-72 40 -91 95q-23 60 -20 115q22 145 199 245q25 12 95 19l5 23q-64 6 -138 21q-69 15 -99 17l-75 -66l-8 7q70 132 100 132q15 0 133 -23q121 -23 193 -23h97l-28 -71h-45q-148 -34 -302 -160q-86 -74 -104 -159
q74 -131 338 -131q67 0 166 10zM399 -120q-27 19 -48 49q17 25 57 52q-40 30 -57 54q21 29 47 47q28 -23 49 -47q-23 -28 -56 -53q42 -39 56 -53q-30 -37 -48 -49z" />
    <glyph glyph-name="uniFB73" unicode="&#x684;" horiz-adv-x="632" arabic-form="final" 
d="M640 -196l1 -6q-145 -94 -208 -94q-124 0 -209 49q-72 40 -91 95q-23 60 -20 115q22 145 199 245q25 12 95 19l5 23q-64 6 -138 21q-69 15 -99 17l-75 -66l-8 7q70 132 100 132q15 0 133 -23q121 -23 193 -23h97l-28 -71l-51 1q-6 -82 10 -113q21 -41 86 -41h45l7 -1v-79
l-7 -1h-48q-85 0 -109 62q-22 55 8 169q-156 -49 -288 -157q-86 -74 -104 -159q74 -131 338 -131q67 0 166 10zM400 -120q-27 19 -48 49q17 25 57 52q-41 30 -57 54q21 29 47 47q28 -23 49 -47q-23 -28 -56 -53q42 -39 56 -53q-30 -37 -48 -49z" />
    <glyph glyph-name="uniFB74" unicode="&#x684;" horiz-adv-x="641" arabic-form="initial" 
d="M72 10h-77l-7 1v79l7 1h115q111 0 213 45q55 26 99 39q-84 28 -148 63l-127 72l-89 -61l-10 11q81 115 124 115q8 0 142 -74q112 -64 193 -64h75l-28 -69h-73q-18 -3 -187 -99q-98 -59 -222 -59zM415 -207q-29 20 -52 52q22 27 61 55q-36 26 -61 58q24 31 51 49
q31 -25 52 -49q-32 -38 -59 -57q50 -45 59 -56q-34 -40 -51 -52z" />
    <glyph glyph-name="uniFB75" unicode="&#x684;" horiz-adv-x="648" arabic-form="medial" 
d="M72 10h-77l-7 1v79l7 1h115q116 0 214 46q63 27 98 38q-83 28 -148 63l-127 72l-89 -61l-10 11q81 115 124 115q8 0 142 -74q112 -64 193 -64h73l-29 -69l-52 -4q1 -73 73 -73h69l7 -1v-79l-7 -1h-73q-108 0 -83 157q-33 -8 -191 -98q-98 -59 -222 -59zM349 -216
q-28 20 -51 52q9 13 59 56q-43 32 -59 57q24 31 51 49q31 -25 52 -49q-27 -33 -61 -56q47 -41 61 -57q-32 -38 -52 -52z" />
    <glyph glyph-name="uniFB76" unicode="&#x683;" horiz-adv-x="616" arabic-form="isolated" 
d="M640 -196l1 -6q-145 -94 -208 -94q-124 0 -209 49q-72 40 -91 95q-23 60 -20 115q22 145 199 245q25 12 95 19l5 23q-64 6 -138 21q-69 15 -99 17l-75 -66l-8 7q70 132 100 132q15 0 133 -23q121 -23 193 -23h97l-28 -71h-45q-148 -34 -302 -160q-86 -74 -104 -159
q74 -131 338 -131q67 0 166 10zM502 1q-19 -28 -50 -50q-17 12 -55 57q-30 -39 -55 -57q-29 23 -48 50q30 35 48 49q35 -29 55 -59q34 42 55 59q36 -28 50 -49z" />
    <glyph glyph-name="uniFB77" unicode="&#x683;" horiz-adv-x="632" arabic-form="final" 
d="M640 -196l1 -6q-145 -94 -208 -94q-124 0 -209 49q-72 40 -91 95q-23 60 -20 115q22 145 199 245q25 12 95 19l5 23q-64 6 -138 21q-69 15 -99 17l-75 -66l-8 7q70 132 100 132q15 0 133 -23q121 -23 193 -23h97l-28 -71l-51 1q-6 -82 10 -113q21 -41 86 -41h45l7 -1v-79
l-7 -1h-48q-85 0 -109 62q-22 55 8 169q-156 -49 -288 -157q-86 -74 -104 -159q74 -131 338 -131q67 0 166 10zM478 -9q-19 -28 -50 -50q-7 6 -55 57q-30 -40 -54 -57q-30 22 -48 49q23 28 48 50q35 -30 54 -57q42 45 55 57q36 -28 50 -49z" />
    <glyph glyph-name="uniFB78" unicode="&#x683;" horiz-adv-x="641" arabic-form="initial" 
d="M72 10h-77l-7 1v79l7 1h115q111 0 213 45q55 26 99 39q-84 28 -148 63l-127 72l-89 -61l-10 11q81 115 124 115q8 0 142 -74q112 -64 193 -64h75l-28 -69h-73q-18 -3 -187 -99q-98 -59 -222 -59zM488 -63q-20 -29 -52 -52q-21 17 -56 59q-32 -43 -57 -59q-31 24 -49 51
q25 31 49 52q38 -32 57 -59q45 50 56 59q39 -33 52 -51z" />
    <glyph glyph-name="uniFB79" unicode="&#x683;" horiz-adv-x="648" arabic-form="medial" 
d="M72 10h-77l-7 1v79l7 1h115q116 0 214 46q63 27 98 38q-83 28 -148 63l-127 72l-89 -61l-10 11q81 115 124 115q8 0 142 -74q112 -64 193 -64h73l-29 -69l-52 -4q1 -73 73 -73h69l7 -1v-79l-7 -1h-73q-108 0 -83 157q-33 -8 -191 -98q-98 -59 -222 -59zM436 -78
q-20 -29 -52 -52q-21 17 -56 59q-32 -43 -57 -59q-31 24 -49 51q25 31 49 52q37 -31 57 -60q30 38 56 60q39 -33 52 -51z" />
    <glyph glyph-name="uniFB7A" unicode="&#x686;" horiz-adv-x="616" arabic-form="isolated" 
d="M640 -196l1 -6q-145 -94 -208 -94q-124 0 -209 49q-72 40 -91 95q-23 60 -20 115q22 145 199 245q25 12 95 19l5 23q-64 6 -138 21q-69 15 -99 17l-75 -66l-8 7q70 132 100 132q15 0 133 -23q121 -23 193 -23h97l-28 -71h-45q-148 -34 -302 -160q-86 -74 -104 -159
q74 -131 338 -131q67 0 166 10zM457 -22q-44 44 -51 56l-55 -56q-34 28 -46 46q22 28 47 47q26 -21 52 -55q32 40 53 55q30 -24 44 -46q-23 -29 -44 -47zM404 -40q24 -18 42 -43q-17 -19 -42 -44q-35 28 -44 43q16 25 44 44z" />
    <glyph glyph-name="uniFB7B" unicode="&#x686;" horiz-adv-x="632" arabic-form="final" 
d="M640 -196l1 -6q-145 -94 -208 -94q-124 0 -209 49q-72 40 -91 95q-23 60 -20 115q22 145 199 245q25 12 95 19l5 23q-64 6 -138 21q-69 15 -99 17l-75 -66l-8 7q70 132 100 132q15 0 133 -23q121 -23 193 -23h97l-28 -71l-51 1q-6 -82 10 -113q21 -41 86 -41h45l7 -1v-79
l-7 -1h-48q-85 0 -109 62q-22 55 8 169q-156 -49 -288 -157q-86 -74 -104 -159q74 -131 338 -131q67 0 166 10zM436 -24l-53 54l-52 -54q-34 28 -46 46q20 27 47 46q20 -14 51 -54q32 40 53 55q30 -24 44 -46q-22 -28 -44 -47zM383 -42q24 -18 42 -43q-17 -19 -42 -44
q-30 24 -44 43q15 23 44 44z" />
    <glyph glyph-name="uniFB7C" unicode="&#x686;" horiz-adv-x="641" arabic-form="initial" 
d="M72 10h-77l-7 1v79l7 1h115q111 0 213 45q55 26 99 39q-84 28 -148 63l-127 72l-89 -61l-10 11q81 115 124 115q8 0 142 -74q112 -64 193 -64h75l-28 -69h-73q-18 -3 -187 -99q-98 -59 -222 -59zM385 -37l-57 -59q-36 30 -49 49q18 26 50 50q17 -13 55 -56q34 40 56 56
q32 -25 47 -49q-24 -30 -47 -50q-48 48 -55 59zM384 -114q27 -21 45 -47q-19 -21 -45 -46q-37 30 -47 46q17 27 47 47z" />
    <glyph glyph-name="uniFB7D" unicode="&#x686;" horiz-adv-x="648" arabic-form="medial" 
d="M72 10h-77l-7 1v79l7 1h115q116 0 214 46q63 27 98 38q-83 28 -148 63l-127 72l-89 -61l-10 11q81 115 124 115q8 0 142 -74q112 -64 193 -64h73l-29 -69l-52 -4q1 -73 73 -73h69l7 -1v-79l-7 -1h-73q-108 0 -83 157q-33 -8 -191 -98q-98 -59 -222 -59zM396 -111l-49 50
l-1 -1l-1 -1l-1 -1l-1 -1l-1 -1l-1 -1l-49 -50q-42 34 -56 55q19 28 50 50q21 -16 54 -57q32 40 56 57q27 -21 48 -49q-29 -33 -48 -50zM340 -129q25 -19 45 -46q-21 -26 -45 -47q-33 25 -47 46q18 27 47 47z" />
    <glyph glyph-name="uniFB7E" unicode="&#x687;" horiz-adv-x="616" arabic-form="isolated" 
d="M640 -196l1 -6q-145 -94 -208 -94q-124 0 -209 49q-72 40 -91 95q-23 60 -20 115q22 145 199 245q25 12 95 19l5 23q-64 6 -138 21q-69 15 -99 17l-75 -66l-8 7q70 132 100 132q15 0 133 -23q121 -23 193 -23h97l-28 -71h-45q-148 -34 -302 -160q-86 -74 -104 -159
q74 -131 338 -131q67 0 166 10zM468 -114q-34 25 -52 55q-27 -35 -54 -56q-28 21 -45 45q8 11 55 53q-45 39 -55 53l46 45q34 -28 51 -55q23 28 54 56q36 -30 45 -45q-12 -18 -55 -52q48 -46 55 -55q-14 -22 -45 -44zM464 -16l-50 -50l-48 50l48 49z" />
    <glyph glyph-name="uniFB7F" unicode="&#x687;" horiz-adv-x="632" arabic-form="final" 
d="M640 -196l1 -6q-145 -94 -208 -94q-124 0 -209 49q-72 40 -91 95q-23 60 -20 115q22 145 199 245q25 12 95 19l5 23q-64 6 -138 21q-69 15 -99 17l-75 -66l-8 7q70 132 100 132q15 0 133 -23q121 -23 193 -23h97l-28 -71l-51 1q-6 -82 10 -113q21 -41 86 -41h45l7 -1v-79
l-7 -1h-48q-85 0 -109 62q-22 55 8 169q-156 -49 -288 -157q-86 -74 -104 -159q74 -131 338 -131q67 0 166 10zM431 -124q-29 23 -52 53q-25 -35 -52 -53q-32 26 -44 43q20 21 55 52q-47 41 -54 52l44 44q30 -22 50 -55q31 35 53 55q32 -26 44 -43l-53 -53q49 -46 53 -52
q-11 -18 -44 -43zM427 -29l-48 -48l-48 48l48 48z" />
    <glyph glyph-name="uniFB80" unicode="&#x687;" horiz-adv-x="641" arabic-form="initial" 
d="M72 10h-77l-7 1v79l7 1h115q111 0 213 45q55 26 99 39q-84 28 -148 63l-127 72l-89 -61l-10 11q81 115 124 115q8 0 142 -74q112 -64 193 -64h75l-28 -69h-73q-18 -3 -187 -99q-98 -59 -222 -59zM438 -204q-34 26 -54 58q-26 -34 -56 -58q-30 24 -47 47q5 7 57 56
q-44 37 -58 56l49 47q27 -21 53 -58q14 18 57 58q28 -22 46 -47q-11 -19 -57 -56q52 -46 57 -56q-12 -21 -47 -47zM434 -101l-52 -51l-50 51l50 51z" />
    <glyph glyph-name="uniFB81" unicode="&#x687;" horiz-adv-x="648" arabic-form="medial" 
d="M72 10h-77l-7 1v79l7 1h115q116 0 214 46q63 27 98 38q-83 28 -148 63l-127 72l-89 -61l-10 11q81 115 124 115q8 0 142 -74q112 -64 193 -64h73l-29 -69l-52 -4q1 -73 73 -73h69l7 -1v-79l-7 -1h-73q-108 0 -83 157q-33 -8 -191 -98q-98 -59 -222 -59zM387 -219
q-34 26 -54 58q-26 -34 -56 -58q-27 22 -48 47q7 9 58 56q-44 37 -58 56l49 47q34 -28 52 -58q16 19 58 58q28 -22 46 -47q-11 -19 -57 -56q52 -46 57 -56q-12 -20 -47 -47zM383 -116l-52 -51l-50 51l50 51z" />
    <glyph glyph-name="uniFB82" unicode="&#x68d;" horiz-adv-x="445" arabic-form="isolated" 
d="M206 10q-118 0 -118 88q0 56 29 112l13 -4q-8 -29 -8 -50q0 -34 19 -47q24 -18 90 -18q97 0 180 11q-55 145 -161 286l47 74h6q137 -218 137 -328q0 -14 -27 -60q-26 -47 -37 -51q-29 -13 -170 -13zM383 -155q-20 -29 -52 -52q-21 17 -56 59q-32 -43 -57 -59
q-31 24 -49 51q25 31 49 52q38 -32 57 -60q30 38 56 60q39 -33 52 -51z" />
    <glyph glyph-name="uniFB83" unicode="&#x68d;" horiz-adv-x="484" arabic-form="final" 
d="M534 11l-19 -1q-72 0 -118 85l-54 -72q-35 -13 -137 -13q-118 0 -118 88q0 56 29 112l13 -4q-8 -29 -8 -50q0 -34 19 -47q24 -18 90 -18q52 0 147 5q10 -4 -4 42q-21 67 -99 257l53 67h6l74 -237q33 -96 45 -111q20 -23 74 -23l7 -1v-79zM387 -155q-20 -29 -52 -52
q-21 17 -56 59q-32 -43 -57 -59q-31 24 -49 51q25 31 49 52q38 -32 57 -60q30 38 56 60q39 -33 52 -51z" />
    <glyph glyph-name="uniFB84" unicode="&#x68c;" horiz-adv-x="445" arabic-form="isolated" 
d="M383 636q-20 -29 -52 -52q-22 16 -55 59q-30 -39 -58 -59q-31 24 -49 51q25 31 49 52q38 -32 57 -59q45 50 56 59q40 -34 52 -51zM206 10q-118 0 -118 88q0 56 29 112l13 -4q-8 -29 -8 -50q0 -34 19 -47q24 -18 90 -18q97 0 180 11q-55 145 -161 286l47 74h6
q137 -218 137 -328q0 -14 -27 -60q-26 -47 -37 -51q-29 -13 -170 -13z" />
    <glyph glyph-name="uniFB85" unicode="&#x68c;" horiz-adv-x="484" arabic-form="final" 
d="M402 636q-20 -29 -52 -52q-13 9 -56 59q-32 -43 -57 -59q-31 22 -50 51q20 25 50 52q37 -31 56 -59q42 47 57 59q39 -33 52 -51zM534 11l-19 -1q-72 0 -118 85l-54 -72q-35 -13 -137 -13q-118 0 -118 88q0 56 29 112l13 -4q-8 -29 -8 -50q0 -34 19 -47q24 -18 90 -18
q52 0 147 5q10 -4 -4 42q-21 67 -99 257l53 67h6l74 -237q33 -96 45 -111q20 -23 74 -23l7 -1v-79z" />
    <glyph glyph-name="uniFB86" unicode="&#x68e;" horiz-adv-x="445" arabic-form="isolated" 
d="M285 692q-25 19 -45 46q8 9 46 47q34 -27 46 -46q-17 -27 -47 -47zM390 625q-19 -28 -50 -50q-26 19 -54 57q-32 -40 -57 -57q-28 22 -47 50q23 28 47 49l50 -50l1 1l1 1l1 1l1 1l1 1l1 1l49 50q42 -34 56 -55zM206 10q-118 0 -118 88q0 56 29 112l13 -4q-8 -29 -8 -50
q0 -34 19 -47q24 -18 90 -18q97 0 180 11q-55 145 -161 286l47 74h6q137 -218 137 -328q0 -14 -27 -60q-26 -47 -37 -51q-29 -13 -170 -13z" />
    <glyph glyph-name="uniFB87" unicode="&#x68e;" horiz-adv-x="467" arabic-form="final" 
d="M279 687q-25 19 -45 46q21 26 45 47q33 -27 46 -46q-17 -28 -46 -47zM383 620q-19 -28 -50 -50q-21 16 -54 57q-31 -39 -57 -57q-28 22 -47 50q23 28 47 49l58 -58q51 82 42 74l-3 -3q49 -41 64 -62zM501 11l-19 -1q-72 0 -118 85l-54 -72q-30 -13 -137 -13
q-117 0 -117 88q0 53 28 112l13 -4q-8 -29 -8 -50q0 -34 19 -47q24 -18 91 -18q69 0 164 6l-121 298l53 67h6l75 -237q32 -96 45 -111q18 -23 73 -23l7 -1v-79z" />
    <glyph glyph-name="uniFB88" unicode="&#x688;" horiz-adv-x="445" arabic-form="isolated" 
d="M188 618h91q69 0 112 18q-30 68 -78 68q-45 0 -125 -86zM181 578l-64 49l-1 -4q10 -1 69 -3l15 24l-13 163l-8 22l38 35l-2 1v-18l25 -40l-17 -18l-2 -52q0 -21 -69 -157q130 175 175 175q25 0 49 -33q25 -31 25 -64q0 -9 -18 -36t-24 -31q-31 -19 -105 -19q-38 0 -73 6z
M206 10q-118 0 -118 88q0 56 29 112l13 -4q-8 -29 -8 -50q0 -34 19 -47q24 -18 90 -18q97 0 180 11q-55 145 -161 286l47 74h6q137 -218 137 -328q0 -14 -27 -60q-26 -47 -37 -51q-29 -13 -170 -13z" />
    <glyph glyph-name="uniFB89" unicode="&#x688;" horiz-adv-x="484" arabic-form="final" 
d="M224 618h90q70 0 113 18q-30 68 -78 68q-45 0 -125 -86zM216 578l-63 49l-1 -4q10 -1 69 -3l15 24q-10 84 -13 163l-8 22l37 35l-1 1v-18l24 -40l-17 -18l-1 -88q-13 -34 -16 -49q76 103 122 103q25 0 49 -33q25 -31 25 -64q0 -9 -18 -36q-15 -25 -25 -31
q-28 -19 -105 -19q-38 0 -73 6zM534 11l-19 -1q-72 0 -118 85l-54 -72q-35 -13 -137 -13q-118 0 -118 88q0 56 29 112l13 -4q-8 -29 -8 -50q0 -34 19 -47q24 -18 90 -18q52 0 147 5q10 -4 -4 42q-21 67 -99 257l53 67h6l74 -237q33 -96 45 -111q20 -23 74 -23l7 -1v-79z" />
    <glyph glyph-name="uniFB8A" unicode="&#x698;" horiz-adv-x="332" arabic-form="isolated" 
d="M125 587q-23 19 -45 47q19 21 45 46q33 -27 46 -46q-16 -24 -46 -47zM229 520q-19 -28 -50 -50q-21 16 -54 57q-31 -39 -57 -57q-28 22 -47 50q24 28 47 49q53 -52 58 -55l54 55q36 -30 49 -49zM57 -183q-16 0 -80 34q-58 31 -69 40l6 13q55 -11 79 -11q78 0 141 69
q46 51 72 125l-100 197l58 72h5q60 -186 59 -201q1 -3 1 -116q-3 -56 -56 -136q-59 -86 -116 -86z" />
    <glyph glyph-name="uniFB8B" unicode="&#x698;" horiz-adv-x="372" arabic-form="final" 
d="M147 541q-23 19 -45 47q19 21 45 46q37 -30 47 -46q-17 -26 -47 -47zM252 474q-18 -26 -50 -50q-14 9 -55 58q-33 -42 -56 -58q-27 21 -48 49q20 25 48 50l56 -56l56 56q30 -23 49 -49zM51 -183q-15 0 -76 34q-48 26 -67 40l6 13q36 -10 72 -10q139 0 196 168
q17 -2 -58 167l58 69l21 -87q19 -77 39 -96q22 -24 83 -24l7 -1v-79l-18 -1q-42 0 -101 51q-8 -85 -51 -158q-53 -86 -111 -86z" />
    <glyph glyph-name="uniFB8C" unicode="&#x691;" horiz-adv-x="332" arabic-form="isolated" 
d="M49 511l90 -1q70 0 112 19q-29 68 -77 68q-45 0 -125 -86zM41 471l-63 49l-1 -4q12 -1 68 -4l15 24l-6 70q-7 77 -7 94l-8 22l38 35l-2 1v-18l25 -41l-17 -17l-2 -53q0 -19 -69 -156q130 175 175 175q25 0 50 -33q25 -31 25 -64q0 -9 -18 -37q-17 -26 -25 -30
q-31 -19 -105 -19q-38 0 -73 6zM57 -183q-16 0 -80 34q-58 31 -69 40l6 13q55 -11 79 -11q78 0 141 69q46 51 72 125l-100 197l58 72h5q60 -186 59 -201q1 -3 1 -116q-3 -56 -56 -136q-59 -86 -116 -86z" />
    <glyph glyph-name="uniFB8D" unicode="&#x691;" horiz-adv-x="372" arabic-form="final" 
d="M155 463q70 0 112 19q-29 68 -77 68q-45 0 -124 -85q80 -2 89 -2zM57 423l-62 50l-2 -4l70 -4q6 31 12 43l-12 144l-8 22l38 35l-2 2v-18l25 -41l-17 -17l-2 -53q0 -7 -47 -127q108 145 153 145q25 0 50 -33q25 -31 25 -63q0 -8 -18 -37q-15 -25 -25 -31
q-31 -19 -105 -19q-38 0 -73 6zM51 -183q-15 0 -76 34q-48 26 -67 40l6 13q36 -10 72 -10q139 0 196 168q17 -2 -58 167l58 69l21 -87q19 -77 39 -96q22 -24 83 -24l7 -1v-79l-18 -1q-42 0 -101 51q-8 -85 -51 -158q-53 -86 -111 -86z" />
    <glyph glyph-name="uniFB8E" unicode="&#x6a9;" horiz-adv-x="765" arabic-form="isolated" 
d="M335 10q-247 0 -247 168q0 96 71 203l13 -7q-37 -80 -37 -137q0 -146 219 -146q218 0 346 8q-36 97 -228 217l-17 -17l-72 51l16 57q18 58 24 61l340 196l-17 -88l-304 -157q150 -82 226 -166q62 -68 62 -111q0 -9 -27 -57q-27 -49 -38 -57q-31 -18 -330 -18z" />
    <glyph glyph-name="uniFB8F" unicode="&#x6a9;" horiz-adv-x="851" arabic-form="final" 
d="M901 11l-22 -1q-66 0 -110 29q-29 19 -93 99q-57 -106 -73 -112q-35 -16 -269 -16q-246 0 -246 170q0 90 69 197l11 -7q-36 -82 -36 -138q0 -141 221 -141q170 0 280 8q3 62 -47 139l-96 138q-2 7 14 49q16 46 23 48l294 196l-17 -89l-256 -161l122 -175q56 -82 103 -119
q43 -34 106 -34l22 -1v-79z" />
    <glyph glyph-name="uniFB90" unicode="&#x6a9;" horiz-adv-x="469" arabic-form="initial" 
d="M133 10h-138l-7 1v79l7 1h150q155 0 207 16q-41 94 -226 209l-18 -17l-71 51l16 57q18 58 24 61l340 196l-17 -88l-304 -157q150 -82 226 -166q61 -67 61 -111q0 -7 -20 -56q-21 -47 -31 -54q-28 -22 -199 -22z" />
    <glyph glyph-name="uniFB91" unicode="&#x6a9;" horiz-adv-x="452" arabic-form="medial" 
d="M31 10h-36l-7 1v79l7 1h59q95 0 131 10q3 60 -47 137l-96 138q-2 7 14 49q16 46 23 48l294 196l-17 -89l-256 -161l122 -175q56 -82 103 -119q43 -34 106 -34l21 -1v-79l-21 -1q-66 0 -110 29q-28 19 -95 101q-58 -109 -74 -115q-30 -15 -121 -15z" />
    <glyph glyph-name="uniFB92" unicode="&#x6af;" horiz-adv-x="765" arabic-form="isolated" 
d="M402 538l4 49l332 185l-3 5l-4 -32l-340 -189zM335 10q-247 0 -247 168q0 96 71 203l13 -7q-37 -80 -37 -137q0 -146 219 -146q218 0 346 8q-36 97 -228 217l-17 -17l-72 51l16 57q18 58 24 61l340 196l-17 -88l-304 -157q150 -82 226 -166q62 -68 62 -111q0 -9 -27 -57
q-27 -49 -38 -57q-31 -18 -330 -18z" />
    <glyph glyph-name="uniFB93" unicode="&#x6af;" horiz-adv-x="851" arabic-form="final" 
d="M482 526l4 49l331 211l-10 18l-6 -49l-330 -211zM901 11l-22 -1q-66 0 -110 29q-29 19 -93 99q-57 -106 -73 -112q-35 -16 -269 -16q-246 0 -246 170q0 90 69 197l11 -7q-36 -82 -36 -138q0 -141 221 -141q170 0 280 8q3 62 -47 139l-96 138q-2 7 14 49q16 46 23 48
l294 196l-17 -89l-256 -161l122 -175q56 -82 103 -119q43 -34 106 -34l22 -1v-79z" />
    <glyph glyph-name="uniFB94" unicode="&#x6af;" horiz-adv-x="469" arabic-form="initial" 
d="M56 537l4 50l340 189l-10 18l-6 -49l-339 -189zM133 10h-138l-7 1v79l7 1h150q155 0 207 16q-41 94 -226 209l-18 -17l-71 51l16 57q18 58 24 61l340 196l-17 -88l-304 -157q150 -82 226 -166q61 -67 61 -111q0 -7 -20 -56q-21 -47 -31 -54q-28 -22 -199 -22z" />
    <glyph glyph-name="uniFB95" unicode="&#x6af;" horiz-adv-x="452" arabic-form="medial" 
d="M33 526l4 49l331 211l-10 18l-6 -49l-330 -211zM31 10h-36l-7 1v79l7 1h59q95 0 131 10q3 60 -47 137l-96 138q-2 7 14 49q16 46 23 48l294 196l-17 -89l-256 -161l122 -175q56 -82 103 -119q43 -34 106 -34l21 -1v-79l-21 -1q-66 0 -110 29q-28 19 -95 101
q-58 -109 -74 -115q-30 -15 -121 -15z" />
    <glyph glyph-name="uniFB96" unicode="&#x6b3;" horiz-adv-x="765" arabic-form="isolated" 
d="M402 538l4 49l332 185l-3 5l-4 -32l-340 -189zM335 10q-247 0 -247 168q0 96 71 203l13 -7q-37 -80 -37 -137q0 -146 219 -146q218 0 346 8q-36 97 -228 217l-17 -17l-72 51l16 57q18 58 24 61l340 196l-17 -88l-304 -157q150 -82 226 -166q62 -68 62 -111q0 -9 -27 -57
q-27 -49 -38 -57q-31 -18 -330 -18zM411 -292q-17 14 -53 50q27 33 61 56q-47 41 -61 57q31 37 52 51q28 -20 51 -51q-9 -13 -59 -56q43 -32 59 -57q-22 -31 -50 -50z" />
    <glyph glyph-name="uniFB97" unicode="&#x6b3;" horiz-adv-x="851" arabic-form="final" 
d="M481 529l4 46l332 212l-11 14l-5 -46l-331 -212zM901 11l-22 -1q-66 0 -110 29q-29 19 -93 99q-57 -106 -73 -112q-35 -16 -269 -16q-246 0 -246 170q0 90 69 197l11 -7q-36 -82 -36 -138q0 -141 221 -141q170 0 280 8q3 62 -47 139l-96 138q-2 7 14 49q16 46 23 48
l294 196l-17 -89l-256 -161l122 -175q56 -82 103 -119q43 -34 106 -34l22 -1v-79zM406 -291q-31 25 -52 49q32 38 59 57q-45 41 -59 56q34 40 51 52q28 -18 52 -52q-16 -22 -59 -55q39 -30 59 -58q-24 -31 -51 -49z" />
    <glyph glyph-name="uniFB98" unicode="&#x6b3;" horiz-adv-x="469" arabic-form="initial" 
d="M56 537l4 50l340 189l-10 18l-6 -49l-339 -189zM133 10h-138l-7 1v79l7 1h150q155 0 207 16q-41 94 -226 209l-18 -17l-71 51l16 57q18 58 24 61l340 196l-17 -88l-304 -157q150 -82 226 -166q61 -67 61 -111q0 -7 -20 -56q-21 -47 -31 -54q-28 -22 -199 -22zM212 -291
q-31 25 -52 49q32 38 60 57q-38 30 -60 56q33 39 51 52q29 -20 52 -52q-19 -24 -59 -55q38 -30 59 -58q-24 -31 -51 -49z" />
    <glyph glyph-name="uniFB99" unicode="&#x6b3;" horiz-adv-x="452" arabic-form="medial" 
d="M33 526l4 49l331 211l-10 18l-6 -49l-330 -211zM31 10h-36l-7 1v79l7 1h59q95 0 131 10q3 60 -47 137l-96 138q-2 7 14 49q16 46 23 48l294 196l-17 -89l-256 -161l122 -175q56 -82 103 -119q43 -34 106 -34l21 -1v-79l-21 -1q-66 0 -110 29q-28 19 -95 101
q-58 -109 -74 -115q-30 -15 -121 -15zM223 -280q-31 25 -52 49q31 37 59 56q-47 42 -59 57q33 39 51 52q29 -20 52 -52q-22 -27 -61 -55q36 -26 61 -58q-24 -31 -51 -49z" />
    <glyph glyph-name="uniFB9A" unicode="&#x6b1;" horiz-adv-x="765" arabic-form="isolated" 
d="M690 848q-20 -29 -52 -52q-22 16 -55 59q-30 -39 -58 -59q-31 24 -49 51q25 31 49 52q38 -32 57 -59q45 50 56 59q40 -34 52 -51zM402 538l4 49l332 185l-3 5l-4 -32l-340 -189zM335 10q-247 0 -247 168q0 96 71 203l13 -7q-37 -80 -37 -137q0 -146 219 -146q218 0 346 8
q-36 97 -228 217l-17 -17l-72 51l16 57q18 58 24 61l340 196l-17 -88l-304 -157q150 -82 226 -166q62 -68 62 -111q0 -9 -27 -57q-27 -49 -38 -57q-31 -18 -330 -18z" />
    <glyph glyph-name="uniFB9B" unicode="&#x6b1;" horiz-adv-x="851" arabic-form="final" 
d="M743 848q-20 -29 -52 -52q-22 16 -55 59q-30 -39 -58 -59q-31 24 -49 51q25 31 49 52q38 -32 57 -59q45 50 56 59q40 -34 52 -51zM481 529l4 46l332 212l-11 14l-5 -46l-331 -212zM901 11l-22 -1q-66 0 -110 29q-29 19 -93 99q-57 -106 -73 -112q-35 -16 -269 -16
q-246 0 -246 170q0 90 69 197l11 -7q-36 -82 -36 -138q0 -141 221 -141q170 0 280 8q3 62 -47 139l-96 138q-2 7 14 49q16 46 23 48l294 196l-17 -89l-256 -161l122 -175q56 -82 103 -119q43 -34 106 -34l22 -1v-79z" />
    <glyph glyph-name="uniFB9C" unicode="&#x6b1;" horiz-adv-x="469" arabic-form="initial" 
d="M323 848q-20 -29 -52 -52q-22 16 -55 59q-30 -39 -58 -59q-31 24 -49 51q25 31 49 52q38 -32 57 -59q45 50 56 59q40 -34 52 -51zM56 537l4 50l340 189l-10 18l-6 -49l-339 -189zM133 10h-138l-7 1v79l7 1h150q155 0 207 16q-41 94 -226 209l-18 -17l-71 51l16 57
q18 58 24 61l340 196l-17 -88l-304 -157q150 -82 226 -166q61 -67 61 -111q0 -7 -20 -56q-21 -47 -31 -54q-28 -22 -199 -22z" />
    <glyph glyph-name="uniFB9D" unicode="&#x6b1;" horiz-adv-x="452" arabic-form="medial" 
d="M317 853q-19 -29 -51 -51q-17 13 -56 57q-32 -39 -57 -57q-31 22 -50 51q27 33 50 52q33 -27 56 -61q41 47 57 61q37 -31 51 -52zM33 526l4 49l331 211l-10 18l-6 -49l-330 -211zM31 10h-36l-7 1v79l7 1h59q95 0 131 10q3 60 -47 137l-96 138q-2 7 14 49q16 46 23 48
l294 196l-17 -89l-256 -161l122 -175q56 -82 103 -119q43 -34 106 -34l21 -1v-79l-21 -1q-66 0 -110 29q-28 19 -95 101q-58 -109 -74 -115q-30 -15 -121 -15z" />
    <glyph glyph-name="uniFB9E" unicode="&#x6ba;" horiz-adv-x="559" arabic-form="isolated" 
d="M285 -183q-197 0 -197 164q0 96 71 203l10 -5q-34 -78 -34 -139q0 -140 171 -140q110 0 201 48q-11 121 -63 293l65 59h6q39 -170 32 -309q-2 -21 -26 -62q-22 -43 -31 -50q-62 -62 -205 -62z" />
    <glyph glyph-name="uniFB9F" unicode="&#x6ba;" horiz-adv-x="617" arabic-form="final" 
d="M285 -183q-197 0 -197 164q0 96 71 203l10 -5q-34 -78 -34 -139q0 -140 171 -140q108 0 201 48l-36 280l64 50h6l3 -66q5 -69 19 -91q23 -30 97 -30l7 -1v-79l-7 -1q-64 0 -112 68l2 -70q-26 -98 -60 -129q-62 -62 -205 -62z" />
    <glyph glyph-name="uniFBA0" unicode="&#x6bb;" horiz-adv-x="559" arabic-form="isolated" 
d="M223 371l90 -1q70 0 112 19q-29 68 -77 68q-45 0 -125 -86zM215 331l-63 49l-1 -4l68 -4l15 25l-13 163l-8 22l38 35l-2 1v-18l25 -40l-17 -18l-2 -52q0 -20 -69 -157q130 175 175 175q25 0 50 -33q25 -31 25 -64q0 -9 -18 -37q-17 -26 -25 -30q-31 -19 -105 -19
q-38 0 -73 6zM285 -183q-197 0 -197 164q0 96 71 203l10 -5q-34 -78 -34 -139q0 -140 171 -140q110 0 201 48q-11 121 -63 293l65 59h6q39 -170 32 -309q-2 -21 -26 -62q-22 -43 -31 -50q-62 -62 -205 -62z" />
    <glyph glyph-name="uniFBA1" unicode="&#x6bb;" horiz-adv-x="617" arabic-form="final" 
d="M322 371q69 0 113 19q-32 68 -78 68q-45 0 -124 -85q80 -2 89 -2zM224 331l-62 50l-2 -4l69 -4l15 24q-7 79 -13 163l-8 22l36 36v-17l24 -41l-17 -17l-1 -89q-7 -19 -15 -46q75 100 121 100q25 0 49 -33q25 -31 25 -63q0 -8 -18 -37q-15 -25 -25 -31q-28 -19 -105 -19
q-39 0 -73 6zM285 -183q-197 0 -197 164q0 96 71 203l10 -5q-34 -78 -34 -139q0 -140 171 -140q108 0 201 48l-36 280l64 50h6l3 -66q5 -69 19 -91q23 -30 97 -30l7 -1v-79l-7 -1q-64 0 -112 68l2 -70q-26 -98 -60 -129q-62 -62 -205 -62z" />
    <glyph glyph-name="uniFBA2" unicode="&#x6bb;" horiz-adv-x="304" arabic-form="initial" 
d="M168 565q69 0 113 19q-32 68 -78 68q-45 0 -124 -85q80 -2 89 -2zM70 525l-62 50l-2 -4l69 -4l15 24q-7 79 -13 163l-8 22l36 36v-17l24 -41l-17 -17l-1 -89q-7 -19 -15 -46q75 100 121 100q25 0 49 -33q25 -31 25 -63q0 -8 -18 -37q-15 -25 -25 -31q-28 -19 -105 -19
q-39 0 -73 6zM-5 10l-7 1v79l7 1q133 0 172 10q-13 109 -47 231l61 60h6l37 -102l-1 -5l-25 -25q13 -90 9 -124q-1 -16 -30 -61q-29 -43 -45 -54q-28 -11 -137 -11z" />
    <glyph glyph-name="uniFBA3" unicode="&#x6bb;" horiz-adv-x="298" arabic-form="medial" 
d="M163 476q68 0 112 19q-32 68 -78 68q-45 0 -124 -85q80 -2 90 -2zM64 436l-63 50l-1 -4q32 -3 70 -4l5.5 9.5t5 8t3.5 5.5q-7 78 -13 165l-8 21l37 36l-1 1v-18l25 -41l-17 -17l-2 -53v-36q-7 -19 -15 -46q75 100 121 100q25 0 49 -33q25 -31 25 -63q0 -8 -18 -37
q-15 -25 -25 -31q-28 -19 -105 -19q-38 0 -73 6zM298 11l-13 -1q-101 0 -156 72q-47 -57 -55 -62q-20 -10 -79 -10l-7 1v79l7 1q62 0 106 11l37 164l56 36q-9 -140 -24 -183q40 -28 121 -28l7 -1v-79z" />
    <glyph glyph-name="uniFBA4" unicode="&#x6c0;" horiz-adv-x="387" arabic-form="isolated" 
d="M322 613l-23 -51q-55 -26 -111 -26q-9 0 -59 41v2q45 0 60 4v15q-19 10 -19 39q0 34 22 62q22 30 56 30q25 0 39 -38q7 -21 9 -33l-2 -1q-12 23 -45 23q-35 0 -72 -31q19 -55 72 -55q37 0 76 15zM212 10q-70 0 -108 36q-20 18 -24 39q-7 29 5 84q24 72 104 180
q-6 3 -21 17l-7 6l43 80h8q166 -166 166 -317q0 -15 -21 -55q-19 -37 -24 -40q-42 -30 -121 -30zM230 91q69 0 120 22q-16 99 -128 205q-94 -94 -122 -181q46 -46 130 -46z" />
    <glyph glyph-name="uniFBA5" unicode="&#x6c0;" horiz-adv-x="453" arabic-form="final" 
d="M366 602l-23 -50q-55 -26 -111 -26q-9 0 -59 41v2q45 0 60 4v15q-19 10 -19 38q0 34 22 62q22 30 56 30q26 0 39 -37q7 -18 8 -33h-1q-12 22 -45 22q-35 0 -72 -31q18 -55 72 -55q37 0 76 14zM500 11l-7 -1h-41q-94 0 -113 141l-54 -85q-32 -8 -63 -8q-104 0 -134 59
q-4 10 0 46t12 45q49 74 218 166l-3 43l66 48h5v-297q0 -50 12 -64q12 -13 59 -13h36l7 -1v-79zM336 145l-14 173q-142 -64 -208 -134q50 -48 138 -48q34 0 84 9z" />
    <glyph glyph-name="uniFBA6" unicode="&#x6c1;" horiz-adv-x="387" arabic-form="isolated" 
d="M212 10q-70 0 -108 36q-20 18 -24 39q-7 29 5 84q24 72 104 180q-15 11 -20 16l-7 7l42 80h8q166 -166 166 -317q0 -15 -21 -55q-19 -37 -24 -40q-42 -30 -121 -30zM230 91q69 0 120 22q-16 99 -128 205q-96 -96 -121 -181q46 -46 129 -46z" />
    <glyph glyph-name="uniFBA7" unicode="&#x6c1;" horiz-adv-x="470" arabic-form="final" 
d="M515 11l-7 -1q-72 0 -105 52q-25 40 -40 145q-76 -2 -164 -42q-82 -37 -121 -73l2 -2l47 103q113 83 195 83q59 0 70 -59q12 -63 24 -83q25 -43 92 -43l7 -1v-79z" />
    <glyph glyph-name="uniFBA8" unicode="&#x6c1;" horiz-adv-x="270" arabic-form="initial" 
d="M-7 10l-7 1v79l7 1q109 0 150 9q-14 105 -48 232l62 60h7l37 -102l-1 -5l-25 -26q13 -84 9 -123q-2 -17 -31 -61q-28 -46 -44 -54q-28 -11 -116 -11zM146 -205l-32 -51q-63 26 -66 43q-6 71 66 134l9 -7q-25 -34 -38 -83z" />
    <glyph glyph-name="uniFBA9" unicode="&#x6c1;" horiz-adv-x="406" arabic-form="medial" 
d="M236 -292h24q-160 139 -160 273q0 17 8 83l-50 -49q-8 -5 -63 -5l-7 1v79l7 1q98 0 136 13q20 36 38 62l52 21l-4 5q-73 -112 -73 -181q0 -88 89 -180l16 8q-16 42 -16 91q0 47 13 79q5 12 37 44q29 29 34 31q29 7 82 7l7 -1v-79l-7 -1h-35q-56 0 -88 -5q-16 -32 -16 -75
q0 -69 72 -170q-9 69 -96 -52zM116 -318l-32 -51q-63 28 -66 44q-6 68 65 134l10 -8q-24 -32 -37 -82l56 -16q8 -1 9 -1l-5 3v-23z" />
    <glyph glyph-name="uniFBAA" unicode="&#x6be;" horiz-adv-x="633" arabic-form="isolated" 
d="M367 107l13 6q37 19 52 59q-6 57 -31 100q-29 47 -60 47q-29 0 -64 -38q-30 -34 -50 -79q49 -52 140 -95zM580 46l-4 17q-23 106 -122 196q10 -39 10 -54q1 -54 -60 -115q93 -37 176 -44zM603 72q1 -18 -26 -59q-26 -38 -34 -38q-74 0 -198 73q-71 -38 -147 -38
q-18 0 -53 6l-94 82l-1 -1q78 -6 159 -6h70q-45 37 -50 43q-22 41 -11 92q21 71 84 124l-43 23l33 75l9 2q175 -112 245 -206q57 -78 57 -172z" />
    <glyph glyph-name="uniFBAB" unicode="&#x6be;" horiz-adv-x="555" arabic-form="final" 
d="M250 91l13 1q126 6 173 81q-28 120 -80 120q-31 0 -72 -56q-45 -61 -56 -143v-84zM426 -116q44 0 78 12q-27 131 -184 143q-39 0 -92 -19q51 -136 198 -136zM484 -182q-10 -12 -71 -12q-68 0 -124 47q-62 54 -81 160l-21 -3q-29 0 -44 4l-91 83q60 -4 153 -5
q18 125 78 211q55 78 102 78q33 0 61 -63q24 -55 24 -100q0 -39 -46 -97q-3 -5 -33 -30h189l7 -1v-79l-7 -1h-91q46 -43 46 -64q2 -17 -22 -70q-22 -51 -29 -58z" />
    <glyph glyph-name="uniFBAC" unicode="&#x6be;" horiz-adv-x="509" arabic-form="initial" 
d="M212 107l13 6q35 20 52 58q-6 62 -31 101q-29 47 -60 47q-29 0 -64 -38q-30 -34 -50 -79q49 -52 140 -95zM425 46l-4 17q-23 105 -127 200q15 -46 15 -58q1 -54 -61 -115q93 -37 177 -44zM448 72q1 -18 -26 -59q-26 -38 -34 -38q-74 0 -199 74q-77 -39 -154 -39h-40l-7 1
v79l7 1h129q-45 37 -50 43q-22 41 -11 92q18 69 84 124l-43 23l33 75l9 2q177 -113 244 -206q58 -76 58 -172z" />
    <glyph glyph-name="uniFBAD" unicode="&#x6be;" horiz-adv-x="461" arabic-form="medial" 
d="M102 91h15q141 0 193 82q-12 47 -33 80q-25 40 -50 40q-29 0 -67 -51q-40 -54 -58 -151zM300 -116q42 0 79 12q-27 131 -185 143q-14 0 -93 -17q51 -138 199 -138zM359 -182q-12 -12 -71 -12q-71 0 -125 48q-61 55 -81 163q-49 -7 -87 -7l-7 1v79l7 1l84 1q18 128 79 211
q54 78 101 78q33 0 61 -63q24 -56 24 -100q0 -40 -44 -96l-33 -31h187l7 -1v-79l-7 -1h-92q47 -42 47 -64q2 -17 -22 -70q-21 -51 -28 -58z" />
    <glyph glyph-name="uniFBAE" unicode="&#x6d2;" horiz-adv-x="708" arabic-form="isolated" 
d="M724 90l-127 -80h-278q-126 0 -191 41q-40 25 -40 43q0 15 19 56q18 44 27 50q310 207 335 207q10 0 26 -28q17 -28 16 -41l-19 -101l-28 99q-91 -60 -340 -198q62 -47 253 -47h347v-1z" />
    <glyph glyph-name="uniFBAF" unicode="&#x6d2;" horiz-adv-x="611" arabic-form="final" 
d="M482 -248h-175q-189 0 -226 73q-22 52 -12 94q13 50 85 104q92 68 211 68h272l7 -1v-79l-7 -1h-288q-178 0 -269 -133q71 -44 285 -44h250z" />
    <glyph glyph-name="uniFBB0" unicode="&#x6d3;" horiz-adv-x="708" arabic-form="isolated" 
d="M381 528l-23 -50q-54 -27 -112 -27q-10 0 -59 42l1 2q44 0 59 4v15q-19 10 -19 38q0 34 22 62q24 30 57 30q25 0 39 -38q7 -18 8 -33h-2q-16 22 -44 22q-39 0 -73 -31q19 -55 73 -55q36 0 75 15zM724 90l-127 -80h-278q-126 0 -191 41q-40 25 -40 43q0 15 19 56
q18 44 27 50q310 207 335 207q10 0 26 -28q17 -28 16 -41l-19 -101l-28 99q-91 -60 -340 -198q62 -47 253 -47h347v-1z" />
    <glyph glyph-name="uniFBB1" unicode="&#x6d3;" horiz-adv-x="611" arabic-form="final" 
d="M349 273l-23 -50q-55 -26 -111 -26q-9 0 -59 41v2q45 0 60 4v15q-19 10 -19 38q0 34 22 62q23 30 56 30q26 0 39 -37q8 -21 9 -33l-2 -1q-12 23 -45 23q-35 0 -72 -31q18 -55 72 -55q37 0 76 14zM482 -248h-175q-189 0 -226 73q-22 52 -12 94q13 50 85 104q92 68 211 68
h272l7 -1v-79l-7 -1h-288q-178 0 -269 -133q71 -44 285 -44h250z" />
    <glyph glyph-name="uniFBD9" unicode="&#x6c6;" horiz-adv-x="433" arabic-form="isolated" 
d="M294 487h-39l1 -1q-22 63 -85 112l26 53l-3 -1q46 -43 86 -151q28 91 77 149l-4 1l19 -40q-59 -62 -78 -122zM263 90q61 0 123 15q-45 176 -122 176q-43 0 -78 -50q-31 -41 -43 -107q37 -34 120 -34zM250 -183q-14 0 -79 35q-59 31 -69 41l6 13q51 -12 88 -12
q148 0 204 126q-1 23 -13 86l-50 -81q-29 -15 -83 -15q-70 0 -100 38q-28 40 -28 91q3 73 46 143q50 77 114 77q58 0 101 -84q42 -84 42 -195q0 -30 -8 -80q-16 -73 -61 -125q-49 -58 -110 -58z" />
    <glyph glyph-name="uniFBDA" unicode="&#x6c6;" horiz-adv-x="444" arabic-form="final" 
d="M294 487h-39l1 -1q-22 63 -85 112l26 53l-3 -1q46 -43 86 -151q28 91 77 149l-4 1l19 -40q-59 -62 -78 -122zM392 91v14q-13 64 -46 115q-39 61 -82 61t-79 -52q-32 -44 -42 -107q46 -31 141 -31h108zM250 -183q-14 0 -79 35q-59 31 -69 41l6 13q51 -12 88 -12
q141 0 212 116h-124q-101 0 -129 37q-29 47 -29 92q3 73 46 143q50 77 114 77q54 0 96 -80q40 -78 45 -188h67l7 -1v-79l-7 -1h-74q-15 -81 -59 -134q-50 -59 -111 -59z" />
    <glyph glyph-name="uniFBE4" unicode="&#x6d0;" horiz-adv-x="641" arabic-form="isolated" 
d="M288 -192q-106 0 -159 53q-41 44 -41 112q0 96 71 206l13 -6q-37 -74 -37 -131q0 -147 171 -147q159 0 293 71q-15 54 -126 82q-121 30 -141 68q-23 49 -4 108q14 56 78 108q73 61 153 61q16 0 38 -34q21 -33 21 -49t-15 -93h-10l-22 100q-175 -9 -231 -128
q26 -29 144 -61q139 -37 139 -126q0 -68 -32 -103q-22 -22 -100 -51q-101 -40 -203 -40zM348 -503q-32 26 -53 50q27 33 61 56q-47 41 -61 57q31 37 52 51q29 -19 51 -51q-9 -13 -59 -56q43 -32 59 -57q-22 -31 -50 -50z" />
    <glyph glyph-name="uniFBE5" unicode="&#x6d0;" horiz-adv-x="590" arabic-form="final" 
d="M267 -220q-104 0 -157 53q-42 43 -42 111q0 97 71 207l12 -7q-37 -74 -37 -130q0 -147 171 -147q160 0 279 65q-40 78 -149 78h-10l2 -5l26 86h190l7 -1v-79l-7 -1h-55q22 -31 22 -43q0 -23 -16 -64q-16 -42 -25 -49q-101 -74 -282 -74zM335 -522q-31 25 -52 49
q30 36 61 57q-39 33 -61 56q33 39 51 52q28 -18 52 -52q-16 -22 -59 -55q39 -30 59 -58q-24 -31 -51 -49z" />
    <glyph glyph-name="uniFBE6" unicode="&#x6d0;" horiz-adv-x="270" arabic-form="initial" 
d="M-7 10l-7 1v79l7 1q109 0 150 9q-14 105 -48 232l62 60h7l37 -102l-1 -5l-25 -26q13 -84 9 -123q-2 -17 -31 -61q-28 -46 -44 -54q-28 -11 -116 -11zM116 -296q-33 27 -52 50q31 38 61 56q-39 33 -61 56q34 40 51 52q28 -18 52 -52q-16 -22 -59 -55q43 -32 59 -57
q-22 -31 -51 -50z" />
    <glyph glyph-name="uniFBE7" unicode="&#x6d0;" horiz-adv-x="298" arabic-form="medial" 
d="M298 11l-13 -1q-101 0 -156 72q-47 -57 -55 -62q-20 -10 -79 -10l-7 1v79l7 1q62 0 106 11l37 164l56 36q-9 -140 -24 -183q40 -28 121 -28l7 -1v-79zM141 -297q-31 25 -52 49q31 38 60 57q-39 35 -60 56q32 38 52 52q28 -20 51 -52q-16 -22 -59 -55q39 -30 59 -58
q-24 -31 -51 -49z" />
    <glyph glyph-name="uniFBE8" unicode="&#x649;" horiz-adv-x="270" arabic-form="initial" 
d="M-5 10l-7 1v79l7 1q109 0 150 9q-14 105 -48 232l62 60h6l37 -102l-1 -6l-23 -24q11 -102 7 -124q-1 -17 -30 -61q-28 -46 -44 -54q-28 -11 -116 -11z" />
    <glyph glyph-name="uniFBE9" unicode="&#x649;" horiz-adv-x="298" arabic-form="medial" 
d="M298 11l-13 -1q-101 0 -156 72q-47 -57 -55 -62q-20 -10 -79 -10l-7 1v79l7 1q62 0 106 11l37 164l56 36q-9 -140 -24 -183q40 -28 121 -28l7 -1v-79z" />
    <glyph glyph-name="uniFBFC" unicode="&#x6cc;" horiz-adv-x="641" arabic-form="isolated" 
d="M288 -192q-106 0 -159 53q-41 44 -41 112q0 96 71 206l13 -6q-37 -74 -37 -131q0 -147 171 -147q159 0 293 71q-15 54 -126 82q-121 30 -141 68q-23 49 -4 108q14 56 78 108q73 61 153 61q16 0 38 -34q21 -33 21 -49t-15 -93h-10l-22 100q-175 -9 -231 -128
q26 -29 144 -61q139 -37 139 -126q0 -68 -32 -103q-22 -22 -100 -51q-101 -40 -203 -40z" />
    <glyph glyph-name="uniFBFD" unicode="&#x6cc;" horiz-adv-x="601" arabic-form="final" 
d="M288 -220q-104 0 -157 53q-43 43 -43 111q0 97 71 207l13 -7q-37 -74 -37 -130q0 -147 171 -147q158 0 280 65q-42 78 -150 78h-11l2 -4l27 85h190l7 -1v-79l-7 -1h-55q21 -30 21 -43q0 -23 -16 -64q-16 -42 -24 -49q-104 -74 -282 -74z" />
    <glyph glyph-name="uniFBFE" unicode="&#x6cc;" horiz-adv-x="270" arabic-form="initial" 
d="M-5 10l-7 1v79l7 1q109 0 150 9q-14 105 -48 232l62 60h6l37 -102l-1 -6l-23 -24q11 -102 7 -124q-1 -17 -30 -61q-28 -46 -44 -54q-28 -11 -116 -11zM206 -131q-19 -28 -49 -49l-54 56q-29 -39 -53 -56q-28 19 -46 48q23 29 46 49q36 -32 54 -58q36 42 53 58
q37 -30 49 -48z" />
    <glyph glyph-name="uniFBFF" unicode="&#x6cc;" horiz-adv-x="298" arabic-form="medial" 
d="M298 11l-13 -1q-101 0 -156 72q-47 -57 -55 -62q-20 -10 -79 -10l-7 1v79l7 1q62 0 106 11l37 164l56 36q-9 -140 -24 -183q40 -28 121 -28l7 -1v-79zM240 -131q-18 -28 -49 -49q-15 12 -52 56q-34 -42 -55 -56q-28 19 -46 48q23 29 46 49q36 -32 54 -58q36 42 53 58
q35 -28 49 -48z" />
    <glyph glyph-name="uniFC5E" unicode="&#xfc5e;" arabic-form="isolated" 
d="M188 750l7 18l2 15q0 46 -34 46q-18 0 -34 -10q-18 -11 -21 -31q30 -25 80 -38zM231 744l-22 -30q-9 0 -30 6q-51 -56 -106 -56q-46 0 -46 47q0 22 21 73l-66 -19l-2 4q41 32 58 32q4 0 11 -7q6 -8 6 -12l-3 -18q-4 -13 -4 -26q0 -41 41 -41q35 0 79 27q-54 26 -58 39
q-7 24 0 43q21 51 64 51q18 0 29 -18q10 -16 10 -39q0 -17 -14 -53l32 -5v2zM81 483q-10 -10 -34 -10q-19 0 -33 14t-13 36q1 34 20 60h2q-4 -12 -4 -32q0 -38 41 -38q11 0 32 6l19 68l22 14l-2 2l-6 -68q52 -15 85 -9l-19 77l32 21l-3 2q4 -39 4 -78q0 -6 -18 -33
q-20 -27 -25 -27q-42 0 -79 25q-16 -27 -21 -30z" />
    <glyph glyph-name="uniFC5F" unicode="&#xfc5f;" arabic-form="isolated" 
d="M110 621q-10 -10 -34 -10q-19 0 -33 14t-13 36q1 34 20 60h2q-4 -11 -4 -32q0 -37 41 -37q12 0 32 5l19 69l23 13l-3 3l-6 -69q52 -15 85 -9l-19 77l32 21l-3 2q4 -39 4 -77q0 -7 -18 -34q-19 -27 -25 -27q-42 0 -79 25q-17 -27 -21 -30zM236 577l-8 -36l-187 -58l3 -2
l8 34l187 59zM228 471l-8 -35l-189 -58l5 -3l7 34l188 59z" />
    <glyph glyph-name="uniFC60" unicode="&#xfc60;" arabic-form="isolated" 
d="M242 748l-8 -35l-188 -58l4 -3l7 34l188 60zM100 483q-10 -10 -34 -10q-19 0 -33 14t-13 36q1 34 20 60h2q-4 -12 -4 -32q0 -38 41 -38q11 0 32 6l19 68l22 14l-2 2l-6 -68q52 -15 85 -9l-19 77l32 21l-3 2q4 -39 4 -78q0 -6 -18 -33q-19 -27 -25 -27q-42 0 -79 25
q-17 -27 -21 -30z" />
    <glyph glyph-name="uniFC61" unicode="&#xfc61;" arabic-form="isolated" 
d="M185 741l9 16l2 17q0 47 -35 47q-16 0 -33 -11q-18 -11 -20 -31q25 -24 77 -38zM228 735l-23 -31q-5 1 -31 7q-50 -44 -96 -52l-53 28l-1 -5q74 5 143 31q-54 27 -59 41q-6 30 1 43q23 51 64 51q17 0 27 -18q10 -16 10 -40q0 -20 -15 -52l33 -5v2zM100 483
q-10 -10 -34 -10q-19 0 -33 14t-13 36q1 34 20 60h2q-4 -12 -4 -32q0 -38 41 -38q11 0 32 6l19 68l22 14l-2 2l-6 -68q52 -15 85 -9l-19 77l32 21l-3 2q4 -39 4 -78q0 -6 -18 -33q-19 -27 -25 -27q-42 0 -79 25q-17 -27 -21 -30z" />
    <glyph glyph-name="uniFC62" unicode="&#xfc62;" arabic-form="isolated" 
d="M110 554q-10 -10 -34 -10q-19 0 -33 14t-13 36q1 34 20 60h2q-4 -11 -4 -32q0 -37 41 -37q12 0 32 5l19 69l23 13l-3 3l-6 -69q52 -15 85 -9l-19 77l32 21l-3 2q4 -39 4 -77q0 -7 -18 -34q-19 -27 -25 -27q-42 0 -79 25q-17 -27 -21 -30zM236 513l-8 -36l-188 -58l4 -3
l8 34l187 60z" />
    <glyph glyph-name="uniFC63" unicode="&#xfc63;" arabic-form="isolated" 
d="M130 802l32 15l-3 2l-11 -134l-21 -11h3v128zM100 483q-10 -10 -34 -10q-19 0 -33 14t-13 36q1 34 20 60h2q-4 -12 -4 -32q0 -38 41 -38q11 0 32 6l19 68l22 14l-2 2l-6 -68q52 -15 85 -9l-19 77l32 21l-3 2q4 -39 4 -78q0 -6 -18 -33q-19 -27 -25 -27q-42 0 -79 25
q-17 -27 -21 -30z" />
    <glyph glyph-name="uniFDF2" unicode="&#xfdf2;" horiz-adv-x="976" arabic-form="isolated" 
d="M821 18q-14 -8 -81 -8q-96 0 -134 113q-58 -95 -72 -103q-16 -10 -78 -10q-93 0 -113 140l-54 -84q-30 -8 -63 -8q-102 0 -134 59q-4 7 1 46q5 35 11 45q57 79 218 166l-3 43l67 48h4v-297q0 -52 12 -64q10 -13 58 -13q80 0 124 9l-14 538l64 61h4v-503q0 -58 15 -77
q22 -27 87 -28q86 0 123 9l-11 455l-23 62l80 79l8 -5v-44l44 -80l-43 -46v-355q0 -24 -40 -82q-38 -52 -57 -66zM256 136q44 0 85 10q-2 15 -14 170q-144 -66 -209 -134q52 -46 138 -46z" />
    <glyph glyph-name="uniFDFC" unicode="&#xfdfc;" horiz-adv-x="1060" arabic-form="isolated" 
d="M303 -183q-197 0 -197 164q0 96 71 203l12 -6q-36 -82 -36 -138q0 -140 170 -140q88 0 188 45l-9 304q-110 -83 -166 -83q-37 0 -58 24q-23 26 -23 71q0 71 44 130l11 -6q-18 -33 -18 -77q0 -60 59 -60q55 0 150 69l-8 322l66 60v-336l139 123l-3 152l66 61v-158
q107 86 148 86t54 -61q7 -27 5 -59l-12 -3q-22 39 -64 39q-44 0 -131 -69v-326q0 -38 38 -50q20 -7 81 -7q87 0 127 8q-13 98 -46 227l63 61h7l35 -97l-1 -5l-25 -26q13 -85 9 -119q-1 -16 -30 -63t-45 -56q-28 -11 -94 -11q-99 0 -138 68q-42 72 -43 253v89l-140 -124v-275
q0 -27 -35 -92q-32 -57 -47 -69q-52 -43 -174 -43zM985 -130q-20 -28 -52 -51q-20 16 -55 58q-30 -38 -57 -58q-28 21 -49 50q25 31 49 52q37 -31 56 -59q41 45 56 59q39 -33 52 -51z" />
    <glyph glyph-name="uniFE80" unicode="&#x621;" horiz-adv-x="454" arabic-form="isolated" 
d="M430 139l-34 -78q-140 -58 -272 -58q-14 0 -88 65l2 4q58 0 129 11q-53 53 -53 100q0 33 15 70q18 47 62 80q47 35 97 35q76 0 87 -138l-9 -3l-31 53q-35 11 -56 11q-99 0 -144 -80q41 -107 152 -107q67 0 143 35z" />
    <glyph glyph-name="uniFE81" unicode="&#x622;" horiz-adv-x="242" arabic-form="isolated" 
d="M247 781l-28 -62q-53 -14 -128 -14q-43 0 -93 14l-30 -52l-2 1q6 26 20 59q2 3 23 23q23 20 24 20l87 -3q62 0 129 10zM136 598v-451q0 -14 -39 -137h-12q-15 521 -16 528l63 60h4z" />
    <glyph glyph-name="uniFE82" unicode="&#x622;" horiz-adv-x="265" arabic-form="final" 
d="M242 784l-27 -62q-54 -14 -129 -14q-42 0 -93 14l-30 -52l-1 1q6 26 20 59l22 23q23 20 24 20l87 -3q63 0 129 10zM252 11l-7 -1q-96 0 -137 68q-42 72 -43 253q0 43 -3 230l64 61h4v-474q0 -38 36 -50q20 -7 79 -7l7 -1v-79z" />
    <glyph glyph-name="uniFE83" unicode="&#x623;" horiz-adv-x="232" arabic-form="isolated" 
d="M233 762l-23 -50q-55 -26 -111 -26q-9 0 -59 41v2q45 0 60 4v15q-19 10 -19 38q0 34 22 62q23 30 56 30q26 0 39 -37q7 -18 8 -33l-1 -1q-13 22 -45 22q-38 0 -72 -31q18 -54 72 -54q37 0 76 14zM170 598v-451q0 -14 -39 -137h-12q-15 521 -16 528l64 60h3z" />
    <glyph glyph-name="uniFE84" unicode="&#x623;" horiz-adv-x="254" arabic-form="final" 
d="M204 762l-23 -50q-55 -26 -112 -26q-9 0 -59 41v2q45 0 60 4v15q-19 10 -19 38q0 34 22 62q23 30 57 30q26 0 39 -37q7 -18 8 -33l-2 -1q-16 22 -45 22q-38 0 -72 -31q18 -54 73 -54q36 0 75 14zM265 90v-79l-7 -1q-97 0 -138 68q-42 70 -42 253q0 82 -4 230l65 61h3
v-474q0 -38 37 -50q20 -7 79 -7z" />
    <glyph glyph-name="uniFE85" unicode="&#x624;" horiz-adv-x="433" arabic-form="isolated" 
d="M357 541l-23 -50q-55 -26 -111 -26q-7 0 -60 41l1 2q45 0 60 4v15q-20 11 -20 38q0 34 22 62q24 30 57 30q26 0 39 -37q7 -18 8 -33l-2 -1q-16 22 -44 22q-39 0 -73 -31q18 -54 73 -54q36 0 75 14zM263 90q61 0 123 15q-45 176 -122 176q-43 0 -78 -50q-31 -41 -43 -107
q37 -34 120 -34zM250 -183q-14 0 -79 35q-59 31 -69 41l6 13q51 -12 88 -12q148 0 204 126q-1 23 -13 86l-50 -81q-29 -15 -83 -15q-70 0 -100 38q-28 40 -28 91q3 73 46 143q50 77 114 77q58 0 101 -84q42 -84 42 -195q0 -30 -8 -80q-16 -73 -61 -125q-49 -58 -110 -58z
" />
    <glyph glyph-name="uniFE86" unicode="&#x624;" horiz-adv-x="444" arabic-form="final" 
d="M357 541l-23 -50q-55 -26 -111 -26q-7 0 -60 41l1 2q45 0 60 4v15q-20 11 -20 38q0 34 22 62q24 30 57 30q26 0 39 -37q7 -18 8 -33l-2 -1q-16 22 -44 22q-39 0 -73 -31q18 -54 73 -54q36 0 75 14zM392 91v14q-13 64 -46 115q-39 61 -82 61t-79 -52q-32 -44 -42 -107
q46 -31 141 -31h108zM250 -183q-14 0 -79 35q-59 31 -69 41l6 13q51 -12 88 -12q141 0 212 116h-124q-101 0 -129 37q-29 47 -29 92q3 73 46 143q50 77 114 77q54 0 96 -80q40 -78 45 -188h67l7 -1v-79l-7 -1h-74q-15 -81 -59 -134q-50 -59 -111 -59z" />
    <glyph glyph-name="uniFE87" unicode="&#x625;" horiz-adv-x="218" arabic-form="isolated" 
d="M152 696v-451q0 -13 -40 -136h-11l-16 528l63 59h4zM214 -87l-23 -50q-55 -26 -111 -26q-7 0 -60 41l1 2q45 0 60 4v15q-20 11 -20 38q0 34 22 62q24 30 57 30q26 0 39 -37q7 -18 8 -33l-2 -1q-16 22 -44 22q-39 0 -73 -31q18 -54 73 -54q36 0 75 14z" />
    <glyph glyph-name="uniFE88" unicode="&#x625;" horiz-adv-x="256" arabic-form="final" 
d="M291 11l-7 -1q-97 0 -136 66q-40 70 -42 252q0 43 -6 310l65 61h3v-551q0 -38 36 -50q20 -7 80 -7l7 -1v-79zM252 -157l-23 -50q-55 -26 -111 -26q-7 0 -60 41l1 2q45 0 60 4v15q-20 11 -20 38q0 34 22 62q24 30 57 30q26 0 39 -37q7 -18 8 -33l-2 -1q-15 23 -44 23
q-36 0 -73 -31q18 -55 73 -55q36 0 75 14z" />
    <glyph glyph-name="uniFE89" unicode="&#x626;" horiz-adv-x="639" arabic-form="isolated" 
d="M234 391l-23 -51q-55 -26 -111 -26q-7 0 -60 41l1 2q45 0 60 4v15q-20 11 -20 39q0 34 22 62q24 30 57 30q25 0 39 -38q7 -18 8 -33l-2 -1q-15 23 -44 23q-36 0 -73 -31q19 -55 73 -55q36 0 75 15zM262 -192q-106 0 -159 53q-41 44 -41 112q0 96 71 206l13 -6
q-37 -74 -37 -131q0 -147 171 -147q159 0 293 71q-15 54 -126 82q-121 30 -141 68q-23 49 -4 108q14 56 78 108q73 61 153 61q16 0 38 -34q21 -33 21 -49t-15 -93h-10l-22 100q-175 -9 -231 -128q26 -29 144 -61q139 -37 139 -126q0 -68 -32 -103q-22 -22 -100 -51
q-101 -40 -203 -40z" />
    <glyph glyph-name="uniFE8A" unicode="&#x626;" horiz-adv-x="601" arabic-form="final" 
d="M257 348l-23 -50q-54 -27 -111 -27q-9 0 -59 42v2q45 0 60 4v15q-19 10 -19 38q0 34 22 62q23 30 56 30q25 0 39 -38q8 -21 9 -33h-2q-13 22 -45 22q-38 0 -72 -31q19 -55 72 -55q37 0 76 15zM276 -220q-104 0 -157 53q-43 43 -43 111q0 97 71 207l13 -7
q-37 -74 -37 -130q0 -147 171 -147q158 0 280 65q-42 78 -150 78h-11l2 -4l27 85h190l7 -1v-79l-7 -1h-55q21 -30 21 -43q0 -23 -16 -64q-16 -42 -24 -49q-104 -74 -282 -74z" />
    <glyph glyph-name="uniFE8B" unicode="&#x626;" horiz-adv-x="270" arabic-form="initial" 
d="M220 574l-23 -50q-55 -26 -111 -26q-7 0 -60 41l1 2q45 0 60 4v15q-20 11 -20 38q0 34 22 62q24 30 57 30q26 0 39 -37q7 -18 8 -33l-2 -1q-15 23 -44 23q-36 0 -73 -31q19 -55 73 -55q36 0 75 14zM-7 10l-7 1v79l7 1q109 0 150 9q-14 105 -48 232l62 60h7l37 -102l-1 -5
l-25 -26q13 -84 9 -123q-2 -17 -31 -61q-28 -46 -44 -54q-28 -11 -116 -11z" />
    <glyph glyph-name="uniFE8C" unicode="&#x626;" horiz-adv-x="298" arabic-form="medial" 
d="M245 474l-23 -50q-55 -26 -112 -26q-9 0 -59 41v2q45 0 60 4v15q-19 10 -19 38q0 34 22 62q22 30 56 30q26 0 39 -37q7 -21 9 -33l-2 -1q-16 22 -45 22q-38 0 -72 -31q18 -54 72 -54q37 0 76 14zM298 11l-13 -1q-101 0 -156 72q-47 -57 -55 -62q-20 -10 -79 -10l-7 1v79
l7 1q62 0 106 11l37 164l56 36q-9 -140 -24 -183q40 -28 121 -28l7 -1v-79z" />
    <glyph glyph-name="uniFE8D" unicode="&#x627;" horiz-adv-x="213" arabic-form="isolated" 
d="M211 699v-552q0 -14 -39 -137h-12l-16 629l64 60h3z" />
    <glyph glyph-name="uniFE8E" unicode="&#x627;" horiz-adv-x="256" arabic-form="final" 
d="M333 11l-7 -1q-97 0 -136 66q-40 70 -42 252q0 43 -6 310l65 61h3v-551q0 -38 36 -50q20 -7 80 -7l7 -1v-79z" />
    <glyph glyph-name="uniFE8F" unicode="&#x628;" horiz-adv-x="763" arabic-form="isolated" 
d="M662 22q-28 -12 -318 -12q-246 0 -246 168q0 96 71 203l12 -6q-36 -83 -36 -138q0 -146 218 -146t335 8q-14 106 -48 233l61 60h7l36 -101l-1 -6l-24 -26q13 -79 8 -123q-1 -16 -30 -60t-45 -54zM421 -206q-28 21 -49 50q24 31 49 51q37 -31 51 -51q-19 -28 -51 -50z" />
    <glyph glyph-name="uniFE90" unicode="&#x628;" horiz-adv-x="777" arabic-form="final" 
d="M847 11l-7 -1q-116 0 -166 78q-39 -46 -53 -55q-77 -23 -267 -23q-246 0 -246 168q0 96 71 203l12 -6q-37 -80 -37 -138q0 -146 219 -146q145 0 278 19l35 156l55 38l2 -1q-12 -144 -24 -184q40 -28 121 -28l7 -1v-79zM408 -206q-28 21 -49 50q24 31 49 51q37 -28 51 -50
q-19 -29 -51 -51z" />
    <glyph glyph-name="uniFE91" unicode="&#x628;" horiz-adv-x="270" arabic-form="initial" 
d="M-5 10l-7 1v79l7 1q109 0 150 9q-14 105 -48 232l62 60h6l37 -102l-1 -6l-23 -24q11 -102 7 -124q-1 -17 -30 -61q-28 -46 -44 -54q-28 -11 -116 -11zM112 -180q-28 21 -49 50q24 31 49 51q37 -28 51 -50q-19 -29 -51 -51z" />
    <glyph glyph-name="uniFE92" unicode="&#x628;" horiz-adv-x="298" arabic-form="medial" 
d="M298 11l-13 -1q-101 0 -156 72q-47 -57 -55 -62q-20 -10 -79 -10l-7 1v79l7 1q62 0 106 11l37 164l56 36q-9 -140 -24 -183q40 -28 121 -28l7 -1v-79zM146 -180q-28 21 -49 50q24 31 49 51q37 -28 51 -50q-19 -29 -51 -51z" />
    <glyph glyph-name="uniFE93" unicode="&#x629;" horiz-adv-x="388" arabic-form="isolated" 
d="M327 595q-20 -29 -52 -52q-13 9 -56 59q-32 -43 -57 -59q-31 24 -49 51q25 31 49 52q38 -32 57 -60q30 38 56 60q39 -33 52 -51zM212 10q-70 0 -107 36q-19 18 -24 39q-9 40 5 84q22 74 103 179q-25 22 -27 24l42 80h8q166 -166 166 -317q0 -15 -21 -55q-20 -39 -23 -40
q-44 -30 -122 -30zM231 91q67 0 120 22q-16 96 -128 205q-93 -90 -122 -181q46 -46 130 -46z" />
    <glyph glyph-name="uniFE94" unicode="&#x629;" horiz-adv-x="453" arabic-form="final" 
d="M378 593q-20 -29 -51 -51q-27 22 -56 58q-30 -38 -57 -58q-31 22 -50 50q25 31 50 53q33 -27 56 -61q41 47 57 61q37 -31 51 -52zM500 11l-7 -1h-41q-94 0 -113 141l-54 -85q-32 -8 -63 -8q-104 0 -134 59q-4 10 0 46t12 45q49 74 218 166l-3 43l66 48h5v-297
q0 -50 12 -64q12 -13 59 -13h36l7 -1v-79zM336 145l-14 173q-142 -64 -208 -134q50 -48 138 -48q34 0 84 9z" />
    <glyph glyph-name="uniFE95" unicode="&#x62a;" horiz-adv-x="763" arabic-form="isolated" 
d="M528 426q-20 -29 -52 -52q-13 9 -56 59q-32 -43 -57 -59q-31 24 -49 51q25 31 49 52q38 -32 57 -59q45 50 56 59q39 -33 52 -51zM662 22q-28 -12 -318 -12q-246 0 -246 168q0 96 71 203l12 -6q-36 -83 -36 -138q0 -146 218 -146t335 8q-14 106 -48 233l61 60h7l36 -101
l-1 -6l-24 -26q13 -79 8 -123q-1 -16 -30 -60t-45 -54z" />
    <glyph glyph-name="uniFE96" unicode="&#x62a;" horiz-adv-x="777" arabic-form="final" 
d="M539 395q-20 -29 -52 -52q-13 9 -56 59q-32 -43 -57 -59q-31 24 -49 51q25 31 49 52q37 -31 56 -59q42 47 57 59q39 -33 52 -51zM847 11l-7 -1q-116 0 -166 78q-39 -46 -53 -55q-77 -23 -267 -23q-246 0 -246 168q0 96 71 203l12 -6q-37 -80 -37 -138q0 -146 219 -146
q145 0 278 19l35 156l55 38l2 -1q-12 -144 -24 -184q40 -28 121 -28l7 -1v-79z" />
    <glyph glyph-name="uniFE97" unicode="&#x62a;" horiz-adv-x="270" arabic-form="initial" 
d="M244 564q-20 -29 -52 -52q-13 9 -56 59q-32 -43 -57 -59q-31 24 -49 51q25 31 49 52q37 -31 57 -60q24 28 56 60q39 -33 52 -51zM-5 10l-7 1v79l7 1q109 0 150 9q-14 105 -48 232l62 60h6l37 -102l-1 -6l-23 -24q11 -102 7 -124q-1 -17 -30 -61q-28 -46 -44 -54
q-28 -11 -116 -11z" />
    <glyph glyph-name="uniFE98" unicode="&#x62a;" horiz-adv-x="298" arabic-form="medial" 
d="M268 473q-21 -30 -51 -52q-13 9 -56 59q-32 -43 -57 -59q-31 22 -50 51q20 25 50 52q37 -31 56 -59q44 48 57 59q37 -32 51 -51zM298 11l-13 -1q-101 0 -156 72q-47 -57 -55 -62q-20 -10 -79 -10l-7 1v79l7 1q62 0 106 11l37 164l56 36q-9 -140 -24 -183q40 -28 121 -28
l7 -1v-79z" />
    <glyph glyph-name="uniFE99" unicode="&#x62b;" horiz-adv-x="763" arabic-form="isolated" 
d="M421 476q-23 19 -45 47q19 21 45 46q37 -30 47 -46q-17 -26 -47 -47zM526 409q-19 -28 -50 -50q-13 11 -55 56q-34 -40 -56 -56q-28 22 -47 50q24 28 47 49l56 -56q48 47 56 56q36 -30 49 -49zM662 22q-28 -12 -318 -12q-246 0 -246 168q0 96 71 203l12 -6
q-36 -83 -36 -138q0 -146 218 -146t335 8q-14 106 -48 233l61 60h7l36 -101l-1 -6l-24 -26q13 -79 8 -123q-1 -16 -30 -60t-45 -54z" />
    <glyph glyph-name="uniFE9A" unicode="&#x62b;" horiz-adv-x="777" arabic-form="final" 
d="M432 449q-23 19 -45 47q21 26 45 47q34 -28 47 -47q-17 -26 -47 -47zM537 382q-17 -24 -50 -49q-17 12 -55 57q-32 -41 -56 -57q-32 25 -47 49q24 28 47 49q46 -45 54 -57q8 7 40 39l18 18q30 -23 49 -49zM847 11l-7 -1q-116 0 -166 78q-39 -46 -53 -55q-77 -23 -267 -23
q-246 0 -246 168q0 96 71 203l12 -6q-37 -80 -37 -138q0 -146 219 -146q145 0 278 19l35 156l55 38l2 -1q-12 -144 -24 -184q40 -28 121 -28l7 -1v-79z" />
    <glyph glyph-name="uniFE9B" unicode="&#x62b;" horiz-adv-x="270" arabic-form="initial" 
d="M138 628q-23 19 -45 47q21 26 45 47q33 -25 47 -46q-17 -27 -47 -48zM243 562q-18 -26 -50 -50q-17 13 -55 56q-34 -40 -56 -56q-32 25 -47 49q24 30 47 50l56 -57q29 31 56 57q36 -30 49 -49zM-5 10l-7 1v79l7 1q109 0 150 9q-14 105 -48 232l62 60h6l37 -102l-1 -6
l-23 -24q11 -102 7 -124q-1 -17 -30 -61q-28 -46 -44 -54q-28 -11 -116 -11z" />
    <glyph glyph-name="uniFE9C" unicode="&#x62b;" horiz-adv-x="298" arabic-form="medial" 
d="M156 555q-27 21 -45 47q19 21 45 46q37 -30 47 -46q-17 -27 -47 -47zM261 488q-18 -26 -50 -50q-18 14 -55 57q-32 -41 -56 -57q-32 25 -47 49q24 30 47 50q47 -47 54 -59q55 55 58 59q36 -30 49 -49zM298 11l-13 -1q-101 0 -156 72q-47 -57 -55 -62q-20 -10 -79 -10
l-7 1v79l7 1q62 0 106 11l37 164l56 36q-9 -140 -24 -183q40 -28 121 -28l7 -1v-79z" />
    <glyph glyph-name="uniFE9D" unicode="&#x62c;" horiz-adv-x="616" arabic-form="isolated" 
d="M640 -196l1 -6q-145 -94 -208 -94q-124 0 -209 49q-72 40 -91 95q-23 60 -20 115q22 145 199 245q25 12 95 19l5 23q-64 6 -138 21q-69 15 -99 17l-75 -66l-8 7q70 132 100 132q15 0 133 -23q121 -23 193 -23h97l-28 -71h-45q-148 -34 -302 -160q-86 -74 -104 -159
q74 -131 338 -131q67 0 166 10zM393 -48q-31 22 -50 50q26 34 50 51q34 -28 50 -50q-19 -29 -50 -51z" />
    <glyph glyph-name="uniFE9E" unicode="&#x62c;" horiz-adv-x="629" arabic-form="final" 
d="M634 -196l1 -6q-145 -94 -208 -94q-124 0 -209 49q-72 40 -91 95q-23 60 -20 115q21 144 200 245q24 12 97 19v23q-62 6 -135 21q-69 15 -100 17l-75 -66l-8 7q70 132 100 132q15 0 133 -23q121 -23 193 -23h97l-27 -71l-52 1q-5 -86 11 -113q21 -41 85 -41h45l7 -1v-79
l-7 -1h-48q-85 0 -109 62q-22 55 8 169q-156 -49 -288 -157q-86 -74 -104 -159q74 -131 338 -131q67 0 166 10zM369 -51q-31 22 -50 50q27 33 50 52q35 -30 50 -51q-19 -29 -50 -51z" />
    <glyph glyph-name="uniFE9F" unicode="&#x62c;" horiz-adv-x="641" arabic-form="initial" 
d="M72 10h-77l-7 1v79l7 1h115q111 0 213 45q55 26 99 39q-84 28 -148 63l-127 72l-89 -61l-10 11q81 115 124 115q8 0 142 -74q112 -64 193 -64h75l-28 -69h-73q-18 -3 -187 -99q-98 -59 -222 -59zM387 -102q-28 21 -49 50q24 31 49 51q37 -28 51 -50q-20 -29 -51 -51z" />
    <glyph glyph-name="uniFEA0" unicode="&#x62c;" horiz-adv-x="648" arabic-form="medial" 
d="M72 10h-77l-7 1v79l7 1h115q116 0 214 46q63 27 98 38q-83 28 -148 63l-127 72l-89 -61l-10 11q81 115 124 115q8 0 142 -74q112 -64 193 -64h73l-29 -69l-52 -4q1 -73 73 -73h69l7 -1v-79l-7 -1h-73q-108 0 -83 157q-33 -8 -191 -98q-98 -59 -222 -59zM333 -134
q-31 22 -50 50q26 34 50 51q34 -28 50 -50q-19 -29 -50 -51z" />
    <glyph glyph-name="uniFEA1" unicode="&#x62d;" horiz-adv-x="616" arabic-form="isolated" 
d="M640 -196l1 -6q-145 -94 -208 -94q-124 0 -209 49q-72 40 -91 95q-23 60 -20 115q22 145 199 245q25 12 95 19l5 23q-64 6 -138 21q-69 15 -99 17l-75 -66l-8 7q70 132 100 132q15 0 133 -23q121 -23 193 -23h97l-28 -71h-45q-148 -34 -302 -160q-86 -74 -104 -159
q74 -131 338 -131q67 0 166 10z" />
    <glyph glyph-name="uniFEA2" unicode="&#x62d;" horiz-adv-x="632" arabic-form="final" 
d="M640 -196l1 -6q-145 -94 -208 -94q-124 0 -209 49q-72 40 -91 95q-23 60 -20 115q22 145 199 245q25 12 95 19l5 23q-64 6 -138 21q-69 15 -99 17l-75 -66l-8 7q70 132 100 132q15 0 133 -23q121 -23 193 -23h97l-28 -71l-51 1q-6 -82 10 -113q21 -41 86 -41h45l7 -1v-79
l-7 -1h-48q-85 0 -109 62q-22 55 8 169q-156 -49 -288 -157q-86 -74 -104 -159q74 -131 338 -131q67 0 166 10z" />
    <glyph glyph-name="uniFEA3" unicode="&#x62d;" horiz-adv-x="641" arabic-form="initial" 
d="M72 10h-77l-7 1v79l7 1h115q111 0 213 45q55 26 99 39q-84 28 -148 63l-127 72l-89 -61l-10 11q81 115 124 115q8 0 142 -74q112 -64 193 -64h75l-28 -69h-73q-18 -3 -187 -99q-98 -59 -222 -59z" />
    <glyph glyph-name="uniFEA4" unicode="&#x62d;" horiz-adv-x="648" arabic-form="medial" 
d="M72 10h-77l-7 1v79l7 1h115q116 0 214 46q63 27 98 38q-83 28 -148 63l-127 72l-89 -61l-10 11q81 115 124 115q8 0 142 -74q112 -64 193 -64h73l-29 -69l-52 -4q1 -73 73 -73h69l7 -1v-79l-7 -1h-73q-108 0 -83 157q-33 -8 -191 -98q-98 -59 -222 -59z" />
    <glyph glyph-name="uniFEA5" unicode="&#x62e;" horiz-adv-x="616" arabic-form="isolated" 
d="M373 462q-28 21 -49 50q24 31 49 51q37 -31 51 -51q-19 -28 -51 -50zM640 -196l1 -6q-145 -94 -208 -94q-124 0 -209 49q-72 40 -91 95q-23 60 -20 115q22 145 199 245q25 12 95 19l5 23q-64 6 -138 21q-69 15 -99 17l-75 -66l-8 7q70 132 100 132q15 0 133 -23
q121 -23 193 -23h97l-28 -71h-45q-148 -34 -302 -160q-86 -74 -104 -159q74 -131 338 -131q67 0 166 10z" />
    <glyph glyph-name="uniFEA6" unicode="&#x62e;" horiz-adv-x="632" arabic-form="final" 
d="M373 462q-28 21 -49 50q24 31 49 51q37 -31 51 -51q-19 -28 -51 -50zM640 -196l1 -6q-145 -94 -208 -94q-124 0 -209 49q-72 40 -91 95q-23 60 -20 115q22 145 199 245q25 12 95 19l5 23q-64 6 -138 21q-69 15 -99 17l-75 -66l-8 7q70 132 100 132q15 0 133 -23
q121 -23 193 -23h97l-28 -71l-51 1q-6 -82 10 -113q21 -41 86 -41h45l7 -1v-79l-7 -1h-48q-85 0 -109 62q-22 55 8 169q-156 -49 -288 -157q-86 -74 -104 -159q74 -131 338 -131q67 0 166 10z" />
    <glyph glyph-name="uniFEA7" unicode="&#x62e;" horiz-adv-x="641" arabic-form="initial" 
d="M299 470q-28 21 -49 50q25 31 49 52q37 -32 51 -51q-20 -29 -51 -51zM72 10h-77l-7 1v79l7 1h115q111 0 213 45q55 26 99 39q-84 28 -148 63l-127 72l-89 -61l-10 11q81 115 124 115q8 0 142 -74q112 -64 193 -64h75l-28 -69h-73q-18 -3 -187 -99q-98 -59 -222 -59z" />
    <glyph glyph-name="uniFEA8" unicode="&#x62e;" horiz-adv-x="648" arabic-form="medial" 
d="M299 470q-28 21 -49 50q25 31 49 52q37 -32 51 -51q-20 -29 -51 -51zM72 10h-77l-7 1v79l7 1h115q116 0 214 46q63 27 98 38q-83 28 -148 63l-127 72l-89 -61l-10 11q81 115 124 115q8 0 142 -74q112 -64 193 -64h73l-29 -69l-52 -4q1 -73 73 -73h69l7 -1v-79l-7 -1h-73
q-108 0 -83 157q-33 -8 -191 -98q-98 -59 -222 -59z" />
    <glyph glyph-name="uniFEA9" unicode="&#x62f;" horiz-adv-x="445" arabic-form="isolated" 
d="M206 10q-118 0 -118 88q0 56 29 112l13 -4q-8 -29 -8 -50q0 -34 19 -47q24 -18 90 -18q97 0 180 11q-55 145 -161 286l47 74h6q137 -218 137 -328q0 -14 -27 -60q-26 -47 -37 -51q-29 -13 -170 -13z" />
    <glyph glyph-name="uniFEAA" unicode="&#x62f;" horiz-adv-x="484" arabic-form="final" 
d="M534 11l-19 -1q-72 0 -118 85l-54 -72q-35 -13 -137 -13q-118 0 -118 88q0 56 29 112l13 -4q-8 -29 -8 -50q0 -34 19 -47q24 -18 90 -18q52 0 147 5q10 -4 -4 42q-21 67 -99 257l53 67h6l74 -237q33 -96 45 -111q20 -23 74 -23l7 -1v-79z" />
    <glyph glyph-name="uniFEAB" unicode="&#x630;" horiz-adv-x="445" arabic-form="isolated" 
d="M274 570q-28 21 -49 50q25 31 49 52q38 -32 51 -51q-19 -29 -51 -51zM206 10q-118 0 -118 88q0 56 29 112l13 -4q-8 -29 -8 -50q0 -34 19 -47q24 -18 90 -18q97 0 180 11q-55 145 -161 286l47 74h6q137 -218 137 -328q0 -14 -27 -60q-26 -47 -37 -51q-29 -13 -170 -13z
" />
    <glyph glyph-name="uniFEAC" unicode="&#x630;" horiz-adv-x="484" arabic-form="final" 
d="M305 578q-28 21 -49 50q25 31 49 52q37 -32 51 -51q-20 -29 -51 -51zM534 11l-19 -1q-72 0 -118 85l-54 -72q-35 -13 -137 -13q-118 0 -118 88q0 56 29 112l13 -4q-8 -29 -8 -50q0 -34 19 -47q24 -18 90 -18q52 0 147 5q10 -4 -4 42q-21 67 -99 257l53 67h6l74 -237
q33 -96 45 -111q20 -23 74 -23l7 -1v-79z" />
    <glyph glyph-name="uniFEAD" unicode="&#x631;" horiz-adv-x="332" arabic-form="isolated" 
d="M57 -183q-16 0 -80 34q-58 31 -69 40l6 13q55 -11 79 -11q78 0 141 69q46 51 72 125l-100 197l58 72h5q60 -186 59 -201q1 -3 1 -116q-3 -56 -56 -136q-59 -86 -116 -86z" />
    <glyph glyph-name="uniFEAE" unicode="&#x631;" horiz-adv-x="372" arabic-form="final" 
d="M51 -183q-15 0 -76 34q-48 26 -67 40l6 13q36 -10 72 -10q139 0 196 168q17 -2 -58 167l58 69l21 -87q19 -77 39 -96q22 -24 83 -24l7 -1v-79l-18 -1q-42 0 -101 51q-8 -85 -51 -158q-53 -86 -111 -86z" />
    <glyph glyph-name="uniFEAF" unicode="&#x632;" horiz-adv-x="332" arabic-form="isolated" 
d="M128 488q-28 21 -49 50q24 31 49 51q38 -31 51 -51q-19 -28 -51 -50zM57 -183q-16 0 -80 34q-58 31 -69 40l6 13q55 -11 79 -11q78 0 141 69q46 51 72 125l-100 197l58 72h5q60 -186 59 -201q1 -3 1 -116q-3 -56 -56 -136q-59 -86 -116 -86z" />
    <glyph glyph-name="uniFEB0" unicode="&#x632;" horiz-adv-x="372" arabic-form="final" 
d="M151 443q-31 22 -50 50q27 33 50 52q35 -30 50 -51q-19 -29 -50 -51zM51 -183q-15 0 -76 34q-48 26 -67 40l6 13q36 -10 72 -10q139 0 196 168q17 -2 -58 167l58 69l21 -87q19 -77 39 -96q22 -24 83 -24l7 -1v-79l-18 -1q-42 0 -101 51q-8 -85 -51 -158q-53 -86 -111 -86
z" />
    <glyph glyph-name="uniFEB1" unicode="&#x633;" horiz-adv-x="1023" arabic-form="isolated" 
d="M282 -183q-107 0 -155 53q-39 40 -39 111q0 96 72 207l10 -5q-35 -88 -35 -143q0 -140 168 -140q122 0 202 53q-18 115 -39 270l70 56h4l6 -176q34 -12 78 -12q39 0 74 7l42 154l48 31l1 -1q-6 -88 -19 -155q81 -47 184 -60l-28 240l64 52h5q9 -174 9 -253q0 -16 -35 -63
q-35 -45 -48 -45q-85 0 -194 84q-37 -72 -123 -72q-25 0 -57 17l-4 -33q-9 -50 -53 -110q-64 -67 -208 -67z" />
    <glyph glyph-name="uniFEB2" unicode="&#x633;" horiz-adv-x="1059" arabic-form="final" 
d="M282 -183q-107 0 -155 53q-39 40 -39 111q0 96 72 207l10 -5q-35 -88 -35 -143q0 -140 168 -140q122 0 202 53q-18 115 -39 270l70 56h4l6 -176q34 -12 78 -12q39 0 74 7l42 154l48 31l2 -1q-7 -84 -22 -171q46 -20 100 -20q36 0 88 11q-9 65 -18 167l65 50h5v-169
q0 -34 9 -45q14 -14 55 -14h30l7 -1v-79l-35 -1q-68 0 -105 78q-41 -78 -122 -78q-78 0 -123 66q-39 -66 -120 -66q-25 0 -57 17l-4 -33q-9 -50 -53 -110q-64 -67 -208 -67z" />
    <glyph glyph-name="uniFEB3" unicode="&#x633;" horiz-adv-x="697" arabic-form="initial" 
d="M629 106q0 -16 -35 -63q-34 -45 -48 -45q-88 0 -194 84q-40 -72 -124 -72q-78 0 -121 64q-48 -64 -112 -64l-7 1v79l7 1q44 0 92 8l33 102l48 31l1 -1q-8 -63 -18 -122q43 -18 97 -18q39 0 74 7l42 154l48 31l2 -1q-3 -58 -19 -155q78 -47 184 -60l-28 240l64 52h5
q9 -174 9 -253z" />
    <glyph glyph-name="uniFEB4" unicode="&#x633;" horiz-adv-x="733" arabic-form="medial" 
d="M733 11l-35 -1q-68 0 -105 78q-41 -78 -121 -78q-79 0 -124 66q-39 -66 -120 -66q-78 0 -121 64q-48 -64 -112 -64l-7 1v79l7 1q44 0 92 8l33 102l48 31l1 -1q-8 -63 -18 -122q43 -18 97 -18q39 0 74 7l42 154l48 31l2 -1q-7 -84 -22 -171q46 -20 100 -20q36 0 88 11
q-10 75 -19 167l66 50h5v-169q0 -34 9 -45q14 -14 55 -14h30l7 -1v-79z" />
    <glyph glyph-name="uniFEB5" unicode="&#x634;" horiz-adv-x="1023" arabic-form="isolated" 
d="M768 529q-25 19 -45 46q21 26 45 47q33 -25 47 -46q-18 -27 -47 -47zM872 462q-19 -28 -50 -50q-21 16 -54 57q-32 -40 -56 -57q-29 23 -48 50q23 28 47 49l58 -58q51 82 42 74l-3 -3q49 -41 64 -62zM282 -183q-107 0 -155 53q-39 40 -39 111q0 96 72 207l10 -5
q-35 -88 -35 -143q0 -140 168 -140q122 0 202 53q-18 115 -39 270l70 56h4l6 -176q34 -12 78 -12q39 0 74 7l42 154l48 31l1 -1q-6 -88 -19 -155q81 -47 184 -60l-28 240l64 52h5q9 -174 9 -253q0 -16 -35 -63q-35 -45 -48 -45q-85 0 -194 84q-37 -72 -123 -72q-25 0 -57 17
l-4 -33q-9 -50 -53 -110q-64 -67 -208 -67z" />
    <glyph glyph-name="uniFEB6" unicode="&#x634;" horiz-adv-x="1059" arabic-form="final" 
d="M768 524q-25 19 -45 46q21 26 45 47q33 -25 47 -46q-18 -27 -47 -47zM872 457q-19 -28 -50 -50q-21 17 -54 57q-32 -40 -56 -57q-29 23 -48 50q23 28 47 49l58 -58q51 82 42 74l-3 -3q49 -41 64 -62zM282 -183q-107 0 -155 53q-39 40 -39 111q0 96 72 207l10 -5
q-35 -88 -35 -143q0 -140 168 -140q122 0 202 53q-18 115 -39 270l70 56h4l6 -176q34 -12 78 -12q39 0 74 7l42 154l48 31l2 -1q-7 -84 -22 -171q46 -20 100 -20q36 0 88 11q-9 65 -18 167l65 50h5v-169q0 -34 9 -45q14 -14 55 -14h30l7 -1v-79l-35 -1q-68 0 -105 78
q-41 -78 -122 -78q-78 0 -123 66q-39 -66 -120 -66q-25 0 -57 17l-4 -33q-9 -50 -53 -110q-64 -67 -208 -67z" />
    <glyph glyph-name="uniFEB7" unicode="&#x634;" horiz-adv-x="697" arabic-form="initial" 
d="M380 524q-27 21 -45 47q19 21 45 46q37 -30 47 -46q-17 -27 -47 -47zM485 457q-19 -28 -50 -50q-13 11 -55 56q-34 -40 -56 -56q-28 22 -47 50q23 28 47 49q47 -47 54 -59l58 59q36 -30 49 -49zM629 106q0 -16 -35 -63q-34 -45 -48 -45q-88 0 -194 84q-40 -72 -124 -72
q-78 0 -121 64q-48 -64 -112 -64l-7 1v79l7 1q44 0 92 8l33 102l48 31l1 -1q-8 -63 -18 -122q43 -18 97 -18q39 0 74 7l42 154l48 31l2 -1q-3 -58 -19 -155q78 -47 184 -60l-28 240l64 52h5q9 -174 9 -253z" />
    <glyph glyph-name="uniFEB8" unicode="&#x634;" horiz-adv-x="733" arabic-form="medial" 
d="M378 524q-25 19 -45 46q7 9 46 47q34 -27 46 -46q-17 -27 -47 -47zM483 457q-19 -28 -50 -50q-13 11 -55 56q-34 -40 -56 -56q-28 22 -47 50q23 28 47 49l58 -58q51 82 42 74l-3 -3q49 -41 64 -62zM733 11l-35 -1q-68 0 -105 78q-41 -78 -121 -78q-79 0 -124 66
q-39 -66 -120 -66q-78 0 -121 64q-48 -64 -112 -64l-7 1v79l7 1q44 0 92 8l33 102l48 31l1 -1q-8 -63 -18 -122q43 -18 97 -18q39 0 74 7l42 154l48 31l2 -1q-7 -84 -22 -171q46 -20 100 -20q36 0 88 11q-10 75 -19 167l66 50h5v-169q0 -34 9 -45q14 -14 55 -14h30l7 -1v-79
z" />
    <glyph glyph-name="uniFEB9" unicode="&#x635;" horiz-adv-x="1063" arabic-form="isolated" 
d="M711 91l43 1q183 3 275 56q-27 70 -71 114q-50 47 -101 47q-116 0 -258 -211q64 -7 112 -7zM282 -183q-107 0 -155 53q-39 40 -39 111q0 96 72 207l10 -5q-35 -88 -35 -143q0 -140 168 -140q122 0 202 53q-18 115 -39 270l70 56h4l6 -169q17 -6 30 -8q150 292 309 292
q65 0 122 -76q52 -67 52 -128q0 -63 -59 -122q-61 -58 -283 -58h-19q-95 0 -151 35q-3 -48 -4 -50q-9 -52 -53 -111q-64 -67 -208 -67z" />
    <glyph glyph-name="uniFEBA" unicode="&#x635;" horiz-adv-x="1085" arabic-form="final" 
d="M711 91l43 1q183 3 275 56q-27 70 -71 114q-50 47 -101 47q-116 0 -258 -211q64 -7 112 -7zM282 -183q-107 0 -155 53q-39 40 -39 111q0 96 72 207l10 -5q-35 -88 -35 -143q0 -140 168 -140q122 0 202 53q-18 115 -39 270l70 56h4l6 -169q17 -6 30 -8q150 292 309 292
q65 0 122 -76q52 -67 52 -128q0 -28 -41 -99h110l7 -1v-79l-7 -1h-66q-34 0 -74 49q-97 -49 -271 -49h-19q-95 0 -151 35q-3 -48 -4 -50q-9 -52 -53 -111q-64 -67 -208 -67z" />
    <glyph glyph-name="uniFEBB" unicode="&#x635;" horiz-adv-x="767" arabic-form="initial" 
d="M359 91l42 1q183 3 275 56q-27 70 -71 114q-50 47 -100 47q-117 0 -259 -211q53 -7 113 -7zM364 10h-19q-160 0 -231 74q-51 -74 -119 -74l-7 1v79l7 1q44 0 92 8l33 104l48 32l1 -1l-14 -101q27 -21 69 -30q148 291 309 291q65 0 122 -76q51 -69 51 -128q0 -63 -59 -122
q-58 -58 -283 -58z" />
    <glyph glyph-name="uniFEBC" unicode="&#x635;" horiz-adv-x="784" arabic-form="medial" 
d="M359 91l42 1q183 3 275 56q-27 70 -71 114q-50 47 -100 47q-117 0 -259 -211q53 -7 113 -7zM784 11l-7 -1h-67q-33 0 -74 50q-98 -50 -272 -50h-19q-160 0 -231 74q-51 -74 -119 -74l-7 1v79l7 1q44 0 92 8l33 104l48 32l1 -1l-14 -101q27 -21 69 -30q148 291 309 291
q65 0 122 -76q51 -69 51 -128q0 -32 -40 -99h111l7 -1v-79z" />
    <glyph glyph-name="uniFEBD" unicode="&#x636;" horiz-adv-x="1063" arabic-form="isolated" 
d="M842 504q-31 22 -50 50q26 34 50 51q37 -31 50 -50q-19 -29 -50 -51zM711 91l43 1q183 3 275 56q-27 70 -71 114q-50 47 -101 47q-116 0 -258 -211q64 -7 112 -7zM282 -183q-107 0 -155 53q-39 40 -39 111q0 96 72 207l10 -5q-35 -88 -35 -143q0 -140 168 -140
q122 0 202 53q-18 115 -39 270l70 56h4l6 -169q17 -6 30 -8q150 292 309 292q65 0 122 -76q52 -67 52 -128q0 -63 -59 -122q-61 -58 -283 -58h-19q-95 0 -151 35q-3 -48 -4 -50q-9 -52 -53 -111q-64 -67 -208 -67z" />
    <glyph glyph-name="uniFEBE" unicode="&#x636;" horiz-adv-x="1085" arabic-form="final" 
d="M842 504q-31 22 -50 50q26 34 50 51q37 -31 50 -50q-19 -29 -50 -51zM711 91l43 1q183 3 275 56q-27 70 -71 114q-50 47 -101 47q-116 0 -258 -211q64 -7 112 -7zM282 -183q-107 0 -155 53q-39 40 -39 111q0 96 72 207l10 -5q-35 -88 -35 -143q0 -140 168 -140
q122 0 202 53q-18 115 -39 270l70 56h4l6 -169q17 -6 30 -8q150 292 309 292q65 0 122 -76q52 -67 52 -128q0 -28 -41 -99h110l7 -1v-79l-7 -1h-66q-34 0 -74 49q-97 -49 -271 -49h-19q-95 0 -151 35q-3 -48 -4 -50q-9 -52 -53 -111q-64 -67 -208 -67z" />
    <glyph glyph-name="uniFEBF" unicode="&#x636;" horiz-adv-x="767" arabic-form="initial" 
d="M492 504q-28 21 -49 50q24 31 49 51q38 -32 51 -50q-19 -29 -51 -51zM359 91l42 1q183 3 275 56q-27 70 -71 114q-50 47 -100 47q-117 0 -259 -211q53 -7 113 -7zM364 10h-19q-160 0 -231 74q-51 -74 -119 -74l-7 1v79l7 1q44 0 92 8l33 104l48 32l1 -1l-14 -101
q27 -21 69 -30q148 291 309 291q65 0 122 -76q51 -69 51 -128q0 -63 -59 -122q-58 -58 -283 -58z" />
    <glyph glyph-name="uniFEC0" unicode="&#x636;" horiz-adv-x="784" arabic-form="medial" 
d="M495 504q-28 21 -49 50q24 31 49 51q38 -32 51 -50q-20 -29 -51 -51zM359 91l42 1q183 3 275 56q-27 70 -71 114q-50 47 -100 47q-117 0 -259 -211q53 -7 113 -7zM784 11l-7 -1h-67q-33 0 -74 50q-98 -50 -272 -50h-19q-160 0 -231 74q-51 -74 -119 -74l-7 1v79l7 1
q44 0 92 8l33 104l48 32l1 -1l-14 -101q27 -21 69 -30q148 291 309 291q65 0 122 -76q51 -69 51 -128q0 -32 -40 -99h111l7 -1v-79z" />
    <glyph glyph-name="uniFEC1" unicode="&#x637;" horiz-adv-x="687" arabic-form="isolated" 
d="M301 91l58 1q180 3 274 55q-27 73 -71 115q-50 47 -103 47q-116 0 -257 -214q47 -4 99 -4zM322 10h-35q-94 0 -125 16l-112 82q43 -6 132 -11q38 70 55 95l-4 160q-4 143 -6 208l-22 57l80 79l9 -6v-47l43 -76l-44 -47v-147q0 -46 -34 -107l20 -15q113 143 213 143
q66 0 121 -76q51 -69 51 -128q0 -21 -23 -65q-21 -42 -36 -57q-58 -58 -283 -58z" />
    <glyph glyph-name="uniFEC2" unicode="&#x637;" horiz-adv-x="713" arabic-form="final" 
d="M301 91l58 1q180 3 274 55q-27 73 -71 115q-50 47 -103 47q-116 0 -257 -214q47 -4 99 -4zM744 11l-7 -1h-66q-35 0 -75 51q-99 -51 -274 -51h-35q-94 0 -125 16l-112 82q43 -6 132 -11q38 70 55 95l-4 160q-4 143 -6 208l-22 57l80 79l9 -6v-47l43 -76l-44 -47v-147
q0 -46 -34 -107l20 -15q113 143 213 143q66 0 121 -76q51 -69 51 -128q0 -25 -41 -99h114l7 -1v-79z" />
    <glyph glyph-name="uniFEC3" unicode="&#x637;" horiz-adv-x="592" arabic-form="initial" 
d="M196 10h-201l-7 1v79l7 1h59q30 58 57 101l-4 160q-5 149 -6 208l-22 57l80 79l9 -6v-47l43 -76l-44 -47v-147q0 -32 -33 -107l19 -15q113 143 213 143q66 0 121 -76q51 -69 51 -128q0 -21 -23 -65q-21 -42 -36 -57q-58 -58 -283 -58zM210 91l23 1q180 3 274 55
q-27 73 -71 115q-50 47 -103 47q-116 0 -260 -218h137z" />
    <glyph glyph-name="uniFEC4" unicode="&#x637;" horiz-adv-x="618" arabic-form="medial" 
d="M210 91l23 1q180 3 274 55q-27 73 -71 115q-50 47 -103 47q-116 0 -260 -218h137zM618 11l-7 -1h-66q-34 0 -76 51q-97 -51 -273 -51h-201l-7 1v79l7 1h59q30 58 57 101l-4 160q-5 149 -6 208l-22 57l80 79l9 -6v-47l43 -76l-44 -47v-147q0 -32 -33 -107l19 -15
q113 143 213 143q66 0 121 -76q51 -69 51 -128q0 -25 -41 -99h114l7 -1v-79z" />
    <glyph glyph-name="uniFEC5" unicode="&#x638;" horiz-adv-x="687" arabic-form="isolated" 
d="M486 543q-28 21 -49 50q24 31 49 51q37 -28 51 -50q-19 -28 -51 -51zM301 91l58 1q180 3 274 55q-27 73 -71 115q-50 47 -103 47q-116 0 -257 -214q47 -4 99 -4zM322 10h-35q-94 0 -125 16l-112 82q43 -6 132 -11q38 70 55 95l-4 160q-4 143 -6 208l-22 57l80 79l9 -6
v-47l43 -76l-44 -47v-147q0 -46 -34 -107l20 -15q113 143 213 143q66 0 121 -76q51 -69 51 -128q0 -21 -23 -65q-21 -42 -36 -57q-58 -58 -283 -58z" />
    <glyph glyph-name="uniFEC6" unicode="&#x638;" horiz-adv-x="713" arabic-form="final" 
d="M486 543q-28 21 -49 50q24 31 49 51q37 -28 51 -50q-19 -28 -51 -51zM301 91l58 1q180 3 274 55q-27 73 -71 115q-50 47 -103 47q-116 0 -257 -214q47 -4 99 -4zM744 11l-7 -1h-66q-35 0 -75 51q-99 -51 -274 -51h-35q-94 0 -125 16l-112 82q43 -6 132 -11q38 70 55 95
l-4 160q-4 143 -6 208l-22 57l80 79l9 -6v-47l43 -76l-44 -47v-147q0 -46 -34 -107l20 -15q113 143 213 143q66 0 121 -76q51 -69 51 -128q0 -25 -41 -99h114l7 -1v-79z" />
    <glyph glyph-name="uniFEC7" unicode="&#x638;" horiz-adv-x="592" arabic-form="initial" 
d="M196 10h-201l-7 1v79l7 1h59q30 58 57 101l-4 160q-5 149 -6 208l-22 57l80 79l9 -6v-47l43 -76l-44 -47v-147q0 -32 -33 -107l19 -15q113 143 213 143q66 0 121 -76q51 -69 51 -128q0 -21 -23 -65q-21 -42 -36 -57q-58 -58 -283 -58zM348 548q-28 21 -49 50q25 31 49 52
q38 -32 51 -51q-19 -29 -51 -51zM210 91l23 1q180 3 274 55q-27 73 -71 115q-50 47 -103 47q-116 0 -260 -218h137z" />
    <glyph glyph-name="uniFEC8" unicode="&#x638;" horiz-adv-x="618" arabic-form="medial" 
d="M348 548q-28 21 -49 50q25 31 49 52q38 -32 51 -51q-19 -29 -51 -51zM210 91l23 1q180 3 274 55q-27 73 -71 115q-50 47 -103 47q-116 0 -260 -218h137zM618 11l-7 -1h-66q-34 0 -76 51q-97 -51 -273 -51h-201l-7 1v79l7 1h59q30 58 57 101l-4 160q-5 149 -6 208l-22 57
l80 79l9 -6v-47l43 -76l-44 -47v-147q0 -32 -33 -107l19 -15q113 143 213 143q66 0 121 -76q51 -69 51 -128q0 -25 -41 -99h114l7 -1v-79z" />
    <glyph glyph-name="uniFEC9" unicode="&#x639;" horiz-adv-x="534" arabic-form="isolated" 
d="M555 -196l2 -6q-145 -94 -187 -94q-239 0 -289 134q-27 59 -11 113q18 111 121 187q-60 35 -88 80q-26 44 -26 77q0 67 36 113q20 33 66 61q50 29 89 29q62 0 124 -111l-9 -9l-85 52q-102 -8 -187 -93q20 -60 60 -100q50 -47 111 -47q83 0 185 63l-2 3l-38 -108
q-177 -43 -258 -109q-69 -51 -80 -125q53 -120 315 -120q67 0 151 10z" />
    <glyph glyph-name="uniFECA" unicode="&#x639;" horiz-adv-x="566" arabic-form="final" 
d="M329 146h6q131 59 174 143q-79 24 -185 24q-73 0 -155 -13q94 -96 108 -109q36 -34 52 -45zM588 -195l2 -6q-145 -94 -188 -94q-236 0 -288 138q-19 51 -10 101q19 92 170 172l-154 163l-39 -56l-9 5q42 115 73 128q75 27 198 27q145 0 186 -39q3 -4 1 -36q-3 -35 -7 -44
q-29 -80 -151 -150q61 -23 110 -23h119l7 -1v-79l-7 -1h-86q-107 0 -195 67q-175 -89 -197 -168q49 -114 313 -114q66 0 152 10z" />
    <glyph glyph-name="uniFECB" unicode="&#x639;" horiz-adv-x="487" arabic-form="initial" 
d="M439 159l-36 -89q-172 -60 -331 -60h-77l-7 1v79l7 1h141q-77 66 -77 132q0 64 34 107q20 33 66 61q50 29 89 29q62 0 124 -114l-8 -8l-86 54q-104 -8 -186 -93q19 -58 64 -100q53 -47 115 -47q80 0 170 45z" />
    <glyph glyph-name="uniFECC" unicode="&#x639;" horiz-adv-x="569" arabic-form="medial" 
d="M312 130l8 4q105 54 165 150q-89 23 -186 23q-67 0 -157 -14q81 -85 97 -100q45 -43 73 -63zM569 11l-7 -1h-68q-110 0 -196 57q-112 -57 -241 -57h-62l-7 1v79l7 1h144q49 0 109 16l-35 34l-57 62l-64 68l-36 -51l-8 5q41 116 71 126q69 27 200 27q145 0 186 -39
q4 -4 1 -37q-2 -33 -7 -41q-47 -83 -140 -157q48 -13 86 -13h117l7 -1v-79z" />
    <glyph glyph-name="uniFECD" unicode="&#x63a;" horiz-adv-x="534" arabic-form="isolated" 
d="M248 612q-27 18 -49 50q24 31 49 51q38 -31 51 -51q-20 -29 -51 -50zM555 -196l2 -6q-145 -94 -187 -94q-239 0 -289 134q-27 59 -11 113q18 111 121 187q-60 35 -88 80q-26 44 -26 77q0 67 36 113q20 33 66 61q50 29 89 29q62 0 124 -111l-9 -9l-85 52q-102 -8 -187 -93
q20 -60 60 -100q50 -47 111 -47q83 0 185 63l-2 3l-38 -108q-177 -43 -258 -109q-69 -51 -80 -125q53 -120 315 -120q67 0 151 10z" />
    <glyph glyph-name="uniFECE" unicode="&#x63a;" horiz-adv-x="566" arabic-form="final" 
d="M325 530q-27 18 -49 50q24 31 49 51q37 -31 51 -51q-20 -29 -51 -50zM329 146h6q131 59 174 143q-79 24 -185 24q-73 0 -155 -13q94 -96 108 -109q36 -34 52 -45zM588 -195l2 -6q-145 -94 -188 -94q-236 0 -288 138q-19 51 -10 101q19 92 170 172l-154 163l-39 -56l-9 5
q42 115 73 128q75 27 198 27q145 0 186 -39q3 -4 1 -36q-3 -35 -7 -44q-29 -80 -151 -150q61 -23 110 -23h119l7 -1v-79l-7 -1h-86q-107 0 -195 67q-175 -89 -197 -168q49 -114 313 -114q66 0 152 10z" />
    <glyph glyph-name="uniFECF" unicode="&#x63a;" horiz-adv-x="487" arabic-form="initial" 
d="M239 532q-28 21 -49 50q24 31 49 51q38 -32 51 -50q-20 -29 -51 -51zM439 159l-36 -89q-172 -60 -331 -60h-77l-7 1v79l7 1h141q-77 66 -77 132q0 64 34 107q20 33 66 61q50 29 89 29q62 0 124 -114l-8 -8l-86 54q-104 -8 -186 -93q19 -58 64 -100q53 -47 115 -47
q80 0 170 45z" />
    <glyph glyph-name="uniFED0" unicode="&#x63a;" horiz-adv-x="569" arabic-form="medial" 
d="M291 506q-28 21 -49 50q25 31 49 52q37 -32 51 -51q-20 -29 -51 -51zM312 130l8 4q105 54 165 150q-89 23 -186 23q-67 0 -157 -14q81 -85 97 -100q45 -43 73 -63zM569 11l-7 -1h-68q-110 0 -196 57q-112 -57 -241 -57h-62l-7 1v79l7 1h144q49 0 109 16l-35 34l-57 62
l-64 68l-36 -51l-8 5q41 116 71 126q69 27 200 27q145 0 186 -39q4 -4 1 -37q-2 -33 -7 -41q-47 -83 -140 -157q48 -13 86 -13h117l7 -1v-79z" />
    <glyph glyph-name="uniFED1" unicode="&#x641;" horiz-adv-x="746" arabic-form="isolated" 
d="M596 615q-31 22 -50 50q20 25 50 52q35 -30 50 -51q-19 -29 -50 -51zM569 232q52 0 117 17q-40 156 -115 156q-38 0 -70 -44q-28 -37 -40 -94q47 -35 108 -35zM335 10q-247 0 -247 168q0 96 71 203l13 -7q-37 -80 -37 -137q0 -146 219 -146q222 0 340 12q4 33 4 49
q0 41 -13 97l-39 -69q-36 -15 -85 -15q-65 0 -90 33q-28 40 -28 86q2 64 44 127q47 72 107 72t102 -94q40 -86 40 -198q0 -25 -5 -58q-4 -19 -35 -59q-30 -40 -38 -43q-64 -21 -323 -21z" />
    <glyph glyph-name="uniFED2" unicode="&#x641;" horiz-adv-x="807" arabic-form="final" 
d="M652 549q-28 21 -49 50q25 31 49 52q38 -31 51 -51q-19 -28 -51 -51zM657 109l15 7q31 17 64 53q-5 68 -32 118q-31 61 -76 61q-33 0 -71 -38q-36 -34 -55 -86q58 -75 155 -115zM859 11l-8 -1h-45q-77 0 -162 41q-124 -59 -311 -59q-243 0 -243 166q0 96 71 203l13 -7
q-37 -80 -37 -138q0 -142 215 -142q125 0 230 13q-69 54 -85 88q-17 39 -9 78q8 52 57 110q55 66 110 66q48 0 86 -65q38 -68 38 -151q0 -48 -81 -120l44 -2h109l8 -1v-79z" />
    <glyph glyph-name="uniFED3" unicode="&#x641;" horiz-adv-x="404" arabic-form="initial" 
d="M187 612q-28 21 -49 50q24 31 49 51q37 -31 51 -51q-19 -28 -51 -50zM110 10h-115l-7 1v79l7 1h157q91 0 150 13q4 20 4 48q0 27 -11 98l-41 -70q-36 -15 -85 -15q-69 0 -89 33q-29 38 -29 86q2 64 44 127q47 72 107 72t102 -94q40 -86 40 -198q0 -33 -6 -58
q-4 -23 -33 -63q-25 -36 -33 -38q-44 -22 -162 -22zM177 232q52 0 117 17q-40 156 -115 156q-38 0 -70 -44q-28 -37 -40 -94q47 -35 108 -35z" />
    <glyph glyph-name="uniFED4" unicode="&#x641;" horiz-adv-x="438" arabic-form="medial" 
d="M214 546q-28 21 -49 50q24 31 49 51q37 -28 51 -50q-19 -29 -51 -51zM238 109l13 7q35 22 64 54q-4 66 -32 117q-31 61 -75 61q-33 0 -71 -38q-36 -34 -55 -86q58 -76 156 -115zM438 11l-7 -1h-46q-81 0 -169 45q-82 -45 -171 -45h-50l-7 1v79l7 1h158q-62 53 -77 84
q-16 39 -9 78q8 52 57 110q56 66 110 66q49 0 87 -65q38 -68 38 -151q0 -47 -81 -120l44 -2h109l7 -1v-79z" />
    <glyph glyph-name="uniFED5" unicode="&#x642;" horiz-adv-x="610" arabic-form="isolated" 
d="M542 533q-18 -28 -52 -52q-22 16 -55 59q-30 -39 -58 -59q-31 24 -49 51q25 31 49 52q38 -32 57 -59q41 45 56 59q40 -34 52 -51zM431 90q64 0 124 16q-46 175 -123 175q-43 0 -78 -50q-31 -41 -43 -107q37 -34 120 -34zM280 -184q-196 0 -196 164q0 96 72 206l9 -5
q-35 -84 -35 -139q0 -143 171 -143q157 0 264 63q2 81 -11 148l-49 -85q-29 -15 -83 -15q-70 0 -100 38q-28 40 -28 91q3 73 46 143q50 77 114 77q58 0 100 -85t42 -194q0 -60 -6 -85q-2 -14 -22 -56q-20 -43 -30 -50q-103 -73 -258 -73z" />
    <glyph glyph-name="uniFED6" unicode="&#x642;" horiz-adv-x="624" arabic-form="final" 
d="M540 535q-18 -28 -52 -52q-13 9 -56 59q-32 -43 -57 -59q-31 24 -49 51q25 31 49 52q36 -30 57 -61q33 39 56 61q39 -33 52 -51zM567 91l-3 17q-16 69 -47 117q-38 56 -79 56q-43 0 -79 -52q-32 -44 -42 -106q44 -32 139 -32h111zM285 -184q-197 0 -197 164q0 96 72 206
l10 -5q-35 -84 -35 -139q0 -143 171 -143q165 0 263 65l1 46h-121q-82 0 -120 38q-31 43 -28 91q3 73 46 143q48 77 113 77q54 0 95 -77t45 -191h67l7 -1v-79l-7 -1h-70l-2 -16q-2 -13 -22 -55q-20 -43 -30 -50q-103 -73 -258 -73z" />
    <glyph glyph-name="uniFED7" unicode="&#x642;" horiz-adv-x="404" arabic-form="initial" 
d="M302 655q-20 -29 -52 -52q-22 16 -55 59q-30 -39 -58 -59q-31 24 -49 51q25 31 49 52q38 -32 57 -59q45 50 56 59q40 -34 52 -51zM120 10h-115l-7 1v79l7 1h157q91 0 150 13q4 20 4 48q0 27 -11 98l-41 -70q-36 -15 -85 -15q-64 0 -89 33q-31 40 -28 86q1 61 43 127
q47 72 107 72t102 -94q40 -86 40 -198q0 -33 -6 -58q-4 -23 -33 -63q-25 -36 -33 -38q-44 -22 -162 -22zM187 232q52 0 117 17q-40 156 -115 156q-38 0 -70 -44q-28 -37 -40 -94q47 -35 108 -35z" />
    <glyph glyph-name="uniFED8" unicode="&#x642;" horiz-adv-x="438" arabic-form="medial" 
d="M323 598q-20 -29 -52 -52q-21 17 -56 59q-31 -39 -57 -59q-31 24 -49 51q25 31 49 52q38 -31 57 -60q30 38 56 60q39 -33 52 -51zM238 109l13 7q35 22 64 54q-4 66 -32 117q-31 61 -75 61q-33 0 -71 -38q-36 -34 -55 -86q58 -76 156 -115zM438 11l-7 -1h-46
q-81 0 -169 45q-82 -45 -171 -45h-50l-7 1v79l7 1h158q-62 53 -77 84q-16 39 -9 78q8 52 57 110q56 66 110 66q49 0 87 -65q38 -68 38 -151q0 -47 -81 -120l44 -2h109l7 -1v-79z" />
    <glyph glyph-name="uniFED9" unicode="&#x643;" horiz-adv-x="743" arabic-form="isolated" 
d="M358 262l-75 51v-15q131 6 186 18q-20 16 -90 32q-42 10 -42 31q0 35 36 66q35 29 79 42l-1 1v-54q-60 -13 -119 -48q87 -14 100 -17q37 -9 37 -40q0 -27 -25 -49q-11 -11 -86 -18zM335 10q-247 0 -247 168q0 96 71 203l13 -7q-37 -80 -37 -137q0 -146 219 -146
q144 0 282 11l-11 446l-26 67l83 81l8 -5v-47l43 -76l-44 -47v-347q0 -28 -37 -86q-35 -54 -53 -62q-63 -16 -264 -16z" />
    <glyph glyph-name="uniFEDA" unicode="&#x643;" horiz-adv-x="747" arabic-form="final" 
d="M353 262l-74 51v-15q131 6 186 18q-20 15 -91 32q-42 10 -42 31q0 35 36 66q35 29 79 42l-1 1v-54q-60 -13 -119 -48q75 -10 100 -17q37 -9 37 -40q0 -25 -24 -49q-10 -10 -87 -18zM795 11l-7 -1q-110 0 -147 114l-53 -87q-58 -27 -257 -27q-247 0 -247 168q0 96 71 203
l13 -7q-37 -80 -37 -137q0 -146 219 -146q173 0 280 22l-13 526l64 60h4v-478q0 -71 12 -93q21 -37 91 -37l7 -1v-79z" />
    <glyph glyph-name="uniFEDB" unicode="&#x643;" horiz-adv-x="469" arabic-form="initial" 
d="M133 10h-138l-7 1v79l7 1h150q155 0 207 16q-41 94 -226 209l-18 -17l-71 51l16 57q18 58 24 61l340 196l-17 -88l-304 -157q150 -82 226 -166q61 -67 61 -111q0 -7 -20 -56q-21 -47 -31 -54q-28 -22 -199 -22z" />
    <glyph glyph-name="uniFEDC" unicode="&#x643;" horiz-adv-x="452" arabic-form="medial" 
d="M31 10h-36l-7 1v79l7 1h59q95 0 131 10q3 60 -47 137l-96 138q-2 7 14 49q16 46 23 48l294 196l-17 -89l-256 -161l122 -175q56 -82 103 -119q43 -34 106 -34l21 -1v-79l-21 -1q-66 0 -110 29q-28 19 -95 101q-58 -109 -74 -115q-30 -15 -121 -15z" />
    <glyph glyph-name="uniFEDD" unicode="&#x644;" horiz-adv-x="597" arabic-form="isolated" 
d="M285 -183q-197 0 -197 164q0 96 71 203l13 -7q-37 -80 -37 -137q0 -140 171 -140q92 0 186 45q-13 566 -14 605l-26 65l83 81l9 -5v-46l43 -78l-43 -46v-500q0 -29 -36 -92q-33 -55 -48 -69q-52 -43 -175 -43z" />
    <glyph glyph-name="uniFEDE" unicode="&#x644;" horiz-adv-x="611" arabic-form="final" 
d="M285 -183q-197 0 -197 164q0 96 71 203l13 -7q-37 -80 -37 -137q0 -140 171 -140q92 0 188 45l-17 694l65 60h3v-489q0 -64 17 -87q23 -31 92 -32l7 -1v-79l-7 -1q-60 0 -109 52v-37q-1 -31 -39 -97q-32 -59 -46 -70q-53 -41 -175 -41z" />
    <glyph glyph-name="uniFEDF" unicode="&#x644;" horiz-adv-x="282" arabic-form="initial" 
d="M-5 10l-7 1v79l7 1q91 0 130 9l-11 455l-24 62l80 79l9 -5v-44l44 -79l-44 -47v-359q0 -22 -42 -78q-41 -52 -60 -66q-14 -8 -82 -8z" />
    <glyph glyph-name="uniFEE0" unicode="&#x644;" horiz-adv-x="299" arabic-form="medial" 
d="M299 11l-7 -1q-102 0 -142 109q-56 -91 -69 -99q-16 -10 -86 -10l-7 1v79l7 1q86 0 131 9l-14 539l64 60h4v-485q0 -67 18 -91q23 -31 94 -32l7 -1v-79z" />
    <glyph glyph-name="uniFEE1" unicode="&#x645;" horiz-adv-x="509" arabic-form="isolated" 
d="M128 -289h-13l-14 120q-13 100 -13 127q0 29 44 79q40 45 61 52q17 5 73 5q80 0 208 -17q-129 207 -214 219l-75 -79l-7 5q21 56 53 102q7 13 42 31q31 16 42 16q38 0 104 -94q61 -86 85 -156q4 -11 -28 -66q-31 -52 -37 -52q-156 10 -217 10q-44 0 -86 -7
q28 -115 30 -131q0 -39 -38 -164z" />
    <glyph glyph-name="uniFEE2" unicode="&#x645;" horiz-adv-x="591" arabic-form="final" 
d="M255 121l14 -9q52 -30 245 -28l-30 69q-32 74 -40 85q-25 43 -58 43q-38 0 -78 -52q-35 -49 -53 -108zM153 -289h-13l-21 169q-21 165 -21 230q0 34 33 92q34 58 62 72q160 85 219 85q34 0 60 -36q21 -27 50 -98q38 -92 44 -102q21 -32 63 -32l17 -1v-79l-26 -1
q-62 0 -103 68l-55 -75q-140 3 -181 32q-4 1 -25 42q-22 41 -20 46q4 57 49 140q-106 -48 -133 -79q3 -37 21 -157q18 -119 21 -149q0 -46 -41 -167z" />
    <glyph glyph-name="uniFEE3" unicode="&#x645;" horiz-adv-x="465" arabic-form="initial" 
d="M146 43l-31 84q-32 -74 -53 -94q-26 -23 -67 -23l-7 1v79l7 1q43 0 66 17q20 17 35 54q37 96 65 137q41 60 96 60q59 0 105 -88q42 -81 42 -157q0 -20 -29 -67q-27 -43 -32 -43q-123 0 -197 39zM368 81l-6 25q-14 67 -47 117q-37 58 -78 58q-59 0 -105 -111l-19 -45
q98 -42 255 -44z" />
    <glyph glyph-name="uniFEE4" unicode="&#x645;" horiz-adv-x="504" arabic-form="medial" 
d="M113 121l14 -9q52 -30 246 -28l-32 69q-32 71 -39 85q-25 43 -59 43q-38 0 -77 -52q-35 -49 -53 -108zM504 11l-27 -1q-61 0 -102 68l-56 -75q-139 2 -181 32q-4 2 -33 59q-37 -84 -110 -84l-7 1v79l7 1q58 0 99 29q7 85 59 159q56 80 116 80q34 0 61 -36q22 -32 50 -98
q34 -83 43 -101q21 -33 64 -33l17 -1v-79z" />
    <glyph glyph-name="uniFEE5" unicode="&#x646;" horiz-adv-x="559" arabic-form="isolated" 
d="M313 322q-28 21 -49 50q25 31 49 52q37 -32 51 -51q-20 -29 -51 -51zM285 -183q-197 0 -197 164q0 96 71 203l10 -5q-34 -78 -34 -139q0 -140 171 -140q110 0 201 48q-11 121 -63 293l65 59h6q39 -170 32 -309q-2 -21 -26 -62q-22 -43 -31 -50q-62 -62 -205 -62z" />
    <glyph glyph-name="uniFEE6" unicode="&#x646;" horiz-adv-x="617" arabic-form="final" 
d="M326 323q-28 21 -49 50q24 31 49 51q38 -32 51 -51q-19 -28 -51 -50zM285 -183q-197 0 -197 164q0 96 71 203l10 -5q-34 -78 -34 -139q0 -140 171 -140q108 0 201 48l-36 280l64 50h6l3 -66q5 -69 19 -91q23 -30 97 -30l7 -1v-79l-7 -1q-64 0 -112 68l2 -70
q-26 -98 -60 -129q-62 -62 -205 -62z" />
    <glyph glyph-name="uniFEE7" unicode="&#x646;" horiz-adv-x="270" arabic-form="initial" 
d="M143 518q-28 21 -49 50q25 31 49 52q37 -32 51 -51q-20 -29 -51 -51zM-5 10l-7 1v79l7 1q109 0 150 9q-14 105 -48 232l62 60h6l37 -102l-1 -6l-23 -24q11 -102 7 -124q-1 -17 -30 -61q-28 -46 -44 -54q-28 -11 -116 -11z" />
    <glyph glyph-name="uniFEE8" unicode="&#x646;" horiz-adv-x="298" arabic-form="medial" 
d="M162 437q-28 21 -49 50q25 31 49 52q38 -31 51 -51q-19 -28 -51 -51zM298 11l-13 -1q-101 0 -156 72q-47 -57 -55 -62q-20 -10 -79 -10l-7 1v79l7 1q62 0 106 11l37 164l56 36q-9 -140 -24 -183q40 -28 121 -28l7 -1v-79z" />
    <glyph glyph-name="uniFEE9" unicode="&#x647;" horiz-adv-x="387" arabic-form="isolated" 
d="M212 10q-70 0 -108 36q-20 18 -24 39q-7 29 5 84q24 72 104 180q-15 11 -20 16l-7 7l42 80h8q166 -166 166 -317q0 -15 -21 -55q-19 -37 -24 -40q-42 -30 -121 -30zM230 91q69 0 120 22q-16 99 -128 205q-96 -96 -121 -181q46 -46 129 -46z" />
    <glyph glyph-name="uniFEEA" unicode="&#x647;" horiz-adv-x="453" arabic-form="final" 
d="M500 11l-7 -1h-41q-94 0 -113 141l-54 -85q-32 -8 -63 -8q-104 0 -134 59q-4 10 0 46t12 45q49 74 218 166l-3 43l66 48h5v-297q0 -50 12 -64q12 -13 59 -13h36l7 -1v-79zM336 145l-14 173q-142 -64 -208 -134q50 -48 138 -48q34 0 84 9z" />
    <glyph glyph-name="uniFEEB" unicode="&#x647;" horiz-adv-x="509" arabic-form="initial" 
d="M212 107l13 6q35 20 52 58q-6 62 -31 101q-29 47 -60 47q-29 0 -64 -38q-30 -34 -50 -79q49 -52 140 -95zM425 46l-4 17q-23 105 -127 200q15 -46 15 -58q1 -54 -61 -115q93 -37 177 -44zM448 72q1 -18 -26 -59q-26 -38 -34 -38q-74 0 -199 74q-77 -39 -154 -39h-40l-7 1
v79l7 1h129q-45 37 -50 43q-22 41 -11 92q18 69 84 124l-43 23l33 75l9 2q177 -113 244 -206q58 -76 58 -172z" />
    <glyph glyph-name="uniFEEC" unicode="&#x647;" horiz-adv-x="461" arabic-form="medial" 
d="M102 91h15q141 0 193 82q-12 47 -33 80q-25 40 -50 40q-29 0 -67 -51q-40 -54 -58 -151zM300 -116q42 0 79 12q-27 131 -185 143q-14 0 -93 -17q51 -138 199 -138zM359 -182q-12 -12 -71 -12q-71 0 -125 48q-61 55 -81 163q-49 -7 -87 -7l-7 1v79l7 1l84 1q18 128 79 211
q54 78 101 78q33 0 61 -63q24 -56 24 -100q0 -40 -44 -96l-33 -31h187l7 -1v-79l-7 -1h-92q47 -42 47 -64q2 -17 -22 -70q-21 -51 -28 -58z" />
    <glyph glyph-name="uniFEED" unicode="&#x648;" horiz-adv-x="433" arabic-form="isolated" 
d="M263 90q61 0 123 15q-45 176 -122 176q-43 0 -78 -50q-31 -41 -43 -107q37 -34 120 -34zM250 -183q-14 0 -79 35q-59 31 -69 41l6 13q51 -12 88 -12q148 0 204 126q-1 23 -13 86l-50 -81q-29 -15 -83 -15q-70 0 -100 38q-28 40 -28 91q3 73 46 143q50 77 114 77
q58 0 101 -84q42 -84 42 -195q0 -30 -8 -80q-16 -73 -61 -125q-49 -58 -110 -58z" />
    <glyph glyph-name="uniFEEE" unicode="&#x648;" horiz-adv-x="444" arabic-form="final" 
d="M392 91v14q-13 64 -46 115q-39 61 -82 61t-79 -52q-32 -44 -42 -107q46 -31 141 -31h108zM250 -183q-14 0 -79 35q-59 31 -69 41l6 13q51 -12 88 -12q141 0 212 116h-124q-101 0 -129 37q-29 47 -29 92q3 73 46 143q50 77 114 77q54 0 96 -80q40 -78 45 -188h67l7 -1v-79
l-7 -1h-74q-15 -81 -59 -134q-50 -59 -111 -59z" />
    <glyph glyph-name="uniFEEF" unicode="&#x649;" horiz-adv-x="641" arabic-form="isolated" 
d="M288 -192q-106 0 -159 53q-41 44 -41 112q0 96 71 206l13 -6q-37 -74 -37 -131q0 -147 171 -147q159 0 293 71q-15 54 -126 82q-121 30 -141 68q-23 49 -4 108q14 56 78 108q73 61 153 61q16 0 38 -34q21 -33 21 -49t-15 -93h-10l-22 100q-175 -9 -231 -128
q26 -29 144 -61q139 -37 139 -126q0 -68 -32 -103q-22 -22 -100 -51q-101 -40 -203 -40z" />
    <glyph glyph-name="uniFEF0" unicode="&#x649;" horiz-adv-x="601" arabic-form="final" 
d="M288 -220q-104 0 -157 53q-43 43 -43 111q0 97 71 207l13 -7q-37 -74 -37 -130q0 -147 171 -147q158 0 280 65q-42 78 -150 78h-11l2 -4l27 85h190l7 -1v-79l-7 -1h-55q21 -30 21 -43q0 -23 -16 -64q-16 -42 -24 -49q-104 -74 -282 -74z" />
    <glyph glyph-name="uniFEF1" unicode="&#x64a;" horiz-adv-x="641" arabic-form="isolated" 
d="M288 -192q-106 0 -159 53q-41 44 -41 112q0 96 71 206l13 -6q-37 -74 -37 -131q0 -147 171 -147q159 0 293 71q-15 54 -126 82q-121 30 -141 68q-23 49 -4 108q14 56 78 108q73 61 153 61q16 0 38 -34q21 -33 21 -49t-15 -93h-10l-22 100q-175 -9 -231 -128
q26 -29 144 -61q139 -37 139 -126q0 -68 -32 -103q-22 -22 -100 -51q-101 -40 -203 -40zM470 -333q-20 -29 -52 -52q-22 16 -55 59q-30 -39 -58 -59q-31 24 -49 51q25 31 49 52q38 -32 57 -59q45 50 56 59q40 -34 52 -51z" />
    <glyph glyph-name="uniFEF2" unicode="&#x64a;" horiz-adv-x="601" arabic-form="final" 
d="M288 -220q-104 0 -157 53q-43 43 -43 111q0 97 71 207l13 -7q-37 -74 -37 -130q0 -147 171 -147q158 0 280 65q-42 78 -150 78h-11l2 -4l27 85h190l7 -1v-79l-7 -1h-55q21 -30 21 -43q0 -23 -16 -64q-16 -42 -24 -49q-104 -74 -282 -74zM444 -365q-20 -28 -52 -51
q-25 19 -55 58q-29 -38 -58 -58q-28 21 -49 50q25 31 49 52q38 -32 57 -59q35 41 56 59q40 -34 52 -51z" />
    <glyph glyph-name="uniFEF3" unicode="&#x64a;" horiz-adv-x="270" arabic-form="initial" 
d="M-5 10l-7 1v79l7 1q109 0 150 9q-14 105 -48 232l62 60h6l37 -102l-1 -6l-23 -24q11 -102 7 -124q-1 -17 -30 -61q-28 -46 -44 -54q-28 -11 -116 -11zM206 -131q-19 -28 -49 -49l-54 56q-29 -39 -53 -56q-28 19 -46 48q23 29 46 49q36 -32 54 -58q36 42 53 58
q37 -30 49 -48z" />
    <glyph glyph-name="uniFEF4" unicode="&#x64a;" horiz-adv-x="298" arabic-form="medial" 
d="M298 11l-13 -1q-101 0 -156 72q-47 -57 -55 -62q-20 -10 -79 -10l-7 1v79l7 1q62 0 106 11l37 164l56 36q-9 -140 -24 -183q40 -28 121 -28l7 -1v-79zM240 -131q-18 -28 -49 -49q-15 12 -52 56q-34 -42 -55 -56q-28 19 -46 48q23 29 46 49q36 -32 54 -58q36 42 53 58
q35 -28 49 -48z" />
    <glyph glyph-name=".notdef" horiz-adv-x="306" 
 />
    <glyph glyph-name=".null" 
 />
    <glyph glyph-name="nonmarkingreturn" horiz-adv-x="333" 
 />
    <glyph glyph-name="space" unicode=" " horiz-adv-x="212" 
 />
    <glyph glyph-name="exclam" unicode="!" horiz-adv-x="258" 
d="M202 200h-5l-29 397l69 55h3q4 -77 4 -330q0 -10 -42 -122zM206 -14q-37 27 -58 58q32 40 58 60q37 -30 59 -59q-21 -32 -59 -59z" />
    <glyph glyph-name="quotedbl" unicode="&#x22;" horiz-adv-x="370" 
d="M303 418v192h73l-21 -192h-52zM140 418v192h70l-19 -192h-51z" />
    <glyph glyph-name="numbersign" unicode="#" horiz-adv-x="621" 
d="M301 392l-40 -181h147l40 181h-147zM137 392v32h130l33 149h41l-33 -149h148l33 149h41l-33 -149h116v-32h-123l-40 -181h123v-33h-130l-37 -168h-43l37 168h-146l-37 -168h-43l37 168h-113v33h121l40 181h-122z" />
    <glyph glyph-name="dollar" unicode="$" horiz-adv-x="485" 
d="M285 318v182q-103 -13 -103 -89q0 -53 103 -93zM310 225v-194q99 19 99 101q0 52 -99 93zM442 379l-21 87q-49 31 -111 35v-190q82 -27 122 -56q52 -40 52 -106q0 -63 -48 -102q-44 -35 -126 -45v-79h-25v77h-14q-90 0 -161 31v127h18l25 -91q58 -34 132 -38v203
q-91 32 -119 52q-50 38 -50 97q0 62 47 103q44 38 122 47v70h25v-69q94 -3 150 -30v-123h-18z" />
    <glyph glyph-name="percent" unicode="%" horiz-adv-x="689" 
d="M92 405q0 68 34 108q32 38 84 38q54 0 84 -34q34 -37 34 -109q0 -67 -34 -104q-32 -36 -84 -36q-53 0 -84 34q-34 34 -34 103zM271 10h-41l276 531h40zM214 290q64 0 64 114q0 122 -71 122q-34 0 -51 -29q-14 -30 -14 -90q0 -117 72 -117zM573 2q-54 0 -85 34
q-34 34 -34 103q0 68 34 108q32 38 85 38t84 -34q34 -37 34 -109q0 -67 -34 -104q-31 -36 -84 -36zM576 24q64 0 64 114q0 122 -71 122q-64 0 -64 -119q0 -117 71 -117z" />
    <glyph glyph-name="ampersand" unicode="&#x26;" horiz-adv-x="680" 
d="M205 459q0 -57 78 -139q105 64 105 141q0 99 -89 99q-44 0 -70 -29q-24 -29 -24 -72zM293 210q-53 45 -92 89q-48 -59 -48 -120q0 -53 33 -90q38 -44 101 -44q69 0 145 55q-80 58 -139 110zM695 17v-7h-118q-51 26 -116 71q-91 -79 -209 -79q-82 0 -131 45q-43 40 -43 99
q0 107 121 155q-65 80 -65 129q0 61 44 105q50 47 127 47q74 0 118 -35q39 -31 39 -84q0 -43 -42 -81q-45 -41 -136 -63q58 -54 74 -67q53 -47 127 -100q53 65 94 154l-68 25v16h183v-18l-66 -20q-56 -101 -116 -176q118 -81 183 -116z" />
    <glyph glyph-name="quotesingle" unicode="'" horiz-adv-x="205" 
d="M140 418v192h71l-20 -192h-51z" />
    <glyph glyph-name="parenleft" unicode="(" horiz-adv-x="290" 
d="M278 -148l-23 -24q-193 165 -193 431q0 154 86 288q51 81 107 124l22 -22q-47 -41 -96 -123q-75 -128 -75 -266q0 -242 172 -408z" />
    <glyph glyph-name="parenright" unicode=")" horiz-adv-x="290" 
d="M109 -171l-23 23q172 172 172 408q0 140 -75 267q-52 86 -97 122l24 23q55 -44 106 -124q85 -133 85 -289q0 -154 -82 -293q-51 -87 -110 -137z" />
    <glyph glyph-name="asterisk" unicode="*" horiz-adv-x="377" 
d="M378 427l-5 -23l-19 -19l-113 95l27 -143l-24 -8l-24 8l23 144l-109 -95l-16 16l-6 25l132 48l-132 51l5 25l19 16l109 -96l-24 145l23 6l24 -6l-27 -143l114 94l20 -16l3 -25l-142 -50z" />
    <glyph glyph-name="plus" unicode="+" horiz-adv-x="497" 
d="M494 272l-168 2l2 -186h-51l1 186l-168 -2v46l168 -1l-1 186h51l-2 -186l168 1v-46z" />
    <glyph glyph-name="comma" unicode="," horiz-adv-x="281" 
d="M263 39q0 -56 -41 -118q-42 -61 -100 -94l-12 13q72 61 72 134q0 46 -47 72q0 17 20 37t45 20q28 0 46 -18q17 -20 17 -46z" />
    <glyph glyph-name="hyphen" unicode="-" horiz-adv-x="332" 
d="M332 214h-212v49h212v-49z" />
    <glyph glyph-name="period" unicode="." horiz-adv-x="234" 
d="M173 -14q-33 24 -57 58q30 38 57 60q43 -34 60 -59q-22 -34 -60 -59z" />
    <glyph glyph-name="slash" unicode="/" horiz-adv-x="299" 
d="M297 660l-209 -738h-48l211 738h46z" />
    <glyph glyph-name="zero" unicode="0" horiz-adv-x="510" 
d="M508 280q0 -122 -57 -199q-58 -79 -158 -79q-101 0 -154 71q-49 67 -49 189q0 121 56 201q60 85 160 85q108 0 159 -80q43 -67 43 -188zM304 28q113 0 113 247q0 95 -27 163q-34 85 -97 85q-62 0 -94 -86q-23 -71 -23 -171q0 -104 28 -164q35 -74 100 -74z" />
    <glyph glyph-name="one" unicode="1" horiz-adv-x="400" 
d="M89 10v19l117 26v421h-130v19l182 51h31v-492l115 -24v-20h-315z" />
    <glyph glyph-name="two" unicode="2" horiz-adv-x="446" 
d="M437 134l-7 -124h-369l-7 45q129 112 181 171q87 98 87 173q0 52 -31 83q-32 32 -77 32q-81 0 -121 -85h-22v70q61 49 158 49q78 0 127 -37q53 -41 53 -113q0 -145 -288 -316l4 -20h254l46 76z" />
    <glyph glyph-name="three" unicode="3" horiz-adv-x="431" 
d="M86 113h21q32 -83 126 -83q50 0 81 28q35 32 35 82q0 112 -170 117v31q50 4 95 40q49 40 49 95q0 42 -30 69q-29 26 -70 26q-74 0 -109 -80h-23v62q58 48 145 48q74 0 120 -31q49 -31 49 -85q0 -46 -42 -82q-35 -29 -81 -40v-21q64 -7 106 -40q41 -35 41 -84
q0 -77 -66 -122q-62 -41 -144 -41q-77 0 -133 25v86z" />
    <glyph glyph-name="four" unicode="4" horiz-adv-x="455" 
d="M433 149h-76v-139h-82v139h-227l-12 58l255 339h66v-342h82zM69 204h206v278z" />
    <glyph glyph-name="five" unicode="5" horiz-adv-x="433" 
d="M82 97h24q40 -66 115 -66q51 0 85 33q37 34 37 94q0 124 -177 124q-36 0 -60 -4l23 261h288l-10 -67l-256 1l-9 -143q36 6 64 6q105 0 160 -40q60 -42 60 -124q0 -80 -74 -128q-64 -42 -144 -42q-62 0 -126 24v71z" />
    <glyph glyph-name="six" unicode="6" horiz-adv-x="477" 
d="M282 2q-94 0 -145 68q-47 62 -47 167q0 139 65 225q66 86 178 86q61 0 113 -18v-65l-24 1q-45 51 -102 51q-60 0 -99 -62q-33 -54 -47 -169q74 56 144 56q73 0 116 -40q46 -40 46 -110q0 -81 -52 -133q-56 -57 -146 -57zM288 34q107 0 107 135q0 57 -32 92q-33 35 -87 35
t-101 -22q-2 -26 -2 -34q0 -92 27 -144q30 -62 88 -62z" />
    <glyph glyph-name="seven" unicode="7" horiz-adv-x="384" 
d="M80 10v6l265 456h-303l11 66h343l7 -20l-244 -508h-79z" />
    <glyph glyph-name="eight" unicode="8" horiz-adv-x="506" 
d="M299 2q-187 0 -187 130q0 86 123 137q-102 67 -102 138q0 57 48 98q49 43 123 43q82 0 132 -33q52 -34 52 -92q0 -80 -126 -128q140 -71 140 -144q0 -61 -59 -105q-62 -44 -144 -44zM362 294q43 55 43 123q0 104 -99 104q-40 0 -65 -25q-27 -25 -27 -65q0 -46 46 -80
q26 -19 102 -57zM305 27q46 0 74 25q34 28 34 75q0 40 -59 78l-54 30l-67 36q-42 -59 -42 -129q0 -53 35 -85q32 -30 79 -30z" />
    <glyph glyph-name="nine" unicode="9" horiz-adv-x="477" 
d="M288 254q54 0 101 22q2 26 2 34q0 92 -27 144q-30 62 -88 62q-107 0 -107 -135q0 -57 32 -92q33 -35 87 -35zM282 548q94 0 145 -68q47 -62 47 -167q0 -139 -65 -225q-66 -86 -178 -86q-61 0 -113 18v65l24 -1q45 -51 102 -51q60 0 99 62q33 54 47 169q-74 -56 -144 -56
q-73 0 -116 40q-46 40 -46 110q0 81 52 133q55 57 146 57z" />
    <glyph glyph-name="colon" unicode=":" horiz-adv-x="305" 
d="M251 337q-35 25 -57 59q30 36 57 60q43 -34 60 -59q-23 -35 -60 -60zM251 -5q-35 25 -57 59q30 36 57 60q43 -34 60 -59q-23 -35 -60 -60z" />
    <glyph glyph-name="semicolon" unicode=";" horiz-adv-x="281" 
d="M172 389q0 25 18 43q19 19 44 19q26 0 44 -18q17 -20 17 -44q0 -23 -17 -40q-18 -18 -44 -18t-44 18q-18 17 -18 40zM295 39q0 -56 -41 -118q-42 -61 -100 -94l-12 13q72 61 72 134q0 46 -47 72q0 17 20 37t45 20q28 0 46 -18q17 -20 17 -46z" />
    <glyph glyph-name="less" unicode="&#x3c;" horiz-adv-x="495" 
d="M165 294l320 -161l-18 -36l-357 183v27l357 188l18 -36z" />
    <glyph glyph-name="equal" unicode="=" horiz-adv-x="524" 
d="M527 366h-379v45h379v-45zM527 182h-379v45h379v-45z" />
    <glyph glyph-name="greater" unicode="&#x3e;" horiz-adv-x="495" 
d="M130 132l320 162l-320 165l18 35l357 -188v-26l-357 -183z" />
    <glyph glyph-name="question" unicode="?" horiz-adv-x="366" 
d="M223 288l-9 -80h-50l-7 91q133 49 133 153q0 46 -21 75q-22 31 -64 31q-37 0 -74 -22l-21 -86h-26v103q61 29 133 29q71 0 111 -31q44 -35 44 -100q0 -106 -149 -163zM190 2q-26 0 -44 18q-18 16 -18 40q0 25 18 43q19 19 44 19q26 0 44 -18q17 -20 17 -44q0 -23 -17 -40
q-18 -18 -44 -18z" />
    <glyph glyph-name="at" unicode="@" horiz-adv-x="882" 
d="M521 12l30 172l-189 -182h-36q-11 41 -11 101q0 180 59 260q64 85 131 85q43 0 105 -30l26 31h18l-66 -387l20 -13q237 103 237 251q0 130 -92 216q-95 87 -238 87q-159 0 -265 -109q-108 -110 -108 -274q0 -167 98 -271q100 -105 276 -105q135 0 257 101h1l-1 -33
q-134 -101 -280 -101q-177 0 -289 103q-116 107 -116 283q0 183 133 310t321 127q152 0 249 -91q99 -92 99 -227q0 -107 -109 -198q-88 -76 -219 -118zM401 79l155 135l28 159q-100 43 -145 33q-68 -92 -68 -264q0 -31 4 -55z" />
    <glyph glyph-name="glyph36" unicode="A" horiz-adv-x="613" 
d="M296 484l-88 -238h182l-75 238h-19zM384 10v17l69 19l-54 170h-203l-61 -166l82 -22v-18h-199v17l66 19l217 530h62l187 -530l62 -18v-18h-228z" />
    <glyph glyph-name="glyph37" unicode="B" horiz-adv-x="582" 
d="M80 553v20h253q99 0 154 -36q56 -36 56 -100q0 -86 -97 -122v-18q135 -17 135 -131q0 -70 -54 -111q-59 -45 -169 -45h-278v19l92 23v478zM258 316h56q137 0 137 113q0 115 -144 115h-49v-228zM258 43h71q163 0 163 120q0 73 -57 101q-40 22 -128 22h-49v-243z" />
    <glyph glyph-name="glyph38" unicode="C" horiz-adv-x="576" 
d="M570 415h-37l-36 115q-43 22 -94 22q-99 0 -160 -64q-65 -71 -65 -192q0 -128 67 -198q63 -66 172 -66q83 0 140 65h13v-60q-81 -35 -168 -35q-148 0 -230 67q-92 74 -92 216q0 133 91 215q88 82 234 82q89 0 165 -30v-137z" />
    <glyph glyph-name="glyph39" unicode="D" horiz-adv-x="663" 
d="M80 10v19l92 23v478l-92 23v20h258q160 0 240 -51q99 -63 99 -216q0 -141 -95 -221q-90 -75 -239 -75h-263zM258 43h83q238 0 238 248q0 250 -248 250h-73v-498z" />
    <glyph glyph-name="glyph40" unicode="E" horiz-adv-x="538" 
d="M471 274l-213 5v-236h199l55 101l29 -5l-18 -129h-443v19l92 23v478l-92 23v20h441v-120h-37l-32 88h-194v-230l213 6v-43z" />
    <glyph glyph-name="glyph41" unicode="F" horiz-adv-x="491" 
d="M80 10v19l92 23v478l-92 23v20h438v-120h-37l-31 88h-192v-240l213 8v-45l-213 7v-217l99 -24v-20h-277z" />
    <glyph glyph-name="glyph42" unicode="G" horiz-adv-x="609" 
d="M536 415l-36 115q-43 22 -98 22q-96 0 -157 -64q-67 -70 -67 -192t67 -192q65 -68 172 -68q41 0 76 13v191l-91 22v20h174v-245q-65 -35 -174 -35q-144 0 -230 68q-92 74 -92 215q0 132 91 214q92 83 234 83q99 0 167 -30v-137h-36z" />
    <glyph glyph-name="glyph43" unicode="H" horiz-adv-x="722" 
d="M453 10v19l91 23v230h-287v-229l92 -23v-20h-269v19l92 23v477l-92 24v20h269v-19l-92 -23v-219h287v218l-91 23v20h269v-19l-92 -24v-477l92 -23v-20h-269z" />
    <glyph glyph-name="glyph44" unicode="I" horiz-adv-x="372" 
d="M102 10v19l92 23v478l-92 23v20h271v-19l-93 -24v-477l93 -23v-20h-271z" />
    <glyph glyph-name="glyph45" unicode="J" horiz-adv-x="426" 
d="M34 22v150h26l26 -119q31 -16 73 -16q36 0 60 29q26 32 26 85v379l-92 23v20h272v-19l-93 -24v-376q0 -68 -51 -111q-50 -41 -113 -41q-79 0 -134 20z" />
    <glyph glyph-name="glyph46" unicode="K" horiz-adv-x="623" 
d="M500 10l-206 279v12l213 227l-70 25v20h193v-22l-65 -20l-198 -201l216 -279l74 -20v-21h-157zM80 10v19l92 23v478l-92 23v20h270v-19l-92 -23v-478l92 -23v-20h-270z" />
    <glyph glyph-name="glyph47" unicode="L" horiz-adv-x="514" 
d="M80 10v19l92 23v478l-92 23v20h270v-19l-92 -23v-488h189l71 124l23 -6l-25 -151h-436z" />
    <glyph glyph-name="glyph48" unicode="M" horiz-adv-x="851" 
d="M593 10v19l80 20l-38 418h-20l-175 -465h-41l-172 470h-21l-36 -421l81 -21v-20h-213v19l85 20l48 479l-88 25v20h196l156 -436h19l155 436h191v-21l-87 -26l50 -477l81 -19v-20h-251z" />
    <glyph glyph-name="glyph49" unicode="N" horiz-adv-x="680" 
d="M77 10v20l76 24v469l-77 28v22h170l299 -410h20v363l-89 26v21h211v-20l-76 -24v-527h-57l-336 459h-18v-406l92 -25v-20h-215z" />
    <glyph glyph-name="glyph50" unicode="O" horiz-adv-x="655" 
d="M655 314q0 -132 -79 -220q-83 -92 -216 -92q-128 0 -204 75q-76 73 -76 198q0 137 82 222t214 85q127 0 204 -74q75 -72 75 -194zM363 32q97 0 148 79q45 71 45 184q0 116 -48 185q-49 73 -139 73q-92 0 -143 -71q-48 -68 -48 -186q0 -116 46 -186q50 -78 139 -78z" />
    <glyph glyph-name="glyph51" unicode="P" horiz-adv-x="541" 
d="M80 10v19l92 23v478l-92 23v20h284q92 0 142 -41q54 -43 54 -130q0 -77 -58 -120q-62 -47 -179 -47h-65v-182l92 -23v-20h-270zM258 267h53q158 5 158 133q0 64 -39 101q-38 37 -108 38l-64 1v-273z" />
    <glyph glyph-name="glyph52" unicode="Q" horiz-adv-x="655" 
d="M655 314q0 -98 -45 -174q-47 -78 -146 -122l203 -114v-4h-138l-104 109q-29 -7 -65 -7q-128 0 -204 75q-76 73 -76 198q0 137 82 222t214 85q127 0 204 -74q75 -72 75 -194zM363 32q97 0 148 79q45 71 45 184q0 116 -48 185q-49 73 -139 73q-92 0 -143 -71
q-48 -68 -48 -186q0 -116 46 -186q50 -78 139 -78z" />
    <glyph glyph-name="glyph53" unicode="R" horiz-adv-x="609" 
d="M314 541h-56v-242h39q161 5 161 118q0 123 -144 124zM496 10l-150 258h-88v-215l92 -23v-20h-270v19l92 23v478l-92 23v20h278q89 0 140 -39q52 -40 52 -114q0 -102 -120 -140l141 -225l69 -26v-19h-144z" />
    <glyph glyph-name="glyph54" unicode="S" horiz-adv-x="470" 
d="M418 422l-25 95q-53 32 -112 32q-53 0 -86 -27q-32 -29 -32 -72q0 -42 40 -69q23 -15 90 -41q83 -33 121 -61q55 -43 55 -116q0 -80 -66 -122q-60 -39 -156 -39q-89 0 -167 33v133h26l26 -96q68 -38 136 -38q55 0 86 28q36 29 36 82q0 45 -52 75q-22 12 -104 44
q-141 54 -141 155q0 74 55 120q56 44 135 44q95 0 161 -32v-128h-26z" />
    <glyph glyph-name="glyph55" unicode="T" horiz-adv-x="539" 
d="M154 10v19l92 23v489h-132l-49 -121h-23v153h496v-153h-24l-54 121h-127v-488l92 -23v-20h-271z" />
    <glyph glyph-name="glyph56" unicode="U" horiz-adv-x="666" 
d="M366 2q-107 0 -167 45q-69 51 -69 156v328l-84 22v20h263v-19l-88 -22v-322q0 -85 47 -132q44 -42 114 -42q160 0 160 194v298l-92 25v20h215v-20l-76 -24v-302q0 -115 -72 -175q-62 -50 -151 -50z" />
    <glyph glyph-name="glyph57" unicode="V" horiz-adv-x="606" 
d="M273 4l-200 531l-57 17v21h234v-19l-76 -21l142 -415h19l152 413l-74 21v21h193v-20l-65 -22l-220 -527h-48z" />
    <glyph glyph-name="glyph58" unicode="W" horiz-adv-x="938" 
d="M292 4h-52l-169 532l-55 16v21h237v-19l-83 -23l114 -403h19l159 445h65l148 -447h19l130 404l-79 23v20h195v-20l-63 -20l-197 -529h-53l-148 443h-20z" />
    <glyph glyph-name="glyph59" unicode="X" horiz-adv-x="593" 
d="M367 10v21l54 17l-128 207l-127 -197l88 -26v-22h-206v21l54 15l173 238l-154 248l-63 19v22h228v-21l-64 -20l119 -189l124 185l-70 23v22h192v-21l-71 -24l-158 -213l167 -262l67 -21v-22h-225z" />
    <glyph glyph-name="glyph60" unicode="Y" horiz-adv-x="570" 
d="M159 10v19l92 23v184l-174 299l-55 17v21h234v-19l-87 -25l141 -252h16l134 251l-85 25v20h193v-20l-50 -17l-181 -300v-183l93 -23v-20h-271z" />
    <glyph glyph-name="glyph61" unicode="Z" horiz-adv-x="502" 
d="M57 10l-5 21l320 507h-244l-38 -118h-21v153h413l4 -14l-335 -514h261l58 111l21 -3l-14 -143h-420z" />
    <glyph glyph-name="bracketleft" unicode="[" horiz-adv-x="276" 
d="M315 -171h-119v840h119v-37h-72v-767h72v-36z" />
    <glyph glyph-name="backslash" unicode="\" horiz-adv-x="298" 
d="M250 -80l-190 739h48l189 -739h-47z" />
    <glyph glyph-name="bracketright" unicode="]" horiz-adv-x="276" 
d="M239 -171h-119v36h72v767h-72v37h119v-840z" />
    <glyph glyph-name="asciicircum" unicode="^" horiz-adv-x="448" 
d="M444 249h-50l-106 293l-124 -293h-48l143 324h58z" />
    <glyph glyph-name="underscore" unicode="_" horiz-adv-x="440" 
d="M437 -136h-417v46h417v-46z" />
    <glyph glyph-name="grave" unicode="`" horiz-adv-x="351" 
d="M176 639l39 46l130 -136l-15 -17z" />
    <glyph glyph-name="A" unicode="a" horiz-adv-x="475" 
d="M341 79l1 129h-66q-122 0 -122 -79q0 -75 86 -75q41 0 101 25zM148 312h-41v104q82 35 159 35q149 0 149 -127v-266l68 -29v-19h-126l-18 67q-72 -75 -151 -75q-49 0 -79 27q-31 28 -31 79q0 56 54 94q58 40 151 40h59v69q0 51 -29 83q-27 28 -71 28q-24 0 -64 -17z" />
    <glyph glyph-name="B" unicode="b" horiz-adv-x="513" 
d="M90 38v605h-82v20l112 30h44v-293q82 51 144 51q167 0 167 -213q0 -103 -71 -171q-68 -65 -164 -65q-94 0 -150 36zM251 41q73 0 110 60q30 48 30 125q0 80 -35 130q-36 51 -97 51q-52 0 -95 -22v-319q49 -25 87 -25z" />
    <glyph glyph-name="C" unicode="c" horiz-adv-x="446" 
d="M400 295l-35 113q-32 17 -72 17q-61 0 -98 -49q-39 -50 -39 -137q0 -88 47 -141q47 -50 118 -50q60 0 121 31l4 -8q-49 -70 -162 -70q-98 0 -152 58q-54 57 -54 158q0 100 59 168q59 66 147 66q97 0 158 -37v-119h-42z" />
    <glyph glyph-name="D" unicode="d" horiz-adv-x="523" 
d="M389 79v317q-49 23 -90 23q-142 0 -142 -181q0 -88 37 -137q36 -48 97 -48q31 0 98 26zM463 58l68 -29v-19h-125l-17 68q-67 -76 -143 -76q-72 0 -117 48q-51 56 -51 160q0 108 63 175q62 65 150 65q47 0 98 -18v211h-82v20l112 30h44v-635z" />
    <glyph glyph-name="E" unicode="e" horiz-adv-x="464" 
d="M159 247v-16q0 -88 49 -137q46 -46 120 -46q62 0 122 30l5 -7q-51 -69 -167 -69q-100 0 -154 56t-54 159t60 169q59 65 149 65q171 0 175 -204h-305zM161 275l217 3q-11 146 -105 146t-112 -149z" />
    <glyph glyph-name="F" unicode="f" horiz-adv-x="325" 
d="M72 10v18l75 23v353h-81v23l81 18v79q0 75 59 125q58 48 138 48q28 0 41 -4l-11 -70h-11l-100 33q-42 -50 -42 -121v-92h98v-39h-98v-351l80 -24v-19h-229z" />
    <glyph glyph-name="G" unicode="g" horiz-adv-x="501" 
d="M343 308q0 55 -25 86t-66 31q-40 0 -63 -29t-23 -77q0 -107 91 -107q86 0 86 96zM213 189l-53 -77l141 -16q173 -21 173 -125q0 -66 -65 -119q-70 -58 -180 -58q-87 0 -134 36q-43 31 -43 82q0 67 122 133l-74 12v46l93 90q-104 36 -104 118q0 57 47 98q48 42 118 42
q90 0 139 -49l91 43h15v-49h-99q25 -43 25 -83q0 -51 -50 -89t-115 -38q-27 0 -47 3zM256 -171q62 0 106 29q44 30 44 77q0 78 -129 96l-102 15q-54 -57 -54 -119q0 -98 135 -98z" />
    <glyph glyph-name="H" unicode="h" horiz-adv-x="585" 
d="M58 10v18l76 23v592h-82v20l111 30h45v-319q98 77 182 77q119 0 119 -154v-245l75 -23v-19h-225v18l77 24v229q0 117 -109 117q-53 0 -119 -33v-312l75 -24v-19h-225z" />
    <glyph glyph-name="I" unicode="i" horiz-adv-x="298" 
d="M134 617q0 51 54 51t54 -51q0 -23 -15 -37q-17 -14 -39 -14t-39 14q-15 14 -15 37zM72 10v18l76 23v345h-82v19l127 36h29v-398l79 -24v-19h-229z" />
    <glyph glyph-name="J" unicode="j" horiz-adv-x="282" 
d="M134 617q0 51 54 51t54 -51q0 -23 -15 -37q-17 -14 -39 -14t-39 14q-15 14 -15 37zM222 451v-420q0 -153 -105 -234l-21 15q52 73 52 192v392h-82v19l127 36h29z" />
    <glyph glyph-name="K" unicode="k" horiz-adv-x="521" 
d="M58 10v18l76 24v591h-82v20l112 30h44v-641l76 -23v-19h-226zM530 10h-136l-142 226v11l140 147l-77 31v18h188v-20l-52 -26l-136 -128l143 -210l72 -30v-19z" />
    <glyph glyph-name="L" unicode="l" horiz-adv-x="285" 
d="M58 10v18l76 23v592h-82v20l112 30h44v-640l78 -24v-19h-228z" />
    <glyph glyph-name="M" unicode="m" horiz-adv-x="868" 
d="M651 10v18l75 24v229q0 118 -109 118q-47 0 -110 -33q8 -45 8 -69v-245l75 -23v-19h-223v18l74 23v230q0 118 -109 118q-52 0 -110 -33v-313l76 -24v-19h-226v18l76 23v345h-82v20l116 35h23l21 -71q89 71 169 71q74 0 108 -76q91 76 178 76q119 0 119 -154v-244l77 -24
v-19h-226z" />
    <glyph glyph-name="N" unicode="n" horiz-adv-x="589" 
d="M72 10v18l76 23v345h-82v20l116 35h22l22 -73q91 73 173 73q125 0 125 -154v-245l74 -23v-19h-225v18l76 24v229q0 118 -109 118q-53 0 -118 -35v-311l76 -24v-19h-226z" />
    <glyph glyph-name="O" unicode="o" horiz-adv-x="495" 
d="M492 225q0 -96 -64 -160q-62 -63 -147 -63q-201 0 -201 218q0 98 64 165q63 66 145 66q203 0 203 -226zM293 34q115 0 115 179q0 210 -128 210q-117 0 -117 -186q0 -203 130 -203z" />
    <glyph glyph-name="P" unicode="p" horiz-adv-x="537" 
d="M212 384v-325q45 -21 89 -21q71 0 109 60q29 50 29 126q0 181 -131 181q-46 0 -96 -21zM61 -197v18l77 24v551h-82v20l116 35h23l15 -54q78 54 144 54q170 0 170 -213q0 -103 -71 -171q-68 -65 -164 -65q-28 0 -77 11v-167l77 -24v-19h-228z" />
    <glyph glyph-name="Q" unicode="q" horiz-adv-x="505" 
d="M306 -197v18l81 25v230q-74 -74 -141 -74q-70 0 -116 51q-52 55 -52 158q0 109 66 177q62 63 152 63t165 -21v-585l74 -23v-19h-229zM387 80v311q-45 27 -90 27q-137 0 -137 -176q0 -185 133 -185q31 0 94 23z" />
    <glyph glyph-name="R" unicode="r" horiz-adv-x="384" 
d="M74 10v18l74 23v345h-82v20l116 35h22l16 -55q76 55 145 55q18 0 34 -2l-16 -82h-10l-88 33h-63v-346l81 -25v-19h-229z" />
    <glyph glyph-name="S" unicode="s" horiz-adv-x="416" 
d="M94 26v110h36l24 -78q46 -27 98 -27q42 0 67 18q31 19 31 56q0 45 -45 67q-16 9 -88 29q-58 17 -83 38q-36 30 -36 84q0 61 49 95q47 33 120 33q84 0 134 -25v-96h-33l-21 66q-50 27 -94 27q-93 0 -93 -73q0 -46 46 -68q16 -9 90 -27q58 -15 84 -36q36 -28 36 -83
q0 -64 -52 -101q-50 -33 -124 -33q-70 0 -146 24z" />
    <glyph glyph-name="T" unicode="t" horiz-adv-x="359" 
d="M354 47l5 -21q-49 -24 -115 -24q-128 0 -126 129v271h-66v20l68 23l33 116h42v-118h150v-41h-150v-269q1 -93 101 -93q34 0 58 7z" />
    <glyph glyph-name="U" unicode="u" horiz-adv-x="563" 
d="M428 10l-15 64q-90 -72 -171 -72q-116 0 -116 148v246h-82v19l127 36h29v-259q0 -136 99 -136q49 0 111 30v310h-81v19l127 36h29v-393l68 -29v-19h-125z" />
    <glyph glyph-name="V" unicode="v" horiz-adv-x="513" 
d="M510 443v-19l-68 -23l-160 -397h-63l-151 401l-56 18v20h211v-19l-66 -22l98 -315h21l117 313l-64 23v20h181z" />
    <glyph glyph-name="W" unicode="w" horiz-adv-x="776" 
d="M503 4l-100 328h-20l-122 -328h-64l-133 402l-52 17v20h211v-19l-68 -22l82 -318h20l125 359h58l105 -360h18l98 315l-70 25v20h182v-19l-61 -20l-143 -400h-66z" />
    <glyph glyph-name="X" unicode="x" horiz-adv-x="534" 
d="M532 10h-211v18l51 17l-106 157l-114 -148l71 -25v-19h-181v18l49 16l158 180l-140 181l-60 18v20h212v-19l-63 -21l100 -143l115 141l-64 22v20h182v-19l-74 -24l-142 -162l148 -188l69 -21v-19z" />
    <glyph glyph-name="Y" unicode="y" horiz-adv-x="513" 
d="M223 443v-19l-66 -22l104 -324h19l114 322l-65 23v20h181v-19l-68 -23l-151 -377l-67 -221h-81v17l86 167l-160 418l-57 18v20h211z" />
    <glyph glyph-name="Z" unicode="z" horiz-adv-x="439" 
d="M428 147l-19 -137h-348l-7 21l260 382h-170l-68 -80l-13 2l11 108h333l8 -18l-261 -385h187l73 111z" />
    <glyph glyph-name="braceleft" unicode="{" horiz-adv-x="290" 
d="M286 -168l-14 -1q-69 -4 -112 25q-45 31 -37 105l16 189q7 88 -63 88v30q74 0 63 89l-16 194q-6 61 28.5 91.5t110.5 29.5l24 -1l-1 -34h-16q-55 0 -79 -18q-28 -19 -23 -69l16 -186q9 -79 -75 -113q49 -16 63 -43q14 -29 11 -63l-16 -185q-5 -48 20 -70q24 -21 83 -21
h16z" />
    <glyph glyph-name="bar" unicode="|" horiz-adv-x="212" 
d="M213 -82h-47v747h47v-747z" />
    <glyph glyph-name="braceright" unicode="}" horiz-adv-x="291" 
d="M101 -169l-15 1v37h18q58 0 83 21q25 22 20 70l-17 185q-3 34 11 64q14 26 63 41q-83 36 -76 114l17 186q5 48 -22 69q-24 18 -79 18h-18v34h24q152 2 140 -120l-16 -194q-11 -89 63 -89v-30q-73 0 -63 -88l16 -189q7 -72 -38 -105q-42 -29 -111 -25z" />
    <glyph glyph-name="asciitilde" unicode="~" horiz-adv-x="442" 
d="M423 313l18 -25q-36 -42 -97 -42q-34 0 -85 24q-57 26 -86 26q-34 0 -71 -25l-16 23q37 43 92 43q40 0 87 -24q54 -26 87 -26q36 0 71 26z" />
    <glyph glyph-name="nbspace" unicode="&#xa0;" horiz-adv-x="206" 
 />
    <glyph glyph-name="exclamdown" unicode="&#xa1;" horiz-adv-x="278" 
d="M152 391q0 24 18 42q18 19 44 19t43 -18q17 -20 17 -43q0 -24 -17 -41q-17 -18 -43 -18t-44 18q-18 17 -18 41zM168 -118l26 366h40l26 -366h-92z" />
    <glyph glyph-name="cent" unicode="&#xa2;" horiz-adv-x="446" 
d="M400 295l-35 113q-24 13 -60 17v-377h16q60 0 121 31l4 -8q-37 -54 -141 -68v-70h-26v68q-101 4 -151 62q-50 56 -50 154q0 97 54 163q53 64 147 71v74h26v-74q82 -5 137 -37v-119h-42zM279 52v372q-123 -24 -123 -185q0 -145 123 -187z" />
    <glyph glyph-name="sterling" unicode="&#xa3;" horiz-adv-x="498" 
d="M374 302v-32h-160q12 -51 12 -76q0 -51 -39 -144h217l59 112l23 -4l-24 -148h-422v19l82 21q26 67 26 122q0 32 -22 98h-69v32h61q-12 43 -12 79q0 69 58 118q52 46 123 46q85 0 149 -33v-131h-26l-30 107q-44 24 -88 24t-76 -29q-31 -30 -31 -76q0 -27 20 -105h169z" />
    <glyph glyph-name="currency" unicode="&#xa4;" horiz-adv-x="496" 
d="M127 64l-19 20l71 69q-36 47 -36 105q0 62 36 105l-71 70l19 18l69 -69q55 37 106 37q59 0 106 -35l68 69l20 -21l-70 -70q36 -39 36 -104t-38 -106l70 -70l-17 -20l-68 69q-55 -33 -107 -33q-57 0 -104 35zM302 140q115 0 115 118q1 47 -28 83q-32 35 -87 35t-87 -35
q-29 -35 -29 -83q0 -52 30 -83q32 -35 86 -35z" />
    <glyph glyph-name="yen" unicode="&#xa5;" horiz-adv-x="567" 
d="M162 10v19l92 23v105h-181v31h181v39l-31 48h-150v31h131l-124 194l-54 17v21h232v-19l-85 -25l138 -225h17l131 225l-83 24v20h192v-20l-51 -17l-127 -195h133v-31h-153l-31 -47v-40h185v-31h-185v-104l91 -23v-20h-268z" />
    <glyph glyph-name="brokenbar" unicode="&#xa6;" horiz-adv-x="216" 
d="M213 665v-273h-47v273h47zM213 -82h-47v278h47v-278z" />
    <glyph glyph-name="section" unicode="&#xa7;" horiz-adv-x="451" 
d="M285 302l-154 133v-31q0 -106 120 -212l143 -123q6 18 6 26q0 107 -115 207zM108 83l24 -97q55 -34 124 -34q59 0 111 55l-174 149q-113 98 -113 227q0 79 65 138q61 58 141 58q96 0 155 -33v-130h-17l-24 96q-59 35 -125 35q-62 0 -111 -55l173 -149q113 -98 113 -227
q0 -80 -64 -138q-61 -58 -142 -58q-96 0 -154 33v130h18z" />
    <glyph glyph-name="dieresis" unicode="&#xa8;" horiz-adv-x="390" 
d="M311 611q0 41 42 41q18 0 29 -11q12 -12 12 -30q0 -17 -12 -29t-29 -12q-18 0 -30 12t-12 29zM134 611q0 41 41 41q18 0 29 -11q12 -12 12 -30q0 -17 -12 -29t-29 -12q-18 0 -30 12q-11 14 -11 29z" />
    </font>
</defs>
</svg>
